<svg width="54" height="54" viewBox="0 0 54 54" fill="none" xmlns="http://www.w3.org/2000/svg">
<path d="M27 4.5C17.1 4.5 9 12.6 9 22.5C9 34.65 24.75 48.375 25.425 49.05C25.875 49.275 26.55 49.5 27 49.5C27.45 49.5 28.125 49.275 28.575 49.05C29.25 48.375 45 34.65 45 22.5C45 12.6 36.9 4.5 27 4.5ZM27 44.325C22.275 39.825 13.5 30.15 13.5 22.5C13.5 15.075 19.575 9 27 9C34.425 9 40.5 15.075 40.5 22.5C40.5 29.925 31.725 39.825 27 44.325ZM27 13.5C22.05 13.5 18 17.55 18 22.5C18 27.45 22.05 31.5 27 31.5C31.95 31.5 36 27.45 36 22.5C36 17.55 31.95 13.5 27 13.5ZM27 27C24.525 27 22.5 24.975 22.5 22.5C22.5 20.025 24.525 18 27 18C29.475 18 31.5 20.025 31.5 22.5C31.5 24.975 29.475 27 27 27Z" fill="white"/>
</svg>
