<svg width="54" height="54" viewBox="0 0 54 54" fill="none" xmlns="http://www.w3.org/2000/svg">
<path d="M45 34.875C42.3 34.875 39.375 34.425 36.9 33.525H36.225C35.55 33.525 35.1 33.75 34.65 34.2L29.7 39.15C23.4 35.775 18 30.6 14.85 24.3L19.8 19.35C20.475 18.675 20.7 17.775 20.25 17.1C19.575 14.625 19.125 11.7 19.125 9C19.125 7.875 18 6.75 16.875 6.75H9C7.875 6.75 6.75 7.875 6.75 9C6.75 30.15 23.85 47.25 45 47.25C46.125 47.25 47.25 46.125 47.25 45V37.125C47.25 36 46.125 34.875 45 34.875ZM11.25 11.25H14.625C14.85 13.275 15.3 15.3 15.75 17.1L13.05 19.8C12.15 17.1 11.475 14.175 11.25 11.25ZM42.75 42.75C39.825 42.525 36.9 41.85 34.2 40.95L36.9 38.25C38.7 38.7 40.725 39.15 42.75 39.15V42.75ZM33.75 27H38.25C38.25 24.0163 37.0647 21.1548 34.955 19.045C32.8452 16.9353 29.9837 15.75 27 15.75V20.25C28.7902 20.25 30.5071 20.9612 31.773 22.227C33.0388 23.4929 33.75 25.2098 33.75 27ZM42.75 27H47.25C47.25 15.75 38.1825 6.75 27 6.75V11.25C35.685 11.25 42.75 18.2925 42.75 27Z" fill="white"/>
</svg>
