<svg width="44" height="44" viewBox="0 0 44 44" fill="none" xmlns="http://www.w3.org/2000/svg">
<path d="M10.9993 10.9987H32.9993V18.2587L21.9993 14.6654L10.9993 18.2587V10.9987ZM7.22268 34.832H7.33268C10.266 34.832 12.8327 33.2187 14.666 31.1654C16.4993 33.2187 19.066 34.832 21.9993 34.832C24.9327 34.832 27.4993 33.2187 29.3327 31.1654C31.166 33.2187 33.7327 34.832 36.666 34.832H36.7577L40.241 22.567C40.3877 22.1087 40.3327 21.5954 40.131 21.1554C39.8927 20.7154 39.5077 20.3854 39.031 20.2387L36.666 19.4687V10.9987C36.666 8.9637 35.016 7.33203 32.9993 7.33203H27.4993V1.83203H16.4993V7.33203H10.9993C10.0269 7.33203 9.09426 7.71834 8.40662 8.40597C7.71899 9.09361 7.33268 10.0262 7.33268 10.9987V19.4687L4.96768 20.2387C4.49102 20.3854 4.10602 20.7154 3.86768 21.1554C3.66602 21.5954 3.61102 22.1087 3.75768 22.567L7.22268 34.832ZM36.666 38.4987C34.1177 38.4987 31.5693 37.637 29.3327 36.0604C24.8593 39.1954 19.1393 39.1954 14.666 36.0604C12.4293 37.637 9.88102 38.4987 7.33268 38.4987H3.66602V42.1654H7.33268C9.84435 42.1654 12.356 41.5237 14.666 40.332C19.2493 42.7154 24.7493 42.7154 29.3327 40.332C31.6427 41.5237 34.136 42.1654 36.666 42.1654H40.3327V38.4987H36.666Z" fill="white"/>
</svg>
