<svg width="44" height="44" viewBox="0 0 44 44" fill="none" xmlns="http://www.w3.org/2000/svg">
<path d="M10.9993 34.8333H14.666V38.5H10.9993V34.8333ZM21.9993 5.5L3.66602 14.6667V38.5H7.33268V23.8333H36.666V38.5H40.3327V14.6667L21.9993 5.5ZM14.666 20.1667H7.33268V16.5H14.666V20.1667ZM25.666 20.1667H18.3327V16.5H25.666V20.1667ZM36.666 20.1667H29.3327V16.5H36.666V20.1667ZM10.9993 27.5H14.666V31.1667H10.9993V27.5ZM18.3327 27.5H21.9993V31.1667H18.3327V27.5ZM18.3327 34.8333H21.9993V38.5H18.3327V34.8333ZM25.666 34.8333H29.3327V38.5H25.666V34.8333Z" fill="white"/>
</svg>
