<svg width="64" height="64" viewBox="0 0 64 64" fill="none" xmlns="http://www.w3.org/2000/svg">
<path fill-rule="evenodd" clip-rule="evenodd" d="M10.0647 16.7587C12.6196 16.2687 17.8146 15.1306 21.1636 13.4342C24.2913 11.8499 28.0577 8.63943 29.9868 6.90334C30.7168 6.24642 31.823 6.23119 32.5698 6.86841C34.5935 8.59528 38.5928 11.8365 41.8661 13.4342C45.1952 15.0591 50.2882 16.2114 52.8693 16.7276C53.794 16.9126 54.4599 17.744 54.3956 18.6965C54.0819 23.3377 52.8277 36.5836 48.4303 44.2703C43.3381 53.1715 33.1529 56.9828 31.4934 57.5554C31.3381 57.609 31.1834 57.6148 31.0248 57.5724C29.3836 57.1336 19.6311 54.1634 14.0945 44.2703C9.16562 35.4632 8.5802 22.9607 8.53331 18.6024C8.5235 17.6908 9.18037 16.9282 10.0647 16.7587ZM43.1827 25.8023C43.9121 25.0599 43.9092 23.8593 43.1763 23.1205C42.4435 22.3817 41.2581 22.3846 40.5288 23.127L27.6655 36.2195L22.4264 31.2973C21.6683 30.5851 20.4838 30.6302 19.7807 31.398C19.0776 32.1659 19.1221 33.3657 19.8802 34.0779L25.7818 39.6226C26.8907 40.6645 28.615 40.6296 29.6819 39.5436L43.1827 25.8023Z" fill="white"/>
</svg>
