<svg width="64" height="64" viewBox="0 0 64 64" fill="none" xmlns="http://www.w3.org/2000/svg">
<path fill-rule="evenodd" clip-rule="evenodd" d="M30.4848 32.5466L52.4687 21.9944C52.8006 21.8351 53.185 22.077 53.185 22.4451V29.4568C52.0075 29.1636 50.7756 29.0079 49.5072 29.0079C41.1294 29.0079 34.3379 35.7995 34.3379 44.1773C34.3379 47.4566 35.3785 50.4929 37.1474 52.9739L30.9318 56.2061C30.599 56.3791 30.2012 56.1376 30.2012 55.7624V32.9974C30.2012 32.8051 30.3114 32.6298 30.4848 32.5466Z" fill="white"/>
<path d="M52.4687 21.9944L52.0359 21.0929V21.0929L52.4687 21.9944ZM30.4848 32.5466L30.9175 33.4482L30.9175 33.4482L30.4848 32.5466ZM53.185 29.4568L52.9434 30.4272L54.185 30.7364V29.4568H53.185ZM37.1474 52.9739L37.6088 53.8612L38.6297 53.3303L37.9617 52.3934L37.1474 52.9739ZM30.9318 56.2061L30.4705 55.3188L30.4705 55.3188L30.9318 56.2061ZM52.0359 21.0929L30.0521 31.6451L30.9175 33.4482L52.9014 22.8959L52.0359 21.0929ZM54.185 22.4451C54.185 21.3406 53.0317 20.6149 52.0359 21.0929L52.9014 22.8959C52.5695 23.0552 52.185 22.8133 52.185 22.4451H54.185ZM54.185 29.4568V22.4451H52.185V29.4568H54.185ZM49.5072 30.0079C50.6934 30.0079 51.8443 30.1535 52.9434 30.4272L53.4267 28.4865C52.1707 28.1737 50.8577 28.0079 49.5072 28.0079V30.0079ZM35.3379 44.1773C35.3379 36.3518 41.6817 30.0079 49.5072 30.0079V28.0079C40.5772 28.0079 33.3379 35.2472 33.3379 44.1773H35.3379ZM37.9617 52.3934C36.3095 50.0762 35.3379 47.2417 35.3379 44.1773H33.3379C33.3379 47.6715 34.4474 50.9096 36.3332 53.5545L37.9617 52.3934ZM31.3932 57.0933L37.6088 53.8612L36.6861 52.0867L30.4705 55.3188L31.3932 57.0933ZM29.2012 55.7624C29.2012 56.8879 30.3946 57.6125 31.3932 57.0933L30.4705 55.3188C30.8034 55.1457 31.2012 55.3873 31.2012 55.7624H29.2012ZM29.2012 32.9974V55.7624H31.2012V32.9974H29.2012ZM30.0521 31.6451C29.532 31.8947 29.2012 32.4205 29.2012 32.9974H31.2012C31.2012 33.1897 31.0909 33.3649 30.9175 33.4482L30.0521 31.6451Z" fill="white"/>
<path fill-rule="evenodd" clip-rule="evenodd" d="M14.3045 22.4383L6.29177 18.432C5.91992 18.2461 5.92421 17.7139 6.29902 17.534L28.1443 7.04826C28.2824 6.98201 28.4431 6.98265 28.5806 7.04999L36.724 11.0386L14.3045 22.4383ZM19.8666 25.2194L28.137 29.3546C28.2791 29.4256 28.4464 29.4249 28.5879 29.3528L49.9963 18.4301C50.3633 18.2429 50.359 17.7169 49.9889 17.5357L42.3429 13.7907L19.8666 25.2194Z" fill="white"/>
<path d="M6.29177 18.432L6.73899 17.5376H6.73899L6.29177 18.432ZM14.3045 22.4383L13.8572 23.3328L14.3082 23.5583L14.7577 23.3297L14.3045 22.4383ZM6.29902 17.534L5.86629 16.6325H5.86628L6.29902 17.534ZM28.1443 7.04826L28.5771 7.94979V7.94978L28.1443 7.04826ZM28.5806 7.04999L28.1408 7.94805L28.1408 7.94805L28.5806 7.04999ZM36.724 11.0386L37.1772 11.93L38.9632 11.0218L37.1638 10.1405L36.724 11.0386ZM19.8666 25.2194L19.4133 24.328L17.6455 25.2269L19.4194 26.1138L19.8666 25.2194ZM28.137 29.3546L28.5842 28.4602L28.137 29.3546ZM28.5879 29.3528L29.0423 30.2435L29.0423 30.2435L28.5879 29.3528ZM49.9963 18.4301L49.5418 17.5394L49.9963 18.4301ZM49.9889 17.5357L50.4288 16.6376V16.6376L49.9889 17.5357ZM42.3429 13.7907L42.7828 12.8927L42.3346 12.6731L41.8897 12.8993L42.3429 13.7907ZM5.84456 19.3264L13.8572 23.3328L14.7517 21.5439L6.73899 17.5376L5.84456 19.3264ZM5.86628 16.6325C4.74187 17.1722 4.72899 18.7686 5.84456 19.3264L6.73899 17.5376C7.11085 17.7235 7.10655 18.2556 6.73175 18.4355L5.86628 16.6325ZM27.7116 6.14674L5.86629 16.6325L6.73175 18.4355L28.5771 7.94979L27.7116 6.14674ZM29.0205 6.15193C28.608 5.94989 28.1257 5.94798 27.7116 6.14674L28.5771 7.94978C28.439 8.01604 28.2783 8.0154 28.1408 7.94805L29.0205 6.15193ZM37.1638 10.1405L29.0205 6.15193L28.1408 7.94805L36.2841 11.9366L37.1638 10.1405ZM14.7577 23.3297L37.1772 11.93L36.2707 10.1472L13.8512 21.5469L14.7577 23.3297ZM19.4194 26.1138L27.6898 30.249L28.5842 28.4602L20.3138 24.325L19.4194 26.1138ZM27.6898 30.249C28.1159 30.4621 28.6179 30.46 29.0423 30.2435L28.1334 28.462C28.2748 28.3898 28.4422 28.3891 28.5842 28.4602L27.6898 30.249ZM29.0423 30.2435L50.4507 19.3209L49.5418 17.5394L28.1334 28.462L29.0423 30.2435ZM50.4507 19.3209C51.5518 18.7591 51.5389 17.1814 50.4288 16.6376L49.5491 18.4338C49.1791 18.2525 49.1747 17.7266 49.5418 17.5394L50.4507 19.3209ZM50.4288 16.6376L42.7828 12.8927L41.9031 14.6888L49.5491 18.4338L50.4288 16.6376ZM41.8897 12.8993L19.4133 24.328L20.3198 26.1108L42.7962 14.6821L41.8897 12.8993Z" fill="white"/>
<path fill-rule="evenodd" clip-rule="evenodd" d="M26.5242 32.9982V55.7582C26.5242 56.1352 26.1229 56.3766 25.7898 56.1999L4.26564 44.7789C4.10219 44.6922 4 44.5222 4 44.3372V22.4557C4 22.0858 4.38774 21.844 4.71993 22.0067L12.5332 25.8336V34.5256C12.5332 35.9063 13.6525 37.0256 15.0332 37.0256C16.4139 37.0256 17.5332 35.9063 17.5332 34.5256V28.2826L26.2441 32.5491C26.4155 32.6331 26.5242 32.8073 26.5242 32.9982Z" fill="white"/>
<path d="M25.7898 56.1999L26.2586 55.3165L26.2586 55.3165L25.7898 56.1999ZM4.26564 44.7789L4.73436 43.8955L4.73436 43.8955L4.26564 44.7789ZM4.71993 22.0067L4.28007 22.9047H4.28007L4.71993 22.0067ZM12.5332 25.8336H13.5332V25.2099L12.9731 24.9355L12.5332 25.8336ZM17.5332 28.2826L17.9731 27.3845L16.5332 26.6793V28.2826H17.5332ZM26.2441 32.5491L26.684 31.6511L26.684 31.6511L26.2441 32.5491ZM27.5242 55.7582V32.9982H25.5242V55.7582H27.5242ZM25.3211 57.0832C26.3202 57.6133 27.5242 56.8892 27.5242 55.7582H25.5242C25.5242 55.3812 25.9255 55.1398 26.2586 55.3165L25.3211 57.0832ZM3.79693 45.6622L25.3211 57.0832L26.2586 55.3165L4.73436 43.8955L3.79693 45.6622ZM3 44.3372C3 44.8923 3.30657 45.402 3.79693 45.6622L4.73436 43.8955C4.89781 43.9823 5 44.1522 5 44.3372H3ZM3 22.4557V44.3372H5V22.4557H3ZM5.1598 21.1086C4.16321 20.6205 3 21.346 3 22.4557H5C5 22.8256 4.61226 23.0674 4.28007 22.9047L5.1598 21.1086ZM12.9731 24.9355L5.1598 21.1086L4.28007 22.9047L12.0933 26.7316L12.9731 24.9355ZM13.5332 34.5256V25.8336H11.5332V34.5256H13.5332ZM15.0332 36.0256C14.2048 36.0256 13.5332 35.354 13.5332 34.5256H11.5332C11.5332 36.4586 13.1002 38.0256 15.0332 38.0256V36.0256ZM16.5332 34.5256C16.5332 35.354 15.8616 36.0256 15.0332 36.0256V38.0256C16.9662 38.0256 18.5332 36.4586 18.5332 34.5256H16.5332ZM16.5332 28.2826V34.5256H18.5332V28.2826H16.5332ZM26.684 31.6511L17.9731 27.3845L17.0933 29.1806L25.8043 33.4472L26.684 31.6511ZM27.5242 32.9982C27.5242 32.4256 27.1982 31.9029 26.684 31.6511L25.8043 33.4472C25.6329 33.3632 25.5242 33.189 25.5242 32.9982H27.5242Z" fill="white"/>
<mask id="path-7-inside-1_67_207" fill="white">
<path fill-rule="evenodd" clip-rule="evenodd" d="M49.5076 55.6714C55.8544 55.6714 60.9995 50.5263 60.9995 44.1794C60.9995 37.8326 55.8544 32.6875 49.5076 32.6875C43.1607 32.6875 38.0156 37.8326 38.0156 44.1794C38.0156 50.5263 43.1607 55.6714 49.5076 55.6714ZM49.7148 38.631C49.7148 38.0787 49.2671 37.631 48.7148 37.631C48.1625 37.631 47.7148 38.0787 47.7148 38.631V44.4714C47.7148 45.2998 48.3864 45.9714 49.2148 45.9714H54.2626C54.8149 45.9714 55.2626 45.5236 55.2626 44.9714C55.2626 44.4191 54.8149 43.9714 54.2626 43.9714H49.7148V38.631Z"/>
</mask>
<path fill-rule="evenodd" clip-rule="evenodd" d="M49.5076 55.6714C55.8544 55.6714 60.9995 50.5263 60.9995 44.1794C60.9995 37.8326 55.8544 32.6875 49.5076 32.6875C43.1607 32.6875 38.0156 37.8326 38.0156 44.1794C38.0156 50.5263 43.1607 55.6714 49.5076 55.6714ZM49.7148 38.631C49.7148 38.0787 49.2671 37.631 48.7148 37.631C48.1625 37.631 47.7148 38.0787 47.7148 38.631V44.4714C47.7148 45.2998 48.3864 45.9714 49.2148 45.9714H54.2626C54.8149 45.9714 55.2626 45.5236 55.2626 44.9714C55.2626 44.4191 54.8149 43.9714 54.2626 43.9714H49.7148V38.631Z" fill="white"/>
<path d="M49.7148 43.9714H47.7148V45.9714H49.7148V43.9714ZM58.9995 44.1794C58.9995 49.4217 54.7498 53.6714 49.5076 53.6714V57.6714C56.959 57.6714 62.9995 51.6308 62.9995 44.1794H58.9995ZM49.5076 34.6875C54.7498 34.6875 58.9995 38.9372 58.9995 44.1794H62.9995C62.9995 36.728 56.959 30.6875 49.5076 30.6875V34.6875ZM40.0156 44.1794C40.0156 38.9372 44.2653 34.6875 49.5076 34.6875V30.6875C42.0562 30.6875 36.0156 36.728 36.0156 44.1794H40.0156ZM49.5076 53.6714C44.2653 53.6714 40.0156 49.4217 40.0156 44.1794H36.0156C36.0156 51.6308 42.0562 57.6714 49.5076 57.6714V53.6714ZM48.7148 39.631C48.1625 39.631 47.7148 39.1833 47.7148 38.631H51.7148C51.7148 36.9741 50.3717 35.631 48.7148 35.631V39.631ZM49.7148 38.631C49.7148 39.1833 49.2671 39.631 48.7148 39.631V35.631C47.0579 35.631 45.7148 36.9741 45.7148 38.631H49.7148ZM49.7148 44.4714V38.631H45.7148V44.4714H49.7148ZM49.2148 43.9714C49.4909 43.9714 49.7148 44.1952 49.7148 44.4714H45.7148C45.7148 46.4044 47.2818 47.9714 49.2148 47.9714V43.9714ZM54.2626 43.9714H49.2148V47.9714H54.2626V43.9714ZM53.2626 44.9714C53.2626 44.4191 53.7103 43.9714 54.2626 43.9714V47.9714C55.9195 47.9714 57.2626 46.6282 57.2626 44.9714H53.2626ZM54.2626 45.9714C53.7103 45.9714 53.2626 45.5236 53.2626 44.9714H57.2626C57.2626 43.3145 55.9195 41.9714 54.2626 41.9714V45.9714ZM49.7148 45.9714H54.2626V41.9714H49.7148V45.9714ZM47.7148 38.631V43.9714H51.7148V38.631H47.7148Z" fill="white" mask="url(#path-7-inside-1_67_207)"/>
</svg>
