<svg width="64" height="64" viewBox="0 0 64 64" fill="none" xmlns="http://www.w3.org/2000/svg">
<path fill-rule="evenodd" clip-rule="evenodd" d="M28.6347 6.13561C26.6626 6.44224 23.8093 7.32575 21.9097 8.21825C16.1922 10.9041 11.6035 15.9399 9.53729 21.7957C9.23434 22.6542 8.85697 23.4137 8.69872 23.4838C7.38375 24.0663 6.176 25.0205 5.83393 26.4836C5.49187 27.9467 5.28104 30.6135 5.20845 33.2766C5.13292 36.0477 5.10426 38.306 5.31275 39.3381C5.52124 40.3702 6.12006 41.2756 6.12006 41.2756C7.78906 43.6833 11.5311 43.4435 12.5058 41.3385C13.4805 39.2336 12.9228 41.0102 13.3398 39.2336C13.5552 38.3156 13.4805 34.065 13.4805 34.065C13.5168 30.5972 13.4874 27.3595 13.4155 26.8704C13.3348 26.3224 13.0018 25.6099 12.5473 25.0131C11.6366 23.8171 11.6723 23.5356 13.1004 20.6441C16.0396 14.6936 21.6523 10.3828 28.0797 9.1398C30.0394 8.76065 34.1012 8.7596 36.0701 9.1375C43.3453 10.5339 49.3349 15.6502 51.9898 22.7361L52.4625 23.9975L51.7899 24.7761C50.7072 26.0289 50.6309 26.5899 50.6309 33.2987C50.6309 40.1908 50.7074 40.691 51.9534 41.9401L52.7646 42.7534L52.3914 44.1398C51.8856 46.019 50.0306 49.6271 48.7503 51.2219C47.8556 52.3361 47.6027 52.5284 47.0291 52.5291C46.6593 52.5295 46.0563 52.7134 45.6894 52.9379C43.4011 54.3364 44.364 57.9627 47.0333 57.9996C48.6998 58.0226 49.849 56.9165 49.8861 55.253C49.9043 54.4401 50.0617 54.1109 50.9884 52.9463C52.9076 50.5342 54.5627 47.1402 55.4221 43.8541C55.6026 43.1635 55.7942 42.9453 56.5225 42.6C57.0504 42.3496 57.6557 41.8184 58.031 41.2761L58.6579 40.3702L58.7186 33.6472C58.7698 27.9596 58.7292 26.7929 58.4542 26.0712C58.0495 25.0087 57.177 24.1532 56.1301 23.7923C55.3902 23.5373 55.2772 23.3878 54.6825 21.8756C51.4599 13.6798 45.1988 8.20383 37.0035 6.41298C35.2234 6.02379 30.3844 5.86347 28.6347 6.13561ZM28.322 14.5015C24.1853 15.5844 20.459 18.3409 18.4223 21.8248L17.6955 23.068L18.2134 24.6147C18.7237 26.1389 18.7313 26.2628 18.7313 33.1349C18.7313 38.7258 18.6679 40.3524 18.4116 41.3385C18.0213 42.8407 17.2858 44.2315 16.3261 45.2818C15.9289 45.7164 15.6038 46.1208 15.6038 46.1806C15.6038 46.2402 16.0392 46.964 16.5713 47.7888C18.459 50.7154 21.7015 53.4416 24.9302 54.8167C27.6377 55.9699 28.759 56.1726 32.3876 56.1655C35.3153 56.1597 35.9272 56.0966 37.3892 55.6499L39.0547 55.1409L39.1962 54.2004C39.6455 51.2114 41.3706 49.0494 44.4726 47.5877C45.1379 47.2742 45.4531 46.9084 46.0913 45.7099L46.8838 44.2215L46.3638 43.0972C45.4669 41.1575 45.3891 40.2565 45.4611 32.6303C45.5263 25.6924 45.5442 25.4213 46.0138 24.2481L46.4989 23.0356L45.8024 21.8697C44.2683 19.3022 41.1333 16.5225 38.434 15.3361C35.5209 14.0559 31.342 13.711 28.322 14.5015Z" fill="white"/>
<path d="M5 27.8422C5 25.4757 6.91359 23.5574 9.27413 23.5574C11.6347 23.5574 13.5483 25.4757 13.5483 27.8422V38.9201C13.5483 41.2865 11.6347 43.2049 9.27413 43.2049C6.91359 43.2049 5 41.2865 5 38.9201V27.8422Z" fill="white"/>
<path d="M50.4517 27.8422C50.4517 25.4757 52.3653 23.5574 54.7259 23.5574C57.0864 23.5574 59 25.4757 59 27.8422V38.9201C59 41.2865 57.0864 43.2049 54.7259 43.2049C52.3653 43.2049 50.4517 41.2865 50.4517 38.9201V27.8422Z" fill="white"/>
</svg>
