<svg width="84" height="84" viewBox="0 0 84 84" fill="none" xmlns="http://www.w3.org/2000/svg">
<g clip-path="url(#clip0_845_718)">
<path fill-rule="evenodd" clip-rule="evenodd" d="M12.9544 0.859623C13.5142 0.308744 14.2681 0 15.0535 0H69.1034C69.8888 0 70.6427 0.308742 71.2024 0.859617L74.365 3.97194C74.9365 4.53444 75.2584 5.30284 75.2584 6.10482V12.2708H79.4847C81.1374 12.2708 82.4772 13.6106 82.4772 15.2633V31.3675C82.4772 33.0202 81.1374 34.36 79.4847 34.36H75.2584V46.2683C75.2584 47.1633 74.8578 48.0114 74.1665 48.5798L72.2397 50.164V53.3221L74.9655 58.1962C75.1576 58.5428 75.2584 58.9326 75.2584 59.3289V82.3988C75.2584 83.689 74.2125 84.735 72.9222 84.735H64.3909C63.1007 84.735 62.0547 83.689 62.0547 82.3988V77.6308H22.1022V82.3988C22.1022 83.689 21.0562 84.735 19.7659 84.735H11.2347C9.94442 84.735 8.89844 83.689 8.89844 82.3988V58.7026C8.89844 58.2688 9.01923 57.8437 9.2471 57.4748L11.5234 53.7114V49.8403L9.99038 48.5798C9.29905 48.0114 8.89844 47.1633 8.89844 46.2683V34.36H4.67219C3.01947 34.36 1.67969 33.0202 1.67969 31.3675V15.2633C1.67969 13.6106 3.01947 12.2708 4.67219 12.2708H8.89844V6.10482C8.89844 5.30286 9.22033 4.53446 9.79192 3.97194L12.9544 0.859623ZM14.8834 51.2545V53.9457C14.8834 54.4055 14.7576 54.8565 14.5197 55.25L12.2584 58.9884V81.375H18.7422V76.6071C18.7422 75.3168 19.7882 74.2708 21.0784 74.2708H63.0784C64.3687 74.2708 65.4147 75.3168 65.4147 76.6071V81.375H71.8984V59.5957L69.2003 54.7711C68.9901 54.3952 68.8797 53.9717 68.8797 53.5411V51.2499L61.1333 51.1597L56.7649 55.4587C56.2052 56.0096 55.4513 56.3183 54.6659 56.3183H29.491C28.7056 56.3183 27.9517 56.0096 27.3919 55.4587L23.0236 51.1597L14.8834 51.2545ZM61.2424 51.0524C61.2427 51.0521 61.2421 51.0527 61.2424 51.0524V51.0524ZM15.204 3.36L12.2584 6.25876V12.6383C12.2584 14.291 10.9186 15.6308 9.26594 15.6308H5.03969V31H9.26594C10.9186 31 12.2584 32.3398 12.2584 33.9925V46.0947L14.4531 47.8992L23.1375 47.7981C23.9348 47.7889 24.703 48.0982 25.2713 48.6576L29.6415 52.9583H54.5154L58.8856 48.6576C59.4539 48.0982 60.222 47.7889 61.0194 47.7981L69.7037 47.8992L71.8984 46.0947V33.9925C71.8984 32.3398 73.2382 31 74.8909 31H79.1172V15.6308H74.8909C73.2382 15.6308 71.8984 14.291 71.8984 12.6383V6.25877L68.9529 3.36H15.204ZM14.8047 15.2633C14.8047 13.6106 16.1445 12.2708 17.7972 12.2708H66.3597C68.0124 12.2708 69.3522 13.6106 69.3522 15.2633V29.8619C69.3522 30.216 69.2894 30.5671 69.1667 30.8991L66.9399 36.9255C66.5058 38.1006 65.3856 38.8808 64.1329 38.8808H20.0239C18.7712 38.8808 17.6511 38.1006 17.2169 36.9255L14.9902 30.8991C14.8675 30.5671 14.8047 30.2159 14.8047 29.8619V15.2633ZM18.1647 15.6308V29.7962L20.2799 35.5208H63.8769L65.9922 29.7962V15.6308H18.1647ZM16.1959 65.36V67.8125H21.5469L19.6086 65.36H16.1959ZM12.8359 64.3363C12.8359 63.046 13.8819 62 15.1722 62H20.1044C20.819 62 21.4942 62.327 21.9373 62.8877L25.4938 67.3876C26.7044 68.9195 25.6134 71.1725 23.6608 71.1725H15.1722C13.8819 71.1725 12.8359 70.1265 12.8359 68.8363V64.3363ZM28.978 65.6904C27.8778 64.1437 28.9837 62 30.8818 62H52.6188C54.517 62 55.6228 64.1436 54.5226 65.6904L50.8624 70.8362C50.4242 71.4524 49.7148 71.8183 48.9586 71.8183H34.8597C34.7475 71.8183 34.6378 71.8073 34.5318 71.7864C33.9028 71.9113 33.2302 71.6685 32.8344 71.1121L28.978 65.6904ZM35.0701 68.4583H48.4305L50.6343 65.36H32.8663L35.0701 68.4583ZM48.1244 68.8887C48.1249 68.8881 48.1253 68.8874 48.1258 68.8868L48.1244 68.8887ZM64.5483 65.36L62.61 67.8125H67.9609V65.36H64.5483ZM62.2196 62.8877C62.6626 62.327 63.3379 62 64.0525 62H68.9847C70.275 62 71.3209 63.046 71.3209 64.3363V68.8363C71.3209 70.1265 70.275 71.1725 68.9847 71.1725H60.496C58.5435 71.1725 57.4524 68.9195 58.6631 67.3876L62.2196 62.8877Z" fill="white"/>
</g>
<defs>
<clipPath id="clip0_845_718">
<rect width="84" height="84" fill="white"/>
</clipPath>
</defs>
</svg>
