<svg width="84" height="84" viewBox="0 0 84 84" fill="none" xmlns="http://www.w3.org/2000/svg">
<path fill-rule="evenodd" clip-rule="evenodd" d="M31.3549 0.155129C26.5547 0.458416 19.5155 1.49777 17.6144 2.18377C16.0204 2.75884 14.8034 3.55103 13.4462 4.89695C12.0219 6.30934 11.1502 7.69629 10.5071 9.57312L10.0574 10.8861L10.0127 36.6118C9.96347 64.9031 9.91311 63.3825 10.9679 65.4596C11.2443 66.0038 11.8996 66.8757 12.4241 67.3971C13.7935 68.7585 14.995 69.379 17.0724 69.798L17.9787 69.9808L12.4061 75.6729C9.34105 78.8034 6.75712 81.5643 6.66384 81.8082C6.42165 82.4412 6.6196 83.1056 7.19298 83.5853L7.68876 84H14.0927C20.1617 84 20.5176 83.9834 20.9003 83.6842C21.1223 83.5108 22.4372 81.8122 23.8222 79.9096L26.3404 76.4506H41.4258H56.5111L59.0294 79.9096C60.4144 81.8122 61.7292 83.5108 61.9512 83.6842C62.3336 83.9833 62.6887 84 68.6667 84C74.858 84 74.9869 83.9933 75.4258 83.6503C75.9822 83.2152 76.224 82.6099 76.0878 81.9935C76.016 81.6679 74.249 79.7249 70.4047 75.7444C64.1827 69.3017 64.6228 70.0022 66.5205 69.565C69.0648 68.9789 71.2422 66.9642 72.3185 64.2006C72.617 63.4342 72.6309 62.4088 72.6751 37.7191C72.7271 8.74204 72.8057 10.6588 71.4504 7.86976C70.8315 6.59621 70.4696 6.10042 69.3543 4.99772C67.8581 3.51837 66.6953 2.76672 65.0074 2.18804C62.7506 1.41456 56.052 0.457103 50.7068 0.144133C47.3321 -0.0534636 34.5391 -0.0460784 31.3549 0.155129ZM50.5886 3.42253C55.1955 3.70563 61.4208 4.53639 63.5487 5.15215C65.4927 5.71474 67.4155 7.286 68.3765 9.09768C69.4717 11.1623 69.4182 9.62794 69.3704 37.5893L69.3271 62.911L68.9723 63.674C68.5188 64.6493 67.4437 65.7181 66.4625 66.1689L65.695 66.5216H41.3432H16.9915L16.2239 66.1689C15.2447 65.7189 14.2697 64.7496 13.7594 63.719L13.3593 62.911L13.3128 37.8012C13.2793 19.656 13.3182 12.3808 13.4534 11.5721C13.9464 8.62486 16.3002 5.96732 19.1377 5.15461C21.2184 4.55854 27.5322 3.67773 31.4374 3.43861C34.6996 3.23888 47.4251 3.22821 50.5886 3.42253ZM27.5577 6.69206C26.0842 7.29157 26.3285 9.45726 27.9027 9.75086C28.8266 9.92318 29.7865 9.1218 29.7865 8.17813C29.7865 7.07199 28.588 6.2729 27.5577 6.69206ZM34.1615 6.69206C33.1105 7.11974 32.8312 8.4893 33.6324 9.28592L34.0862 9.73724L41.1405 9.78779C47.4445 9.83308 48.2497 9.80962 48.7118 9.56722C49.8498 8.97049 49.884 7.46193 48.7742 6.81022C48.3592 6.56651 47.5616 6.53812 41.4003 6.54731C37.6007 6.55305 34.3431 6.6182 34.1615 6.69206ZM53.9731 6.69206C52.4996 7.29157 52.744 9.45726 54.3182 9.75086C55.2421 9.92318 56.2019 9.1218 56.2019 8.17813C56.2019 7.07199 55.0035 6.2729 53.9731 6.69206ZM17.6519 13.2567C17.4702 13.3307 17.1731 13.5552 16.9915 13.756C16.6666 14.1149 16.6613 14.3519 16.6613 28.3779V42.6352L17.1191 43.0902L17.5767 43.5453L41.1406 43.5938C62.7211 43.6385 64.748 43.6198 65.2215 43.3733C65.5059 43.2252 65.8218 42.9229 65.9231 42.7015C66.1799 42.1417 66.185 14.5985 65.9286 14.0391C65.83 13.8241 65.54 13.5252 65.2839 13.3749C64.8555 13.1233 62.9646 13.1025 41.4003 13.112C28.5203 13.1177 17.8335 13.1829 17.6519 13.2567ZM39.6923 28.3645V40.345H29.7865H19.8807V28.3645V16.384H29.7865H39.6923V28.3645ZM62.8058 28.3645V40.345H52.9H42.9942V28.3645V16.384H52.9H62.8058V28.3645ZM21.5731 48.8044C18.9526 49.5058 17.1968 51.4281 16.7204 54.1172C15.9611 58.4019 19.9583 62.3274 24.2754 61.5367C26.9138 61.0535 28.8685 59.2556 29.5621 56.6746C30.4972 53.1945 28.1581 49.4992 24.5365 48.7353C23.4126 48.4983 22.6503 48.516 21.5731 48.8044ZM57.8943 48.8044C55.2739 49.5058 53.5181 51.4281 53.0416 54.1172C52.2824 58.4019 56.2795 62.3274 60.5966 61.5367C63.235 61.0535 65.1898 59.2556 65.8834 56.6746C66.8185 53.1945 64.4794 49.4992 60.8578 48.7353C59.7338 48.4983 58.9716 48.516 57.8943 48.8044ZM34.1615 50.3471C33.1105 50.7748 32.8312 52.1443 33.6324 52.9409L34.0862 53.3923L41.1405 53.4428C47.4445 53.4881 48.2497 53.4646 48.7118 53.2222C49.8498 52.6255 49.884 51.1169 48.7742 50.4652C48.3592 50.2215 47.5616 50.1931 41.4003 50.2023C37.6007 50.2081 34.3431 50.2732 34.1615 50.3471ZM25.0596 52.44C27.554 54.1869 26.5382 58.0392 23.5037 58.3399C22.7309 58.4165 22.4781 58.3627 21.7023 57.9565C20.9681 57.572 20.7144 57.3209 20.3403 56.6091C19.7532 55.4918 19.7532 54.7392 20.3403 53.6219C20.7144 52.9101 20.9681 52.659 21.7023 52.2745C22.4781 51.8683 22.7309 51.8144 23.5037 51.8911C24.1182 51.952 24.6107 52.1258 25.0596 52.44ZM61.3808 52.44C63.8753 54.1869 62.8594 58.0392 59.825 58.3399C59.0522 58.4165 58.7994 58.3627 58.0236 57.9565C57.2894 57.572 57.0357 57.3209 56.6615 56.6091C56.3956 56.103 56.2019 55.4737 56.2019 55.1155C56.2019 54.7572 56.3956 54.128 56.6615 53.6219C57.0357 52.9101 57.2894 52.659 58.0236 52.2745C58.7994 51.8683 59.0522 51.8144 59.825 51.8911C60.4395 51.952 60.9319 52.1258 61.3808 52.44ZM34.1615 56.9117C33.1105 57.3394 32.8312 58.709 33.6324 59.5056L34.0862 59.9569L41.1405 60.0075C47.4445 60.0528 48.2497 60.0293 48.7118 59.7869C49.8498 59.1902 49.884 57.6816 48.7742 57.0299C48.3592 56.7862 47.5616 56.7578 41.4003 56.767C37.6007 56.7727 34.3431 56.8379 34.1615 56.9117ZM26.8642 70.1087C26.7916 70.2313 25.0272 72.6684 22.9435 75.5245L19.1549 80.7177H15.6184H12.0817L16.2702 76.4442C18.5738 74.0938 20.9302 71.6566 21.5067 71.0284L22.5549 69.886H24.7756C26.6006 69.886 26.9727 69.9257 26.8642 70.1087ZM52.8965 71.4861L54.0707 73.0863L47.8016 73.1292C44.3538 73.1529 38.6637 73.1529 35.1569 73.1292L28.7809 73.0863L29.955 71.4861L31.129 69.886H41.4258H51.7225L52.8965 71.4861ZM63.9615 73.7695C66.0045 75.8971 68.3326 78.3308 69.1349 79.1778L70.5936 80.7177H67.145H63.6967L59.908 75.5245C57.8243 72.6684 56.0599 70.2313 55.9873 70.1087C55.8788 69.9255 56.2457 69.8873 58.051 69.8935L60.2468 69.9011L63.9615 73.7695Z" fill="white"/>
</svg>
