<svg width="84" height="84" viewBox="0 0 84 84" fill="none" xmlns="http://www.w3.org/2000/svg">
<g clip-path="url(#clip0_845_722)">
<path fill-rule="evenodd" clip-rule="evenodd" d="M40.5953 2.8125L38.0735 14.9174C39.3066 14.4844 40.6236 14.25 42.0006 14.25C43.3776 14.25 44.6946 14.4844 45.9278 14.9174L43.4059 2.8125H40.5953ZM49.3839 16.8011C49.3813 16.7863 49.3784 16.7714 49.3753 16.7566L46.2029 1.52897C45.9946 0.529077 45.1134 -0.1875 44.092 -0.1875H39.9092C38.8879 -0.1875 38.0066 0.529078 37.7983 1.52897L34.6259 16.7566C34.6228 16.7714 34.6199 16.7863 34.6173 16.8012C33.2201 17.8736 32.0178 19.2397 31.0683 20.8125H7.53036C6.88362 20.8125 6.27104 21.1028 5.86151 21.6033L7.02245 22.5532L5.86151 21.6033L0.815173 27.7711C-0.192329 29.0025 0.435134 30.8636 1.98253 31.2336L14.2506 34.1673V36.772C11.9771 37.4231 10.3131 39.5173 10.3131 42C10.3131 45.0031 12.7476 47.4375 15.7506 47.4375C18.7537 47.4375 21.1881 45.003 21.1881 42C21.1881 39.5173 19.5242 37.4231 17.2506 36.772V34.8847L31.0254 38.1787C33.3903 42.1432 37.3538 44.8125 42.0006 44.8125C46.6475 44.8125 50.6109 42.1432 52.9758 38.1787L66.7506 34.8847V36.772C64.4771 37.4231 62.8131 39.5173 62.8131 42C62.8131 45.003 65.2476 47.4375 68.2506 47.4375C71.2537 47.4375 73.6881 45.003 73.6881 42C73.6881 39.5173 72.0242 37.4231 69.7506 36.772V34.1673L82.0187 31.2336C83.5661 30.8636 84.1936 29.0025 83.1861 27.7711L78.1397 21.6033C77.7302 21.1028 77.1176 20.8125 76.4709 20.8125H52.933C51.9834 19.2397 50.7811 17.8736 49.3839 16.8011ZM54.3442 23.8125H76.0711L80.0118 28.629L54.5194 34.725C55.0345 33.0914 55.3131 31.3391 55.3131 29.5312C55.3131 27.5282 54.9711 25.5933 54.3442 23.8125ZM29.657 23.8125H7.93019L3.98946 28.629L29.4819 34.725C28.9667 33.0914 28.6881 31.3391 28.6881 29.5312C28.6881 27.5282 29.0301 25.5933 29.657 23.8125ZM42.0006 17.25C36.5138 17.25 31.6881 22.5232 31.6881 29.5312C31.6881 36.5393 36.5138 41.8125 42.0006 41.8125C47.4875 41.8125 52.3131 36.5393 52.3131 29.5312C52.3131 22.5232 47.4875 17.25 42.0006 17.25ZM44.881 23.6813C46.0112 23.3877 47.2588 24.0354 47.5652 25.2612L48.588 29.3522C48.8144 30.2579 48.4313 31.3025 47.4708 31.764C46.5733 32.1952 44.5632 33 42.0006 33C39.438 33 37.4279 32.1952 36.5305 31.764C35.5699 31.3025 35.1869 30.2579 35.4133 29.3522L36.436 25.2612C36.7425 24.0354 37.99 23.3877 39.1203 23.6813C39.8142 23.8615 40.9292 24.0938 42.0006 24.0938C43.0721 24.0938 44.1871 23.8615 44.881 23.6813ZM44.85 26.7696C44.0642 26.9354 43.0439 27.0938 42.0006 27.0938C40.9574 27.0938 39.937 26.9354 39.1513 26.7696L38.5064 29.3489C39.315 29.6562 40.5464 30 42.0006 30C43.4548 30 44.6863 29.6562 45.4948 29.3489L44.85 26.7696ZM45.6775 30.0798C45.6774 30.0794 45.6774 30.0791 45.6773 30.0788L45.6775 30.0798ZM38.3237 30.0798L38.324 30.0788L38.3237 30.0798ZM15.7506 39.5625C14.4044 39.5625 13.3131 40.6538 13.3131 42C13.3131 43.3462 14.4044 44.4375 15.7506 44.4375C17.0968 44.4375 18.1881 43.3462 18.1881 42C18.1881 40.6538 17.0968 39.5625 15.7506 39.5625ZM68.2506 39.5625C66.9044 39.5625 65.8131 40.6538 65.8131 42C65.8131 43.3462 66.9044 44.4375 68.2506 44.4375C69.5968 44.4375 70.6881 43.3462 70.6881 42C70.6881 40.6538 69.5968 39.5625 68.2506 39.5625Z" fill="white"/>
<path fill-rule="evenodd" clip-rule="evenodd" d="M34.5 52.5V64.875H49.5V52.5H34.5ZM33.75 49.5C32.5074 49.5 31.5 50.5074 31.5 51.75V65.625C31.5 66.8676 32.5074 67.875 33.75 67.875H50.25C51.4926 67.875 52.5 66.8676 52.5 65.625V51.75C52.5 50.5074 51.4926 49.5 50.25 49.5H33.75Z" fill="white"/>
<path fill-rule="evenodd" clip-rule="evenodd" d="M25.3125 68.625V81H40.3125V68.625H25.3125ZM24.5625 65.625C23.3199 65.625 22.3125 66.6324 22.3125 67.875V81.75C22.3125 82.9926 23.3199 84 24.5625 84H41.0625C42.3051 84 43.3125 82.9926 43.3125 81.75V67.875C43.3125 66.6324 42.3051 65.625 41.0625 65.625H24.5625Z" fill="white"/>
<path fill-rule="evenodd" clip-rule="evenodd" d="M43.6875 68.625V81H58.6875V68.625H43.6875ZM42.9375 65.625C41.6949 65.625 40.6875 66.6324 40.6875 67.875V81.75C40.6875 82.9926 41.6949 84 42.9375 84H59.4375C60.6801 84 61.6875 82.9926 61.6875 81.75V67.875C61.6875 66.6324 60.6801 65.625 59.4375 65.625H42.9375Z" fill="white"/>
</g>
<defs>
<clipPath id="clip0_845_722">
<rect width="84" height="84" fill="white"/>
</clipPath>
</defs>
</svg>
