<svg width="84" height="84" viewBox="0 0 84 84" fill="none" xmlns="http://www.w3.org/2000/svg">
<g clip-path="url(#clip0_845_748)">
<path fill-rule="evenodd" clip-rule="evenodd" d="M57.5625 21C57.5625 20.1716 58.2341 19.5 59.0625 19.5H70.875C71.7034 19.5 72.375 20.1716 72.375 21C72.375 21.8284 71.7034 22.5 70.875 22.5H59.0625C58.2341 22.5 57.5625 21.8284 57.5625 21Z" fill="white"/>
<path fill-rule="evenodd" clip-rule="evenodd" d="M11.625 15.75C11.625 14.9216 12.2966 14.25 13.125 14.25H59.4396C63.1914 14.25 66.8312 15.5286 69.7588 17.875L73.0745 20.5325L76.3376 23.729C78.1133 25.4685 78.2037 28.2979 76.5428 30.1472C75.6623 31.1275 74.4067 31.6875 73.0891 31.6875H47.291C46.4626 31.6875 45.791 31.0159 45.791 30.1875C45.791 29.3591 46.4626 28.6875 47.291 28.6875H73.0891C73.5552 28.6875 73.9994 28.4894 74.3109 28.1426C74.8984 27.4884 74.8664 26.4874 74.2383 25.8721L71.0818 22.78L67.8826 20.2159C65.4873 18.2961 62.5093 17.25 59.4396 17.25H13.125C12.2966 17.25 11.625 16.5784 11.625 15.75Z" fill="white"/>
<path fill-rule="evenodd" clip-rule="evenodd" d="M12.0495 14.7044C12.627 14.1104 13.5766 14.097 14.1706 14.6745L22.4387 22.7129C25.9986 26.1739 30.6695 28.2616 35.6225 28.6056L36.8539 28.6911C37.6804 28.7485 38.3038 29.465 38.2464 30.2914C38.189 31.1179 37.4725 31.7413 36.6461 31.6839L35.4147 31.5984C29.7541 31.2053 24.4159 28.8193 20.3475 24.8639L12.0794 16.8255C11.4854 16.248 11.472 15.2984 12.0495 14.7044Z" fill="white"/>
<path fill-rule="evenodd" clip-rule="evenodd" d="M36.9684 27.409C37.3271 26.5909 38.1358 26.0625 39.029 26.0625H47.128C48.9443 26.0625 50.0121 28.1036 48.9763 29.5956L40.0636 42.4341C39.5346 43.1961 38.5921 43.5554 37.6901 43.3388L33.3333 42.2929C31.9703 41.9656 31.2351 40.4853 31.7979 39.2015L36.9684 27.409ZM39.5191 29.0625L34.9055 39.5851L37.8917 40.302L45.6943 29.0625H39.5191Z" fill="white"/>
<path fill-rule="evenodd" clip-rule="evenodd" d="M14.625 2.8125V15.75C14.625 16.5784 13.9534 17.25 13.125 17.25C12.2966 17.25 11.625 16.5784 11.625 15.75V2.0625C11.625 0.81986 12.6324 -0.1875 13.875 -0.1875H20.7358C21.7423 -0.1875 22.6264 0.480959 22.9007 1.44938L26.8351 15.3413C27.0608 16.1383 26.5977 16.9675 25.8006 17.1932C25.0035 17.419 24.1743 16.9558 23.9486 16.1587L20.1687 2.8125H14.625ZM37.614 5.5625L40.4617 15.3302C40.6936 16.1255 40.2368 16.9582 39.4415 17.19C38.6462 17.4219 37.8135 16.9652 37.5816 16.1698L34.454 5.44226C34.0342 4.00231 35.1142 2.5625 36.6141 2.5625H41.3167C42.1171 2.5625 42.8573 2.9877 43.2604 3.67914L49.8583 14.9944C50.2756 15.7101 50.0337 16.6285 49.3181 17.0458C48.6024 17.4631 47.684 17.2212 47.2667 16.5056L40.8859 5.5625H37.614Z" fill="white"/>
<path fill-rule="evenodd" clip-rule="evenodd" d="M35.25 50.0625C35.25 48.4056 36.5931 47.0625 38.25 47.0625H64.125C65.7819 47.0625 67.125 48.4056 67.125 50.0625V74.8125C67.125 75.6409 66.4534 76.3125 65.625 76.3125C64.7966 76.3125 64.125 75.6409 64.125 74.8125V50.0625H38.25V73.3125H43.3125C44.1409 73.3125 44.8125 73.9841 44.8125 74.8125C44.8125 75.6409 44.1409 76.3125 43.3125 76.3125H38.25C36.5931 76.3125 35.25 74.9694 35.25 73.3125V50.0625Z" fill="white"/>
<path fill-rule="evenodd" clip-rule="evenodd" d="M64.125 55.125C64.125 54.2966 64.7966 53.625 65.625 53.625H76.1747C77.2877 53.625 78.3093 54.2412 78.8284 55.2258L82.875 62.9003V73.3125C82.875 74.9694 81.5319 76.3125 79.875 76.3125H76.3636C75.5352 76.3125 74.8636 75.6409 74.8636 74.8125C74.8636 73.9841 75.5352 73.3125 76.3636 73.3125H79.875V64.7716H73.5682C71.9113 64.7716 70.5682 63.4284 70.5682 61.7716V56.625H65.625C64.7966 56.625 64.125 55.9534 64.125 55.125ZM73.5682 56.625V61.7716L78.8884 61.7716L76.1747 56.625H73.5682Z" fill="white"/>
<path fill-rule="evenodd" clip-rule="evenodd" d="M48.5625 78.375C50.53 78.375 52.125 76.78 52.125 74.8125C52.125 72.845 50.53 71.25 48.5625 71.25C46.595 71.25 45 72.845 45 74.8125C45 76.78 46.595 78.375 48.5625 78.375ZM48.5625 81.375C52.1869 81.375 55.125 78.4369 55.125 74.8125C55.125 71.1881 52.1869 68.25 48.5625 68.25C44.9381 68.25 42 71.1881 42 74.8125C42 78.4369 44.9381 81.375 48.5625 81.375Z" fill="white"/>
<path fill-rule="evenodd" clip-rule="evenodd" d="M70.875 78.375C72.8425 78.375 74.4375 76.78 74.4375 74.8125C74.4375 72.845 72.8425 71.25 70.875 71.25C68.9075 71.25 67.3125 72.845 67.3125 74.8125C67.3125 76.78 68.9075 78.375 70.875 78.375ZM70.875 81.375C74.4994 81.375 77.4375 78.4369 77.4375 74.8125C77.4375 71.1881 74.4994 68.25 70.875 68.25C67.2506 68.25 64.3125 71.1881 64.3125 74.8125C64.3125 78.4369 67.2506 81.375 70.875 81.375Z" fill="white"/>
<path fill-rule="evenodd" clip-rule="evenodd" d="M52.3125 74.8125C52.3125 73.9841 52.9841 73.3125 53.8125 73.3125H65.625C66.4534 73.3125 67.125 73.9841 67.125 74.8125C67.125 75.6409 66.4534 76.3125 65.625 76.3125H53.8125C52.9841 76.3125 52.3125 75.6409 52.3125 74.8125Z" fill="white"/>
<path fill-rule="evenodd" clip-rule="evenodd" d="M24.1875 45H7.3125C5.65565 45 4.3125 46.3431 4.3125 48V68.8125C4.3125 70.4694 5.65565 71.8125 7.3125 71.8125H24.1875C25.8444 71.8125 27.1875 70.4694 27.1875 68.8125V48C27.1875 46.3431 25.8444 45 24.1875 45ZM7.3125 42C3.99879 42 1.3125 44.6863 1.3125 48V68.8125C1.3125 72.1262 3.99879 74.8125 7.3125 74.8125H24.1875C27.5012 74.8125 30.1875 72.1262 30.1875 68.8125V48C30.1875 44.6863 27.5012 42 24.1875 42H7.3125Z" fill="white"/>
<path fill-rule="evenodd" clip-rule="evenodd" d="M1.56114 51.0492C0.894607 49.8494 1.76215 48.375 3.13462 48.375H28.3649C29.7374 48.375 30.6049 49.8494 29.9384 51.0492L23.7092 62.2617C23.3918 62.8331 22.7894 63.1875 22.1357 63.1875H9.36379C8.71008 63.1875 8.10777 62.8331 7.7903 62.2617L1.56114 51.0492ZM5.17404 51.375L10.0699 60.1875H21.4297L26.3255 51.375H5.17404Z" fill="white"/>
<path fill-rule="evenodd" clip-rule="evenodd" d="M10.9537 72.491C11.5109 73.104 11.4658 74.0527 10.8528 74.6099L3.63402 81.1724C3.02103 81.7297 2.07236 81.6845 1.5151 81.0715C0.95784 80.4585 1.00301 79.5099 1.616 78.9526L8.83475 72.3901C9.44774 71.8328 10.3964 71.878 10.9537 72.491ZM20.5464 72.491C21.1036 71.878 22.0523 71.8328 22.6653 72.3901L29.884 78.9526C30.497 79.5099 30.5422 80.4585 29.9849 81.0715C29.4277 81.6845 28.479 81.7297 27.866 81.1724L20.6473 74.6099C20.0343 74.0527 19.9891 73.104 20.5464 72.491Z" fill="white"/>
<path fill-rule="evenodd" clip-rule="evenodd" d="M3.75 78.0938C3.75 77.2653 4.42157 76.5938 5.25 76.5938H26.25C27.0784 76.5938 27.75 77.2653 27.75 78.0938C27.75 78.9222 27.0784 79.5938 26.25 79.5938H5.25C4.42157 79.5938 3.75 78.9222 3.75 78.0938Z" fill="white"/>
</g>
<defs>
<clipPath id="clip0_845_748">
<rect width="84" height="84" fill="white"/>
</clipPath>
</defs>
</svg>
