<svg width="56" height="56" viewBox="0 0 56 56" fill="none" xmlns="http://www.w3.org/2000/svg">
<g clip-path="url(#clip0_55_958)">
<path d="M35 14.875H50.9802C51.1114 14.875 51.2357 14.9339 51.3188 15.0355L54.683 19.1473C54.8874 19.3971 54.7601 19.7748 54.4462 19.8498L35 24.5M45.5 25.375C44.0503 25.375 42.875 26.5503 42.875 28C42.875 29.4497 44.0503 30.625 45.5 30.625C46.9497 30.625 48.125 29.4497 48.125 28C48.125 26.5503 46.9497 25.375 45.5 25.375ZM45.5 25.375V22.75M21 14.875H5.01982C4.8886 14.875 4.76431 14.9339 4.68122 15.0355L1.31699 19.1473C1.11257 19.3971 1.23988 19.7748 1.55385 19.8498L21 24.5M10.5 25.375C11.9497 25.375 13.125 26.5503 13.125 28C13.125 29.4497 11.9497 30.625 10.5 30.625C9.05025 30.625 7.875 29.4497 7.875 28C7.875 26.5503 9.05025 25.375 10.5 25.375ZM10.5 25.375V22.75M24.0625 11.375L26.1774 1.22327C26.2197 1.02039 26.3985 0.875 26.6057 0.875H29.3943C29.6015 0.875 29.7803 1.02039 29.8226 1.22327L31.9375 11.375M35.875 19.6875C35.875 24.7616 32.3492 28.875 28 28.875C23.6508 28.875 20.125 24.7616 20.125 19.6875C20.125 14.6134 23.6508 10.5 28 10.5C32.3492 10.5 35.875 14.6134 35.875 19.6875ZM31.4214 19.8107L30.7396 17.0833C30.6778 16.8361 30.4183 16.6913 30.1716 16.7554C29.6751 16.8843 28.8376 17.0625 28 17.0625C27.1624 17.0625 26.3249 16.8843 25.8284 16.7554C25.5817 16.6913 25.3222 16.8361 25.2604 17.0833L24.5786 19.8107C24.5319 19.9974 24.6128 20.1913 24.7863 20.2746C25.3066 20.5246 26.4941 21 28 21C29.5059 21 30.6934 20.5246 31.2137 20.2746C31.3872 20.1913 31.4681 19.9974 31.4214 19.8107Z" stroke="#212121" stroke-width="2" stroke-linecap="round"/>
<mask id="path-2-inside-1_55_958" fill="white">
<rect x="21" y="32.375" width="14" height="12.25" rx="1.5"/>
</mask>
<rect x="21" y="32.375" width="14" height="12.25" rx="1.5" stroke="#212121" stroke-width="4" mask="url(#path-2-inside-1_55_958)"/>
<path d="M25.8125 34.125V38.0839C25.8125 38.2516 26.0065 38.3448 26.1374 38.24L27.8751 36.85C27.9481 36.7915 28.0519 36.7915 28.1249 36.85L29.8626 38.24C29.9935 38.3448 30.1875 38.2516 30.1875 38.0839V34.125" stroke="#212121" stroke-width="2" stroke-linecap="round"/>
<mask id="path-4-inside-2_55_958" fill="white">
<rect x="14.875" y="43.75" width="14" height="12.25" rx="1.5"/>
</mask>
<rect x="14.875" y="43.75" width="14" height="12.25" rx="1.5" stroke="#212121" stroke-width="4" mask="url(#path-4-inside-2_55_958)"/>
<path d="M19.6875 45.5V49.4589C19.6875 49.6266 19.8815 49.7198 20.0124 49.615L21.7501 48.225C21.8231 48.1665 21.9269 48.1665 21.9999 48.225L23.7376 49.615C23.8685 49.7198 24.0625 49.6266 24.0625 49.4589V45.5" stroke="#212121" stroke-width="2" stroke-linecap="round"/>
<mask id="path-6-inside-3_55_958" fill="white">
<rect x="27.125" y="43.75" width="14" height="12.25" rx="1.5"/>
</mask>
<rect x="27.125" y="43.75" width="14" height="12.25" rx="1.5" stroke="#212121" stroke-width="4" mask="url(#path-6-inside-3_55_958)"/>
<path d="M31.9375 45.5V49.4589C31.9375 49.6266 32.1315 49.7198 32.2624 49.615L34.0001 48.225C34.0731 48.1665 34.1769 48.1665 34.2499 48.225L35.9876 49.615C36.1185 49.7198 36.3125 49.6266 36.3125 49.4589V45.5" stroke="#212121" stroke-width="2" stroke-linecap="round"/>
</g>
<defs>
<clipPath id="clip0_55_958">
<rect width="56" height="56" fill="white"/>
</clipPath>
</defs>
</svg>
