<svg width="50" height="50" viewBox="0 0 50 50" fill="none" xmlns="http://www.w3.org/2000/svg">
<g clip-path="url(#clip0_55_947)">
<path d="M20.75 41.749H29.1422C29.2687 41.749 29.3873 41.6878 29.4606 41.5848L31.6392 38.5218C31.8232 38.2632 31.6383 37.9048 31.3209 37.9048H18.3822C18.0648 37.9048 17.8799 38.2632 18.0639 38.5218L20.3594 41.749M7.85938 29.5156V32.1105C7.85938 32.2018 7.83442 32.2913 7.7872 32.3693L6.35689 34.734C6.31768 34.7963 6.29688 34.8684 6.29688 34.942V49.0469C6.29688 49.2626 6.47176 49.4375 6.6875 49.4375H11.7656C11.9814 49.4375 12.1562 49.2626 12.1562 49.0469V45.5995C12.1562 45.3837 12.3311 45.2088 12.5469 45.2088H37.5469C37.7626 45.2088 37.9375 45.3837 37.9375 45.5995V49.0469C37.9375 49.2626 38.1124 49.4375 38.3281 49.4375H43.4062C43.622 49.4375 43.7969 49.2626 43.7969 49.0469V35.3148C43.7969 35.2486 43.78 35.1834 43.7479 35.1254L42.0636 32.1137C42.0219 32.0392 42 31.9551 42 31.8697V29.5156M10.5938 8.30407H39.5C39.9315 8.30407 40.2812 8.65385 40.2812 9.08532V17.775C40.2812 17.8674 40.2649 17.9591 40.2328 18.0457L38.9074 21.6329C38.794 21.9396 38.5016 22.1434 38.1745 22.1434H11.9192C11.5922 22.1434 11.2997 21.9396 11.1864 21.6329L9.86093 18.0457C9.8289 17.9591 9.8125 17.8674 9.8125 17.775V9.08532C9.8125 8.65385 10.1623 8.30407 10.5938 8.30407ZM8.64062 38.2954V40.974C8.64062 41.1897 8.81551 41.3646 9.03125 41.3646H14.084C14.4105 41.3646 14.5929 40.9879 14.3905 40.7318L12.2735 38.0532C12.1995 37.9594 12.0866 37.9048 11.9671 37.9048H9.03125C8.81551 37.9048 8.64062 38.0797 8.64062 38.2954ZM41.4531 38.2954V40.974C41.4531 41.1897 41.2782 41.3646 41.0625 41.3646H36.0097C35.6833 41.3646 35.5008 40.9879 35.7033 40.7318L37.8202 38.0532C37.8943 37.9594 38.0072 37.9048 38.1267 37.9048H41.0625C41.2782 37.9048 41.4531 38.0797 41.4531 38.2954ZM8.96057 1H41.1332C41.3382 1 41.535 1.0806 41.6812 1.22442L43.5636 3.07699C43.7128 3.22385 43.7969 3.42445 43.7969 3.63382V7.52282C43.7969 7.95429 44.1467 8.30407 44.5781 8.30407H47.3125C47.744 8.30407 48.0938 8.65384 48.0938 9.08532V18.6711C48.0938 19.1026 47.744 19.4524 47.3125 19.4524H44.5781C44.1467 19.4524 43.7969 19.8022 43.7969 20.2336V27.5407C43.7969 27.7743 43.6923 27.9957 43.5118 28.1441L42.064 29.3346C41.9217 29.4515 41.7428 29.5145 41.5587 29.5123L36.3096 29.4512C36.1015 29.4488 35.9009 29.5295 35.7525 29.6756L33.0874 32.2984C32.9413 32.4422 32.7445 32.5228 32.5394 32.5228H17.5543C17.3493 32.5228 17.1525 32.4422 17.0063 32.2984L14.3412 29.6756C14.1928 29.5295 13.9923 29.4488 13.7841 29.4512L8.53506 29.5123C8.35096 29.5145 8.17201 29.4515 8.02979 29.3346L6.58195 28.1441C6.40146 27.9957 6.29688 27.7743 6.29688 27.5407V20.2336C6.29688 19.8022 5.9471 19.4524 5.51562 19.4524H2.78125C2.34978 19.4524 2 19.1026 2 18.6711V9.08532C2 8.65385 2.34978 8.30407 2.78125 8.30407H5.51562C5.9471 8.30407 6.29688 7.95429 6.29688 7.52282V3.63382C6.29688 3.42445 6.38091 3.22385 6.53013 3.07699L8.41258 1.22442C8.55872 1.0806 8.75554 1 8.96057 1Z" stroke="#212121" stroke-width="2" stroke-linecap="round"/>
</g>
<defs>
<clipPath id="clip0_55_947">
<rect width="50" height="50" fill="white"/>
</clipPath>
</defs>
</svg>
