<svg width="16" height="16" viewBox="0 0 16 16" fill="none" xmlns="http://www.w3.org/2000/svg">
<path d="M4.66667 6.66602H8V9.99935H4.66667V6.66602ZM12.6667 12.666H3.33333V5.33268H12.6667V12.666ZM12.6667 1.99935H12V0.666016H10.6667V1.99935H5.33333V0.666016H4V1.99935H3.33333C2.59333 1.99935 2 2.59935 2 3.33268V12.666C2 13.0196 2.14048 13.3588 2.39052 13.6088C2.64057 13.8589 2.97971 13.9993 3.33333 13.9993H12.6667C13.0203 13.9993 13.3594 13.8589 13.6095 13.6088C13.8595 13.3588 14 13.0196 14 12.666V3.33268C14 2.97906 13.8595 2.63992 13.6095 2.38987C13.3594 2.13982 13.0203 1.99935 12.6667 1.99935Z" fill="#263365"/>
</svg>
