<svg width="121" height="60" viewBox="0 0 121 60" fill="none" xmlns="http://www.w3.org/2000/svg">
<path d="M46.0815 25.8428C46.0815 25.4912 46.2085 25.1982 46.4624 24.9639C46.7163 24.7246 47.0435 24.605 47.4438 24.605C47.8491 24.605 48.1763 24.7246 48.4253 24.9639C48.6792 25.1982 48.8061 25.4912 48.8061 25.8428C48.8061 26.1943 48.6792 26.4897 48.4253 26.729C48.1763 26.9634 47.8491 27.0806 47.4438 27.0806C47.0435 27.0806 46.7163 26.9634 46.4624 26.729C46.2085 26.4897 46.0815 26.1943 46.0815 25.8428Z" fill="#263365"/>
<path d="M60.4077 25.8428C60.4077 25.4912 60.5347 25.1982 60.7886 24.9639C61.0425 24.7246 61.3696 24.605 61.77 24.605C62.1753 24.605 62.5024 24.7246 62.7515 24.9639C63.0054 25.1982 63.1323 25.4912 63.1323 25.8428C63.1323 26.1943 63.0054 26.4897 62.7515 26.729C62.5024 26.9634 62.1753 27.0806 61.77 27.0806C61.3696 27.0806 61.0425 26.9634 60.7886 26.729C60.5347 26.4897 60.4077 26.1943 60.4077 25.8428Z" fill="#263365"/>
<path d="M70.422 25.8428C70.422 25.4912 70.5489 25.1982 70.8028 24.9639C71.0567 24.7246 71.3839 24.605 71.7843 24.605C72.1896 24.605 72.5167 24.7246 72.7657 24.9639C73.0196 25.1982 73.1466 25.4912 73.1466 25.8428C73.1466 26.1943 73.0196 26.4897 72.7657 26.729C72.5167 26.9634 72.1896 27.0806 71.7843 27.0806C71.3839 27.0806 71.0567 26.9634 70.8028 26.729C70.5489 26.4897 70.422 26.1943 70.422 25.8428Z" fill="#263365"/>
<path d="M54.47 38.7775V40H48.3725V29.2525H49.82V38.7775H54.47Z" fill="#DD054F"/>
<path d="M65.5095 34.63C65.5095 35.435 65.382 36.175 65.127 36.85C64.872 37.52 64.512 38.0975 64.047 38.5825C63.582 39.0675 63.022 39.445 62.367 39.715C61.717 39.98 60.997 40.1125 60.207 40.1125C59.417 40.1125 58.697 39.98 58.047 39.715C57.397 39.445 56.8395 39.0675 56.3745 38.5825C55.9095 38.0975 55.5495 37.52 55.2945 36.85C55.0395 36.175 54.912 35.435 54.912 34.63C54.912 33.825 55.0395 33.0875 55.2945 32.4175C55.5495 31.7425 55.9095 31.1625 56.3745 30.6775C56.8395 30.1875 57.397 29.8075 58.047 29.5375C58.697 29.2675 59.417 29.1325 60.207 29.1325C60.997 29.1325 61.717 29.2675 62.367 29.5375C63.022 29.8075 63.582 30.1875 64.047 30.6775C64.512 31.1625 64.872 31.7425 65.127 32.4175C65.382 33.0875 65.5095 33.825 65.5095 34.63ZM64.017 34.63C64.017 33.97 63.927 33.3775 63.747 32.8525C63.567 32.3275 63.312 31.885 62.982 31.525C62.652 31.16 62.252 30.88 61.782 30.685C61.312 30.49 60.787 30.3925 60.207 30.3925C59.632 30.3925 59.1095 30.49 58.6395 30.685C58.1695 30.88 57.767 31.16 57.432 31.525C57.102 31.885 56.847 32.3275 56.667 32.8525C56.487 33.3775 56.397 33.97 56.397 34.63C56.397 35.29 56.487 35.8825 56.667 36.4075C56.847 36.9275 57.102 37.37 57.432 37.735C57.767 38.095 58.1695 38.3725 58.6395 38.5675C59.1095 38.7575 59.632 38.8525 60.207 38.8525C60.787 38.8525 61.312 38.7575 61.782 38.5675C62.252 38.3725 62.652 38.095 62.982 37.735C63.312 37.37 63.567 36.9275 63.747 36.4075C63.927 35.8825 64.017 35.29 64.017 34.63Z" fill="#DD054F"/>
<path d="M76.3213 34.8325V38.9575C75.7812 39.3475 75.2038 39.64 74.5888 39.835C73.9788 40.025 73.3088 40.12 72.5788 40.12C71.7138 40.12 70.9338 39.9875 70.2388 39.7225C69.5438 39.4525 68.9488 39.0775 68.4538 38.5975C67.9638 38.1125 67.5863 37.5325 67.3213 36.8575C67.0563 36.1825 66.9238 35.44 66.9238 34.63C66.9238 33.81 67.0513 33.0625 67.3063 32.3875C67.5663 31.7125 67.9338 31.135 68.4088 30.655C68.8838 30.17 69.4613 29.795 70.1413 29.53C70.8213 29.265 71.5813 29.1325 72.4212 29.1325C72.8463 29.1325 73.2413 29.165 73.6063 29.23C73.9713 29.29 74.3088 29.38 74.6188 29.5C74.9287 29.615 75.2163 29.7575 75.4813 29.9275C75.7463 30.0925 75.9938 30.28 76.2238 30.49L75.8112 31.15C75.7462 31.25 75.6613 31.315 75.5563 31.345C75.4563 31.37 75.3438 31.345 75.2188 31.27C75.0987 31.2 74.9613 31.115 74.8063 31.015C74.6513 30.915 74.4613 30.82 74.2363 30.73C74.0163 30.635 73.7538 30.555 73.4488 30.49C73.1488 30.425 72.7913 30.3925 72.3763 30.3925C71.7712 30.3925 71.2237 30.4925 70.7337 30.6925C70.2438 30.8875 69.8263 31.17 69.4813 31.54C69.1363 31.905 68.8712 32.35 68.6862 32.875C68.5013 33.395 68.4088 33.98 68.4088 34.63C68.4088 35.305 68.5038 35.91 68.6938 36.445C68.8888 36.975 69.1637 37.4275 69.5188 37.8025C69.8788 38.1725 70.3138 38.455 70.8238 38.65C71.3338 38.845 71.9062 38.9425 72.5413 38.9425C73.0413 38.9425 73.4837 38.8875 73.8688 38.7775C74.2588 38.6625 74.6387 38.505 75.0088 38.305V35.9425H73.3363C73.2412 35.9425 73.1637 35.915 73.1038 35.86C73.0488 35.805 73.0213 35.7375 73.0213 35.6575V34.8325H76.3213Z" fill="#DD054F"/>
<path d="M80.0033 40H78.5483V29.2525H80.0033V40Z" fill="#DD054F"/>
<path d="M88.2499 30.9325C88.2049 31.0075 88.1549 31.065 88.0999 31.105C88.0499 31.14 87.9874 31.1575 87.9124 31.1575C87.8274 31.1575 87.7274 31.115 87.6124 31.03C87.4974 30.945 87.3524 30.8525 87.1774 30.7525C87.0074 30.6475 86.7999 30.5525 86.5549 30.4675C86.3149 30.3825 86.0224 30.34 85.6774 30.34C85.3524 30.34 85.0649 30.385 84.8149 30.475C84.5699 30.56 84.3624 30.6775 84.1924 30.8275C84.0274 30.9775 83.9024 31.155 83.8174 31.36C83.7324 31.56 83.6899 31.7775 83.6899 32.0125C83.6899 32.3125 83.7624 32.5625 83.9074 32.7625C84.0574 32.9575 84.2524 33.125 84.4924 33.265C84.7374 33.405 85.0124 33.5275 85.3174 33.6325C85.6274 33.7325 85.9424 33.8375 86.2624 33.9475C86.5874 34.0575 86.9024 34.1825 87.2074 34.3225C87.5174 34.4575 87.7924 34.63 88.0324 34.84C88.2774 35.05 88.4724 35.3075 88.6174 35.6125C88.7674 35.9175 88.8424 36.2925 88.8424 36.7375C88.8424 37.2075 88.7624 37.65 88.6024 38.065C88.4424 38.475 88.2074 38.8325 87.8974 39.1375C87.5924 39.4425 87.2149 39.6825 86.7649 39.8575C86.3199 40.0325 85.8124 40.12 85.2424 40.12C84.5424 40.12 83.9074 39.995 83.3374 39.745C82.7674 39.49 82.2799 39.1475 81.8749 38.7175L82.2949 38.0275C82.3349 37.9725 82.3824 37.9275 82.4374 37.8925C82.4974 37.8525 82.5624 37.8325 82.6324 37.8325C82.6974 37.8325 82.7699 37.86 82.8499 37.915C82.9349 37.965 83.0299 38.03 83.1349 38.11C83.2399 38.19 83.3599 38.2775 83.4949 38.3725C83.6299 38.4675 83.7824 38.555 83.9524 38.635C84.1274 38.715 84.3249 38.7825 84.5449 38.8375C84.7649 38.8875 85.0124 38.9125 85.2874 38.9125C85.6324 38.9125 85.9399 38.865 86.2099 38.77C86.4799 38.675 86.7074 38.5425 86.8924 38.3725C87.0824 38.1975 87.2274 37.99 87.3274 37.75C87.4274 37.51 87.4774 37.2425 87.4774 36.9475C87.4774 36.6225 87.4024 36.3575 87.2524 36.1525C87.1074 35.9425 86.9149 35.7675 86.6749 35.6275C86.4349 35.4875 86.1599 35.37 85.8499 35.275C85.5399 35.175 85.2249 35.075 84.9049 34.975C84.5849 34.87 84.2699 34.75 83.9599 34.615C83.6499 34.48 83.3749 34.305 83.1349 34.09C82.8949 33.875 82.6999 33.6075 82.5499 33.2875C82.4049 32.9625 82.3324 32.5625 82.3324 32.0875C82.3324 31.7075 82.4049 31.34 82.5499 30.985C82.6999 30.63 82.9149 30.315 83.1949 30.04C83.4799 29.765 83.8274 29.545 84.2374 29.38C84.6524 29.215 85.1274 29.1325 85.6624 29.1325C86.2624 29.1325 86.8074 29.2275 87.2974 29.4175C87.7924 29.6075 88.2274 29.8825 88.6024 30.2425L88.2499 30.9325Z" fill="#DD054F"/>
<path d="M98.1644 30.475H94.6844V40H93.2369V30.475H89.7494V29.2525H98.1644V30.475Z" fill="#DD054F"/>
<path d="M101.214 40H99.7592V29.2525H101.214V40Z" fill="#DD054F"/>
<path d="M111.508 37.78C111.588 37.78 111.658 37.8125 111.718 37.8775L112.296 38.5C111.856 39.01 111.321 39.4075 110.691 39.6925C110.066 39.9775 109.308 40.12 108.418 40.12C107.648 40.12 106.948 39.9875 106.318 39.7225C105.688 39.4525 105.151 39.0775 104.706 38.5975C104.261 38.1125 103.916 37.5325 103.671 36.8575C103.426 36.1825 103.303 35.44 103.303 34.63C103.303 33.82 103.431 33.0775 103.686 32.4025C103.941 31.7275 104.298 31.1475 104.758 30.6625C105.223 30.1775 105.778 29.8025 106.423 29.5375C107.068 29.2675 107.781 29.1325 108.561 29.1325C109.326 29.1325 110.001 29.255 110.586 29.5C111.171 29.745 111.686 30.0775 112.131 30.4975L111.651 31.165C111.621 31.215 111.581 31.2575 111.531 31.2925C111.486 31.3225 111.423 31.3375 111.343 31.3375C111.253 31.3375 111.143 31.29 111.013 31.195C110.883 31.095 110.713 30.985 110.503 30.865C110.293 30.745 110.031 30.6375 109.716 30.5425C109.401 30.4425 109.013 30.3925 108.553 30.3925C107.998 30.3925 107.491 30.49 107.031 30.685C106.571 30.875 106.173 31.1525 105.838 31.5175C105.508 31.8825 105.251 32.3275 105.066 32.8525C104.881 33.3775 104.788 33.97 104.788 34.63C104.788 35.3 104.883 35.8975 105.073 36.4225C105.268 36.9475 105.531 37.3925 105.861 37.7575C106.196 38.1175 106.588 38.3925 107.038 38.5825C107.493 38.7725 107.983 38.8675 108.508 38.8675C108.828 38.8675 109.116 38.85 109.371 38.815C109.631 38.775 109.868 38.715 110.083 38.635C110.303 38.555 110.506 38.455 110.691 38.335C110.881 38.21 111.068 38.0625 111.253 37.8925C111.338 37.8175 111.423 37.78 111.508 37.78Z" fill="#DD054F"/>
<path d="M119.48 30.9325C119.435 31.0075 119.385 31.065 119.33 31.105C119.28 31.14 119.218 31.1575 119.143 31.1575C119.058 31.1575 118.958 31.115 118.843 31.03C118.728 30.945 118.583 30.8525 118.408 30.7525C118.238 30.6475 118.03 30.5525 117.785 30.4675C117.545 30.3825 117.253 30.34 116.908 30.34C116.583 30.34 116.295 30.385 116.045 30.475C115.8 30.56 115.593 30.6775 115.423 30.8275C115.258 30.9775 115.133 31.155 115.048 31.36C114.963 31.56 114.92 31.7775 114.92 32.0125C114.92 32.3125 114.993 32.5625 115.138 32.7625C115.288 32.9575 115.483 33.125 115.723 33.265C115.968 33.405 116.243 33.5275 116.548 33.6325C116.858 33.7325 117.173 33.8375 117.493 33.9475C117.818 34.0575 118.133 34.1825 118.438 34.3225C118.748 34.4575 119.023 34.63 119.263 34.84C119.508 35.05 119.703 35.3075 119.848 35.6125C119.998 35.9175 120.073 36.2925 120.073 36.7375C120.073 37.2075 119.993 37.65 119.833 38.065C119.673 38.475 119.438 38.8325 119.128 39.1375C118.823 39.4425 118.445 39.6825 117.995 39.8575C117.55 40.0325 117.043 40.12 116.473 40.12C115.773 40.12 115.138 39.995 114.568 39.745C113.998 39.49 113.51 39.1475 113.105 38.7175L113.525 38.0275C113.565 37.9725 113.613 37.9275 113.668 37.8925C113.728 37.8525 113.793 37.8325 113.863 37.8325C113.928 37.8325 114 37.86 114.08 37.915C114.165 37.965 114.26 38.03 114.365 38.11C114.47 38.19 114.59 38.2775 114.725 38.3725C114.86 38.4675 115.013 38.555 115.183 38.635C115.358 38.715 115.555 38.7825 115.775 38.8375C115.995 38.8875 116.243 38.9125 116.518 38.9125C116.863 38.9125 117.17 38.865 117.44 38.77C117.71 38.675 117.938 38.5425 118.123 38.3725C118.313 38.1975 118.458 37.99 118.558 37.75C118.658 37.51 118.708 37.2425 118.708 36.9475C118.708 36.6225 118.633 36.3575 118.483 36.1525C118.338 35.9425 118.145 35.7675 117.905 35.6275C117.665 35.4875 117.39 35.37 117.08 35.275C116.77 35.175 116.455 35.075 116.135 34.975C115.815 34.87 115.5 34.75 115.19 34.615C114.88 34.48 114.605 34.305 114.365 34.09C114.125 33.875 113.93 33.6075 113.78 33.2875C113.635 32.9625 113.563 32.5625 113.563 32.0875C113.563 31.7075 113.635 31.34 113.78 30.985C113.93 30.63 114.145 30.315 114.425 30.04C114.71 29.765 115.058 29.545 115.468 29.38C115.883 29.215 116.358 29.1325 116.893 29.1325C117.493 29.1325 118.038 29.2275 118.528 29.4175C119.023 29.6075 119.458 29.8825 119.833 30.2425L119.48 30.9325Z" fill="#DD054F"/>
<path fill-rule="evenodd" clip-rule="evenodd" d="M18.2521 9.99626L24 0L29.7478 9.99626C27.9525 9.35137 26.0173 9 24 9C21.9827 9 20.0475 9.35137 18.2521 9.99626ZM7.27848 29.0809L1 40H14.3536C10.716 37.4888 8.10515 33.5966 7.27848 29.0809ZM33.6464 40H47L40.7215 29.0809C39.8949 33.5966 37.284 37.4888 33.6464 40Z" fill="#DD054F"/>
<path fill-rule="evenodd" clip-rule="evenodd" d="M35.3686 19.3178C34.3838 17.3506 32.3496 16 30 16C26.6863 16 24 18.6863 24 22C24 24.1846 25.1675 26.0965 26.9127 27.1458L15.6434 28.7869C14.6015 27.1058 14 25.1232 14 23C14 16.9249 18.9249 12 25 12C29.7837 12 33.8541 15.0536 35.3686 19.3178Z" fill="#263365"/>
<path fill-rule="evenodd" clip-rule="evenodd" d="M33.1571 36.5903C30.8091 38.1146 28.0079 39 25 39C17.0576 39 10.557 32.8271 10.034 25.0173C10.0114 25.3419 10 25.6696 10 26C10 33.732 16.268 40 24 40C27.5012 40 30.7023 38.7147 33.1571 36.5903Z" fill="#263365"/>
<path fill-rule="evenodd" clip-rule="evenodd" d="M37.7319 27H34.9707L38.8892 16.3359H40.6396H41.3135L45.2539 27H42.4854L41.8686 25.0078H38.3469L37.7319 27ZM40.1053 19.3116L38.9596 23.0229H41.2542L40.1053 19.3116Z" fill="#263365"/>
<path fill-rule="evenodd" clip-rule="evenodd" d="M50.5786 16.3359H54.7754C55.5957 16.3359 56.3086 16.458 56.9141 16.7021C57.5195 16.9463 57.9858 17.3076 58.313 17.7861C58.645 18.2646 58.811 18.8555 58.811 19.5586C58.811 20.1689 58.7158 20.6792 58.5254 21.0894C58.335 21.4995 58.0688 21.8389 57.7271 22.1074C57.494 22.2898 57.2341 22.45 56.9473 22.588L59.1699 26.8901V27H56.416L54.5337 23.2354H53.1494V27H50.5786V16.3359ZM54.7754 21.2505H53.1494V18.3208H54.7754C55.0928 18.3208 55.3589 18.3794 55.5737 18.4966C55.7935 18.6138 55.9595 18.7822 56.0718 19.002C56.1841 19.2217 56.2402 19.4854 56.2402 19.793C56.2402 20.0957 56.1841 20.3569 56.0718 20.5767C55.9644 20.7915 55.8032 20.9575 55.5884 21.0747C55.3735 21.1919 55.1025 21.2505 54.7754 21.2505Z" fill="#263365"/>
<path d="M67.9684 27H65.3976V18.3208H62.2628V16.3359H65.3976H67.9684H71.1764V18.3208H67.9684V27Z" fill="#263365"/>
<path fill-rule="evenodd" clip-rule="evenodd" d="M0 47C0 45.8954 0.89543 45 2 45H119C120.105 45 121 45.8954 121 47V58C121 59.1046 120.105 60 119 60H2C0.895428 60 0 59.1046 0 58V47ZM16.3809 52.4837C16.4267 52.3926 16.4801 52.3082 16.5411 52.2305C16.6479 52.0977 16.7742 51.9935 16.92 51.918C17.0684 51.8424 17.2325 51.8047 17.4122 51.8047C17.5945 51.8047 17.7481 51.8359 17.8731 51.8984C17.9981 51.9583 18.0932 52.056 18.1583 52.1914C18.2234 52.3242 18.2559 52.5013 18.2559 52.7227V55.5H18.9825V52.7305C18.9825 52.4518 18.9513 52.2161 18.8888 52.0234C18.8263 51.8281 18.7351 51.6693 18.6153 51.5469C18.4981 51.4245 18.3562 51.3359 18.1895 51.2812C18.0229 51.224 17.8354 51.1953 17.627 51.1953C17.3718 51.1953 17.1388 51.2461 16.9278 51.3477C16.7195 51.4466 16.5398 51.5872 16.3888 51.7695C16.3806 51.7794 16.3726 51.7893 16.3646 51.7993L16.3419 51.2734H15.6583V55.5H16.3809V52.4837ZM22.6919 55.0435C22.5546 55.2158 22.3865 55.3485 22.1877 55.4414C21.9871 55.5326 21.7528 55.5781 21.4845 55.5781C21.2371 55.5781 21.0106 55.5247 20.8048 55.418C20.6017 55.3112 20.4259 55.1615 20.2775 54.9688C20.1317 54.776 20.0184 54.5495 19.9377 54.2891C19.8595 54.026 19.8205 53.7409 19.8205 53.4336V53.3516C19.8205 53.0286 19.8595 52.7357 19.9377 52.4727C20.0184 52.207 20.1317 51.9792 20.2775 51.7891C20.4259 51.599 20.6017 51.4531 20.8048 51.3516C21.0106 51.2474 21.2397 51.1953 21.4923 51.1953C21.758 51.1953 21.9897 51.2422 22.1877 51.3359C22.3733 51.4203 22.5321 51.5415 22.6642 51.6996V49.5H23.3908V55.5H22.7267L22.6919 55.0435ZM22.4845 52.1523C22.5546 52.2302 22.6145 52.3168 22.6642 52.4122V54.3451L22.6522 54.3679L22.64 54.3905L22.6291 54.4102C22.5353 54.5768 22.4103 54.7109 22.2541 54.8125C22.1004 54.9141 21.9038 54.9648 21.6642 54.9648C21.4689 54.9648 21.3009 54.9258 21.1603 54.8477C21.0197 54.7669 20.9038 54.6562 20.8127 54.5156C20.7215 54.375 20.6538 54.2122 20.6095 54.0273C20.5679 53.8424 20.547 53.6445 20.547 53.4336V53.3516C20.547 53.1406 20.5679 52.9427 20.6095 52.7578C20.6538 52.5703 20.7215 52.4062 20.8127 52.2656C20.9038 52.1224 21.0197 52.0104 21.1603 51.9297C21.3035 51.8464 21.4741 51.8047 21.672 51.8047C21.8543 51.8047 22.0119 51.8359 22.1447 51.8984C22.2801 51.9609 22.3934 52.0456 22.4845 52.1523ZM14.6641 49.8125H13.9141V53.6602C13.9141 53.957 13.8594 54.2018 13.75 54.3945C13.6406 54.5872 13.487 54.7305 13.2891 54.8242C13.0937 54.918 12.8646 54.9648 12.6016 54.9648C12.3411 54.9648 12.112 54.918 11.9141 54.8242C11.7187 54.7305 11.5664 54.5872 11.457 54.3945C11.3477 54.2018 11.293 53.957 11.293 53.6602V49.8125H10.5469V53.6602C10.5469 54.0872 10.6367 54.4427 10.8164 54.7266C10.9987 55.0104 11.2448 55.224 11.5547 55.3672C11.8672 55.5078 12.2161 55.5781 12.6016 55.5781C12.9688 55.5781 13.3086 55.5078 13.6211 55.3672C13.9362 55.224 14.1888 55.0104 14.3789 54.7266C14.569 54.4427 14.6641 54.0872 14.6641 53.6602V49.8125ZM25.3889 55.4297C25.6285 55.5286 25.8954 55.5781 26.1897 55.5781C26.4683 55.5781 26.7092 55.5391 26.9123 55.4609C27.1181 55.3828 27.2913 55.2812 27.4319 55.1562C27.5725 55.0312 27.6884 54.8997 27.7795 54.7617L27.342 54.4141C27.2092 54.5885 27.0543 54.7279 26.8772 54.832C26.7001 54.9362 26.484 54.9883 26.2288 54.9883C26.0308 54.9883 25.8537 54.9505 25.6975 54.875C25.5439 54.7995 25.4123 54.6953 25.303 54.5625C25.1962 54.4297 25.1142 54.276 25.0569 54.1016C25.0072 53.9407 24.9801 53.7701 24.9755 53.5898H27.8342V53.2656C27.8342 52.9688 27.8004 52.6953 27.7327 52.4453C27.6649 52.1927 27.5608 51.974 27.4202 51.7891C27.2795 51.6016 27.0985 51.4557 26.8772 51.3516C26.6584 51.2474 26.398 51.1953 26.0959 51.1953C25.859 51.1953 25.6298 51.2435 25.4084 51.3398C25.1871 51.4362 24.9892 51.5781 24.8147 51.7656C24.6402 51.9531 24.5022 52.1823 24.4006 52.4531C24.2991 52.7214 24.2483 53.0273 24.2483 53.3711V53.5352C24.2483 53.832 24.2939 54.1055 24.385 54.3555C24.4761 54.6055 24.6064 54.8216 24.7756 55.0039C24.9475 55.1862 25.1519 55.3281 25.3889 55.4297ZM24.9967 53H27.1116V52.9453C27.1011 52.7578 27.0621 52.5755 26.9944 52.3984C26.9293 52.2214 26.8251 52.0755 26.6819 51.9609C26.5386 51.8464 26.3433 51.7891 26.0959 51.7891C25.9319 51.7891 25.7808 51.8242 25.6428 51.8945C25.5048 51.9622 25.3863 52.0638 25.2873 52.1992C25.1884 52.3346 25.1116 52.5 25.0569 52.6953C25.0304 52.7899 25.0103 52.8914 24.9967 53ZM29.3206 55.5V52.4952C29.3714 52.3769 29.4378 52.2744 29.5198 52.1875C29.6084 52.0938 29.7165 52.0208 29.8441 51.9688C29.9717 51.9167 30.1188 51.8906 30.2855 51.8906C30.3532 51.8906 30.4131 51.8932 30.4652 51.8984C30.5198 51.901 30.5771 51.9089 30.637 51.9219L30.6409 51.25C30.6149 51.237 30.568 51.2253 30.5003 51.2148C30.4326 51.2018 30.3727 51.1953 30.3206 51.1953C30.0915 51.1953 29.8935 51.2448 29.7269 51.3438C29.5628 51.4401 29.4274 51.5755 29.3206 51.75L29.3154 51.7585L29.3011 51.2734H28.598V55.5H29.3206ZM33.6195 54.0898C33.6664 54.1784 33.6898 54.2747 33.6898 54.3789C33.6898 54.4961 33.6547 54.6003 33.5844 54.6914C33.5141 54.7826 33.4112 54.8542 33.2758 54.9062C33.143 54.9583 32.9776 54.9844 32.7797 54.9844C32.6312 54.9844 32.4815 54.9609 32.3305 54.9141C32.1794 54.8646 32.0518 54.7826 31.9477 54.668C31.8435 54.5508 31.7862 54.3932 31.7758 54.1953H31.0492C31.0492 54.4297 31.1156 54.6523 31.2484 54.8633C31.3813 55.0742 31.5766 55.2461 31.8344 55.3789C32.0922 55.5117 32.4073 55.5781 32.7797 55.5781C33.0271 55.5781 33.2497 55.5482 33.4477 55.4883C33.6482 55.4258 33.82 55.3398 33.9633 55.2305C34.1091 55.1185 34.2198 54.9857 34.2953 54.832C34.3734 54.6784 34.4125 54.5091 34.4125 54.3242C34.4125 54.0977 34.3578 53.9049 34.2484 53.7461C34.1391 53.5872 33.9724 53.4531 33.7484 53.3438C33.5245 53.2344 33.2393 53.1406 32.893 53.0625C32.695 53.0182 32.5323 52.974 32.4047 52.9297C32.2771 52.8854 32.1781 52.8385 32.1078 52.7891C32.0375 52.737 31.988 52.681 31.9594 52.6211C31.9333 52.5586 31.9203 52.4883 31.9203 52.4102C31.9203 52.306 31.9477 52.207 32.0023 52.1133C32.0596 52.0195 32.1495 51.9427 32.2719 51.8828C32.3969 51.8203 32.5596 51.7891 32.7602 51.7891C32.9503 51.7891 33.1104 51.8255 33.2406 51.8984C33.3734 51.9714 33.4737 52.0638 33.5414 52.1758C33.6117 52.2852 33.6469 52.3984 33.6469 52.5156H34.3695C34.3695 52.2734 34.3057 52.0534 34.1781 51.8555C34.0505 51.6549 33.8669 51.4948 33.6273 51.375C33.3878 51.2552 33.0987 51.1953 32.7602 51.1953C32.5232 51.1953 32.3083 51.2279 32.1156 51.293C31.9229 51.3581 31.7576 51.4479 31.6195 51.5625C31.4841 51.6771 31.3786 51.8086 31.3031 51.957C31.2302 52.1055 31.1938 52.263 31.1938 52.4297C31.1938 52.6042 31.2289 52.7565 31.2992 52.8867C31.3695 53.0169 31.4698 53.1302 31.6 53.2266C31.7328 53.3229 31.893 53.4049 32.0805 53.4727C32.2706 53.5404 32.4828 53.599 32.7172 53.6484C32.9958 53.7031 33.2042 53.7682 33.3422 53.8438C33.4828 53.9167 33.5753 53.9987 33.6195 54.0898ZM36.2622 51.8281H37.0513V51.2734H36.2622V50.2461H35.5395V51.2734H34.7661V51.8281H35.5395V54.4492C35.5395 54.7305 35.5825 54.9544 35.6684 55.1211C35.757 55.2852 35.8755 55.4023 36.0239 55.4727C36.1723 55.543 36.3351 55.5781 36.5122 55.5781C36.6424 55.5781 36.7531 55.569 36.8442 55.5508C36.938 55.5352 37.0135 55.5182 37.0708 55.5L37.0669 54.9102C37.033 54.918 36.9822 54.9284 36.9145 54.9414C36.8494 54.9518 36.7869 54.957 36.727 54.957C36.6463 54.957 36.5708 54.9453 36.5005 54.9219C36.4302 54.8984 36.3729 54.8503 36.3286 54.7773C36.2843 54.7044 36.2622 54.5964 36.2622 54.4531V51.8281ZM40.3111 54.3117V53.4453H39.7134C39.5077 53.4453 39.3241 53.4622 39.1627 53.4961C39.0012 53.5273 38.8658 53.5755 38.7564 53.6406C38.647 53.7057 38.5637 53.7878 38.5064 53.8867C38.4491 53.9831 38.4205 54.0964 38.4205 54.2266C38.4205 54.3594 38.4504 54.4805 38.5103 54.5898C38.5702 54.6992 38.6601 54.7865 38.7798 54.8516C38.9022 54.9141 39.052 54.9453 39.2291 54.9453C39.4504 54.9453 39.6457 54.8984 39.815 54.8047C39.9843 54.7109 40.1184 54.5964 40.2173 54.4609C40.2551 54.4107 40.2863 54.3609 40.3111 54.3117ZM40.3111 52.9375V52.6016C40.3111 52.4349 40.2772 52.2904 40.2095 52.168C40.1444 52.043 40.0455 51.9466 39.9127 51.8789C39.7798 51.8112 39.6158 51.7773 39.4205 51.7773C39.2382 51.7773 39.078 51.8086 38.94 51.8711C38.8046 51.9336 38.6978 52.0156 38.6197 52.1172C38.5442 52.2188 38.5064 52.3281 38.5064 52.4453H37.7838C37.7838 52.2943 37.8228 52.1445 37.9009 51.9961C37.9791 51.8477 38.091 51.7135 38.2369 51.5938C38.3853 51.4714 38.5624 51.375 38.7681 51.3047C38.9765 51.2318 39.2082 51.1953 39.4634 51.1953C39.7707 51.1953 40.0416 51.2474 40.2759 51.3516C40.5129 51.4557 40.6978 51.6133 40.8306 51.8242C40.966 52.0326 41.0338 52.2943 41.0338 52.6094V54.5781C41.0338 54.7188 41.0455 54.8685 41.0689 55.0273C41.095 55.1862 41.1327 55.3229 41.1822 55.4375V55.5H40.4283C40.3918 55.4167 40.3632 55.306 40.3423 55.168L40.3386 55.142L40.3349 55.1145L40.3303 55.0781L40.3274 55.0532C40.293 55.0893 40.2563 55.125 40.2173 55.1602C40.0845 55.2799 39.9257 55.3802 39.7408 55.4609C39.5585 55.5391 39.3528 55.5781 39.1236 55.5781C38.8371 55.5781 38.5858 55.5221 38.3697 55.4102C38.1561 55.2982 37.9895 55.1484 37.8697 54.9609C37.7525 54.7708 37.6939 54.5586 37.6939 54.3242C37.6939 54.0977 37.7382 53.8984 37.8267 53.7266C37.9153 53.5521 38.0429 53.4076 38.2095 53.293C38.3762 53.1758 38.5767 53.0872 38.8111 53.0273C39.0455 52.9674 39.3072 52.9375 39.5963 52.9375H40.3111ZM42.8131 52.4837V55.5H42.0905V51.2734H42.7741L42.7968 51.7993C42.8048 51.7893 42.8128 51.7794 42.8209 51.7695C42.972 51.5872 43.1517 51.4466 43.36 51.3477C43.5709 51.2461 43.804 51.1953 44.0592 51.1953C44.2675 51.1953 44.4551 51.224 44.6217 51.2812C44.7884 51.3359 44.9303 51.4245 45.0475 51.5469C45.1673 51.6693 45.2584 51.8281 45.3209 52.0234C45.3834 52.2161 45.4147 52.4518 45.4147 52.7305V55.5H44.6881V52.7227C44.6881 52.5013 44.6556 52.3242 44.5905 52.1914C44.5254 52.056 44.4303 51.9583 44.3053 51.8984C44.1803 51.8359 44.0267 51.8047 43.8444 51.8047C43.6647 51.8047 43.5006 51.8424 43.3522 51.918C43.2064 51.9935 43.0801 52.0977 42.9733 52.2305C42.9123 52.3082 42.8589 52.3926 42.8131 52.4837ZM49.0964 52.4122V54.3451L49.0818 54.3729L49.0751 54.3851L49.0612 54.4102C48.9675 54.5768 48.8425 54.7109 48.6862 54.8125C48.5326 54.9141 48.336 54.9648 48.0964 54.9648C47.9011 54.9648 47.7331 54.9258 47.5925 54.8477C47.4519 54.7669 47.336 54.6562 47.2448 54.5156C47.1537 54.375 47.086 54.2122 47.0417 54.0273C47 53.8424 46.9792 53.6445 46.9792 53.4336V53.3516C46.9792 53.1406 47 52.9427 47.0417 52.7578C47.086 52.5703 47.1537 52.4062 47.2448 52.2656C47.336 52.1224 47.4519 52.0104 47.5925 51.9297C47.7357 51.8464 47.9063 51.8047 48.1042 51.8047C48.2865 51.8047 48.4441 51.8359 48.5769 51.8984C48.7123 51.9609 48.8256 52.0456 48.9167 52.1523C48.9868 52.2302 49.0467 52.3168 49.0964 52.4122ZM49.0964 51.6996C48.9643 51.5415 48.8055 51.4203 48.6198 51.3359C48.4219 51.2422 48.1902 51.1953 47.9245 51.1953C47.6719 51.1953 47.4428 51.2474 47.237 51.3516C47.0339 51.4531 46.8581 51.599 46.7097 51.7891C46.5639 51.9792 46.4506 52.207 46.3698 52.4727C46.2917 52.7357 46.2527 53.0286 46.2527 53.3516V53.4336C46.2527 53.7409 46.2917 54.026 46.3698 54.2891C46.4506 54.5495 46.5639 54.776 46.7097 54.9688C46.8581 55.1615 47.0339 55.3112 47.237 55.418C47.4428 55.5247 47.6693 55.5781 47.9167 55.5781C48.1849 55.5781 48.4193 55.5326 48.6198 55.4414C48.8187 55.3485 48.9868 55.2158 49.1241 55.0435L49.1589 55.5H49.823V49.5H49.0964V51.6996ZM57.8173 54.0625C57.8173 53.9297 57.7965 53.8125 57.7548 53.7109C57.7158 53.6068 57.6455 53.513 57.5439 53.4297C57.4449 53.3464 57.3069 53.2669 57.1298 53.1914C56.9554 53.1159 56.734 53.0391 56.4658 52.9609C56.1845 52.8776 55.9306 52.7852 55.7041 52.6836C55.4775 52.5794 55.2835 52.4609 55.122 52.3281C54.9606 52.1953 54.8369 52.043 54.7509 51.8711C54.665 51.6992 54.622 51.5026 54.622 51.2812C54.622 51.0599 54.6676 50.8555 54.7588 50.668C54.8499 50.4805 54.9801 50.3177 55.1494 50.1797C55.3212 50.0391 55.5257 49.9297 55.7627 49.8516C55.9996 49.7734 56.264 49.7344 56.5556 49.7344C56.9827 49.7344 57.3447 49.8164 57.6416 49.9805C57.941 50.1419 58.1689 50.3542 58.3252 50.6172C58.4814 50.8776 58.5595 51.1562 58.5595 51.4531H57.8095C57.8095 51.2396 57.764 51.0508 57.6728 50.8867C57.5817 50.7201 57.4436 50.5898 57.2588 50.4961C57.0739 50.3997 56.8395 50.3516 56.5556 50.3516C56.2874 50.3516 56.066 50.3919 55.8916 50.4727C55.7171 50.5534 55.5869 50.6628 55.5009 50.8008C55.4176 50.9388 55.3759 51.0964 55.3759 51.2734C55.3759 51.3932 55.4007 51.5026 55.4502 51.6016C55.5022 51.6979 55.5817 51.7878 55.6884 51.8711C55.7978 51.9544 55.9358 52.0312 56.1025 52.1016C56.2718 52.1719 56.4736 52.2396 56.708 52.3047C57.0309 52.3958 57.3095 52.4974 57.5439 52.6094C57.7783 52.7214 57.971 52.8477 58.122 52.9883C58.2757 53.1263 58.389 53.2839 58.4619 53.4609C58.5374 53.6354 58.5752 53.8333 58.5752 54.0547C58.5752 54.2865 58.5283 54.4961 58.4345 54.6836C58.3408 54.8711 58.2067 55.0312 58.0322 55.1641C57.8577 55.2969 57.6481 55.3997 57.4033 55.4727C57.1611 55.543 56.8903 55.5781 56.5908 55.5781C56.3278 55.5781 56.0686 55.5417 55.8134 55.4688C55.5608 55.3958 55.3304 55.2865 55.122 55.1406C54.9163 54.9948 54.7509 54.8151 54.6259 54.6016C54.5035 54.3854 54.4423 54.1354 54.4423 53.8516H55.1923C55.1923 54.0469 55.2301 54.2148 55.3056 54.3555C55.3811 54.4935 55.484 54.6081 55.6142 54.6992C55.747 54.7904 55.8968 54.8581 56.0634 54.9023C56.2327 54.944 56.4085 54.9648 56.5908 54.9648C56.8538 54.9648 57.0765 54.9284 57.2588 54.8555C57.441 54.7826 57.5791 54.6784 57.6728 54.543C57.7692 54.4076 57.8173 54.2474 57.8173 54.0625ZM59.4561 49.8555C59.3858 49.9362 59.3506 50.0352 59.3506 50.1523C59.3506 50.2643 59.3858 50.3607 59.4561 50.4414C59.529 50.5195 59.6358 50.5586 59.7764 50.5586C59.9144 50.5586 60.0199 50.5195 60.0928 50.4414C60.1683 50.3607 60.2061 50.2643 60.2061 50.1523C60.2061 50.0352 60.1683 49.9362 60.0928 49.8555C60.0199 49.7747 59.9144 49.7344 59.7764 49.7344C59.6358 49.7344 59.529 49.7747 59.4561 49.8555ZM60.1319 51.2734V55.5H59.4053V51.2734H60.1319ZM61.9308 52.4034V55.5H61.2042V51.2734H61.8917L61.9131 51.7335C62.0512 51.5686 62.2198 51.44 62.4191 51.3477C62.6326 51.2461 62.88 51.1953 63.1613 51.1953C63.3592 51.1953 63.5415 51.224 63.7081 51.2812C63.8748 51.3359 64.0193 51.4232 64.1417 51.543C64.2339 51.6332 64.3106 51.7427 64.3718 51.8714C64.4036 51.8255 64.4376 51.7811 64.4738 51.7383C64.617 51.5716 64.7928 51.4401 65.0011 51.3438C65.2094 51.2448 65.4477 51.1953 65.7159 51.1953C65.9425 51.1953 66.143 51.2253 66.3175 51.2852C66.4946 51.3451 66.643 51.4375 66.7628 51.5625C66.8852 51.6849 66.9777 51.8424 67.0402 52.0352C67.1027 52.2279 67.1339 52.457 67.1339 52.7227V55.5H66.4073V52.7148C66.4073 52.4779 66.3696 52.2943 66.2941 52.1641C66.2212 52.0312 66.117 51.9388 65.9816 51.8867C65.8488 51.832 65.6899 51.8047 65.505 51.8047C65.3462 51.8047 65.2055 51.832 65.0831 51.8867C64.9607 51.9414 64.8579 52.0169 64.7745 52.1133C64.6912 52.207 64.6274 52.3151 64.5831 52.4375C64.5562 52.5166 64.538 52.599 64.5284 52.6847V55.5H63.8058V52.7188C63.8058 52.4974 63.768 52.3203 63.6925 52.1875C63.6196 52.0547 63.5154 51.9583 63.38 51.8984C63.2446 51.8359 63.0857 51.8047 62.9034 51.8047C62.6899 51.8047 62.5115 51.8424 62.3683 51.918C62.2251 51.9935 62.1105 52.0977 62.0245 52.2305C61.9893 52.2848 61.9581 52.3425 61.9308 52.4034ZM68.8703 57.125V55.09C69.0082 55.2439 69.1736 55.3623 69.3664 55.4453C69.5721 55.5339 69.8091 55.5781 70.0773 55.5781C70.3404 55.5781 70.5734 55.5247 70.7766 55.418C70.9797 55.3112 71.1503 55.1615 71.2883 54.9688C71.4289 54.776 71.5357 54.5495 71.6086 54.2891C71.6815 54.026 71.718 53.7409 71.718 53.4336V53.3516C71.718 53.0286 71.6815 52.7357 71.6086 52.4727C71.5383 52.207 71.4328 51.9792 71.2922 51.7891C71.1516 51.599 70.9784 51.4531 70.7727 51.3516C70.5669 51.2474 70.3313 51.1953 70.0656 51.1953C69.8 51.1953 69.5656 51.2422 69.3625 51.3359C69.1596 51.427 68.9861 51.5615 68.843 51.7383L68.8078 51.2734H68.1438V57.125H68.8703ZM68.8977 54.4531C68.8883 54.4371 68.8792 54.4209 68.8703 54.4047V52.3869C68.9185 52.3015 68.9744 52.2233 69.0383 52.1523C69.132 52.0456 69.2453 51.9609 69.3781 51.8984C69.5135 51.8359 69.6724 51.8047 69.8547 51.8047C70.0526 51.8047 70.2232 51.8464 70.3664 51.9297C70.5096 52.0104 70.6268 52.1224 70.718 52.2656C70.8117 52.4062 70.8807 52.5703 70.925 52.7578C70.9693 52.9427 70.9914 53.1406 70.9914 53.3516V53.4336C70.9914 53.6445 70.9693 53.8438 70.925 54.0312C70.8807 54.2161 70.8117 54.3802 70.718 54.5234C70.6268 54.6667 70.5096 54.7799 70.3664 54.8633C70.2258 54.944 70.0578 54.9844 69.8625 54.9844C69.6255 54.9844 69.4289 54.9362 69.2727 54.8398C69.1164 54.7409 68.9914 54.612 68.8977 54.4531ZM73.345 49.5V55.5H72.6184V49.5H73.345ZM74.5345 49.8555C74.4642 49.9362 74.4291 50.0352 74.4291 50.1523C74.4291 50.2643 74.4642 50.3607 74.5345 50.4414C74.6074 50.5195 74.7142 50.5586 74.8548 50.5586C74.9929 50.5586 75.0983 50.5195 75.1712 50.4414C75.2468 50.3607 75.2845 50.2643 75.2845 50.1523C75.2845 50.0352 75.2468 49.9362 75.1712 49.8555C75.0983 49.7747 74.9929 49.7344 74.8548 49.7344C74.7142 49.7344 74.6074 49.7747 74.5345 49.8555ZM75.2103 51.2734V55.5H74.4837V51.2734H75.2103ZM76.6459 51.8281H75.978V51.2734H76.6459V50.8281C76.6459 50.5234 76.7006 50.2669 76.81 50.0586C76.922 49.8477 77.0821 49.6888 77.2905 49.582C77.4988 49.4727 77.7462 49.418 78.0327 49.418C78.116 49.418 78.1993 49.4232 78.2827 49.4336C78.3686 49.444 78.4519 49.4596 78.5327 49.4805L78.4936 50.0703C78.4389 50.0573 78.3764 50.0482 78.3061 50.043C78.2384 50.0378 78.1707 50.0352 78.103 50.0352C77.9493 50.0352 77.8165 50.0664 77.7045 50.1289C77.5952 50.1888 77.5118 50.2773 77.4545 50.3945C77.3972 50.5117 77.3686 50.6562 77.3686 50.8281V51.2734H78.267V51.8281H77.3686V55.5H76.6459V51.8281ZM78.5269 51.2734L80.0355 55.4544L79.8784 55.8828C79.8212 56.0573 79.7521 56.194 79.6714 56.293C79.5933 56.3945 79.4969 56.4661 79.3823 56.5078C79.2678 56.5521 79.1284 56.5742 78.9644 56.5742C78.9462 56.5742 78.9136 56.5716 78.8667 56.5664C78.8224 56.5638 78.7899 56.5612 78.7691 56.5586L78.773 57.1445C78.8094 57.1549 78.8719 57.168 78.9605 57.1836C79.049 57.1992 79.1219 57.207 79.1792 57.207C79.3719 57.207 79.5373 57.1719 79.6753 57.1016C79.8159 57.0339 79.9357 56.9453 80.0347 56.8359C80.1337 56.7266 80.2144 56.6107 80.2769 56.4883C80.342 56.3685 80.3941 56.2565 80.4331 56.1523L82.1284 51.2734H81.355L80.3738 54.4356L79.3159 51.2734H78.5269ZM87.3728 50.4297V54.8867H88.158C88.5642 54.8867 88.9027 54.8021 89.1736 54.6328C89.4444 54.4609 89.6475 54.2214 89.783 53.9141C89.921 53.6042 89.99 53.2422 89.99 52.8281V52.4805C89.99 52.1549 89.9509 51.8659 89.8728 51.6133C89.7947 51.3581 89.6801 51.1432 89.5291 50.9688C89.378 50.7917 89.1931 50.6576 88.9744 50.5664C88.7582 50.4753 88.5095 50.4297 88.2283 50.4297H87.3728ZM86.947 49.8125H87.3728H88.2283C88.6007 49.8125 88.9405 49.875 89.2478 50C89.5551 50.1224 89.8194 50.3008 90.0408 50.5352C90.2647 50.7669 90.4366 51.0482 90.5564 51.3789C90.6762 51.707 90.7361 52.0768 90.7361 52.4883V52.8281C90.7361 53.2396 90.6762 53.6107 90.5564 53.9414C90.4366 54.2695 90.2634 54.5495 90.0369 54.7812C89.8129 55.013 89.5421 55.1914 89.2244 55.3164C88.9093 55.4388 88.5538 55.5 88.158 55.5H87.3728H86.9705H86.6189V49.8125H86.947ZM93.4334 55.5781C93.1392 55.5781 92.8722 55.5286 92.6327 55.4297C92.3957 55.3281 92.1913 55.1862 92.0194 55.0039C91.8501 54.8216 91.7199 54.6055 91.6288 54.3555C91.5376 54.1055 91.492 53.832 91.492 53.5352V53.3711C91.492 53.0273 91.5428 52.7214 91.6444 52.4531C91.7459 52.1823 91.884 51.9531 92.0584 51.7656C92.2329 51.5781 92.4308 51.4362 92.6522 51.3398C92.8735 51.2435 93.1027 51.1953 93.3397 51.1953C93.6418 51.1953 93.9022 51.2474 94.1209 51.3516C94.3423 51.4557 94.5233 51.6016 94.6639 51.7891C94.8045 51.974 94.9087 52.1927 94.9764 52.4453C95.0441 52.6953 95.078 52.9688 95.078 53.2656V53.5898H92.2193C92.2238 53.7701 92.2509 53.9407 92.3006 54.1016C92.3579 54.276 92.4399 54.4297 92.5467 54.5625C92.6561 54.6953 92.7876 54.7995 92.9412 54.875C93.0975 54.9505 93.2746 54.9883 93.4725 54.9883C93.7277 54.9883 93.9439 54.9362 94.1209 54.832C94.298 54.7279 94.453 54.5885 94.5858 54.4141L95.0233 54.7617C94.9321 54.8997 94.8163 55.0312 94.6756 55.1562C94.535 55.2812 94.3618 55.3828 94.1561 55.4609C93.953 55.5391 93.7121 55.5781 93.4334 55.5781ZM94.3553 53H92.2404C92.2541 52.8914 92.2742 52.7899 92.3006 52.6953C92.3553 52.5 92.4321 52.3346 92.5311 52.1992C92.6301 52.0638 92.7485 51.9622 92.8866 51.8945C93.0246 51.8242 93.1756 51.7891 93.3397 51.7891C93.5871 51.7891 93.7824 51.8464 93.9256 51.9609C94.0689 52.0755 94.173 52.2214 94.2381 52.3984C94.3058 52.5755 94.3449 52.7578 94.3553 52.9453V53ZM96.6269 55.5V49.5H95.9003V55.5H96.6269ZM97.7109 50.1523C97.7109 50.0352 97.7461 49.9362 97.8164 49.8555C97.8893 49.7747 97.9961 49.7344 98.1367 49.7344C98.2747 49.7344 98.3802 49.7747 98.4531 49.8555C98.5286 49.9362 98.5664 50.0352 98.5664 50.1523C98.5664 50.2643 98.5286 50.3607 98.4531 50.4414C98.3802 50.5195 98.2747 50.5586 98.1367 50.5586C97.9961 50.5586 97.8893 50.5195 97.8164 50.4414C97.7461 50.3607 97.7109 50.2643 97.7109 50.1523ZM98.4922 55.5V51.2734H97.7656V55.5H98.4922ZM100.966 54.5117L99.8926 51.2734H99.1505L100.682 55.5H100.748H101.166H101.232L102.752 51.2734H102.014L100.966 54.5117ZM104.266 55.4297C104.505 55.5286 104.772 55.5781 105.067 55.5781C105.345 55.5781 105.586 55.5391 105.789 55.4609C105.995 55.3828 106.168 55.2812 106.309 55.1562C106.449 55.0312 106.565 54.8997 106.656 54.7617L106.219 54.4141C106.086 54.5885 105.931 54.7279 105.754 54.832C105.577 54.9362 105.361 54.9883 105.106 54.9883C104.908 54.9883 104.731 54.9505 104.574 54.875C104.421 54.7995 104.289 54.6953 104.18 54.5625C104.073 54.4297 103.991 54.276 103.934 54.1016C103.884 53.9407 103.857 53.7701 103.852 53.5898H106.711V53.2656C106.711 52.9688 106.677 52.6953 106.61 52.4453C106.542 52.1927 106.438 51.974 106.297 51.7891C106.156 51.6016 105.975 51.4557 105.754 51.3516C105.535 51.2474 105.275 51.1953 104.973 51.1953C104.736 51.1953 104.507 51.2435 104.285 51.3398C104.064 51.4362 103.866 51.5781 103.692 51.7656C103.517 51.9531 103.379 52.1823 103.277 52.4531C103.176 52.7214 103.125 53.0273 103.125 53.3711V53.5352C103.125 53.832 103.171 54.1055 103.262 54.3555C103.353 54.6055 103.483 54.8216 103.652 55.0039C103.824 55.1862 104.029 55.3281 104.266 55.4297ZM103.874 53C103.887 52.8914 103.907 52.7899 103.934 52.6953C103.988 52.5 104.065 52.3346 104.164 52.1992C104.263 52.0638 104.382 51.9622 104.52 51.8945C104.658 51.8242 104.809 51.7891 104.973 51.7891C105.22 51.7891 105.416 51.8464 105.559 51.9609C105.702 52.0755 105.806 52.2214 105.871 52.3984C105.939 52.5755 105.978 52.7578 105.988 52.9453V53H103.874ZM108.198 52.4952V55.5H107.475V51.2734H108.178L108.192 51.7585L108.198 51.75C108.304 51.5755 108.44 51.4401 108.604 51.3438C108.77 51.2448 108.968 51.1953 109.197 51.1953C109.25 51.1953 109.309 51.2018 109.377 51.2148C109.445 51.2253 109.492 51.237 109.518 51.25L109.514 51.9219C109.454 51.9089 109.397 51.901 109.342 51.8984C109.29 51.8932 109.23 51.8906 109.162 51.8906C108.996 51.8906 108.849 51.9167 108.721 51.9688C108.593 52.0208 108.485 52.0938 108.397 52.1875C108.315 52.2744 108.248 52.377 108.198 52.4952Z" fill="#263365"/>
</svg>
