<svg width="120" height="45" viewBox="0 0 120 45" fill="none" xmlns="http://www.w3.org/2000/svg">
<g clip-path="url(#clip0_1615_3133)">
<path d="M45.7007 25.8428C45.7007 25.4912 45.8266 25.1982 46.0784 24.9639C46.3302 24.7246 46.6547 24.605 47.0517 24.605C47.4537 24.605 47.7781 24.7246 48.0251 24.9639C48.2769 25.1982 48.4028 25.4912 48.4028 25.8428C48.4028 26.1943 48.2769 26.4897 48.0251 26.729C47.7781 26.9634 47.4537 27.0806 47.0517 27.0806C46.6547 27.0806 46.3302 26.9634 46.0784 26.729C45.8266 26.4897 45.7007 26.1943 45.7007 25.8428Z" fill="white"/>
<path d="M59.9085 25.8428C59.9085 25.4912 60.0344 25.1982 60.2862 24.9639C60.538 24.7246 60.8624 24.605 61.2595 24.605C61.6614 24.605 61.9859 24.7246 62.2329 24.9639C62.4847 25.1982 62.6106 25.4912 62.6106 25.8428C62.6106 26.1943 62.4847 26.4897 62.2329 26.729C61.9859 26.9634 61.6614 27.0806 61.2595 27.0806C60.8624 27.0806 60.538 26.9634 60.2862 26.729C60.0344 26.4897 59.9085 26.1943 59.9085 25.8428Z" fill="white"/>
<path d="M69.84 25.8428C69.84 25.4912 69.9659 25.1982 70.2177 24.9639C70.4695 24.7246 70.7939 24.605 71.191 24.605C71.5929 24.605 71.9174 24.7246 72.1644 24.9639C72.4162 25.1982 72.5421 25.4912 72.5421 25.8428C72.5421 26.1943 72.4162 26.4897 72.1644 26.729C71.9174 26.9634 71.5929 27.0806 71.191 27.0806C70.7939 27.0806 70.4695 26.9634 70.2177 26.729C69.9659 26.4897 69.84 26.1943 69.84 25.8428Z" fill="white"/>
<path d="M54.0198 38.7775V40H47.9727V29.2525H49.4083V38.7775H54.0198Z" fill="white"/>
<path d="M64.9681 34.63C64.9681 35.435 64.8417 36.175 64.5888 36.85C64.3359 37.52 63.9789 38.0975 63.5177 38.5825C63.0566 39.0675 62.5012 39.445 61.8516 39.715C61.207 39.98 60.4929 40.1125 59.7094 40.1125C58.926 40.1125 58.2119 39.98 57.5673 39.715C56.9227 39.445 56.3698 39.0675 55.9086 38.5825C55.4475 38.0975 55.0904 37.52 54.8376 36.85C54.5847 36.175 54.4582 35.435 54.4582 34.63C54.4582 33.825 54.5847 33.0875 54.8376 32.4175C55.0904 31.7425 55.4475 31.1625 55.9086 30.6775C56.3698 30.1875 56.9227 29.8075 57.5673 29.5375C58.2119 29.2675 58.926 29.1325 59.7094 29.1325C60.4929 29.1325 61.207 29.2675 61.8516 29.5375C62.5012 29.8075 63.0566 30.1875 63.5177 30.6775C63.9789 31.1625 64.3359 31.7425 64.5888 32.4175C64.8417 33.0875 64.9681 33.825 64.9681 34.63ZM63.488 34.63C63.488 33.97 63.3987 33.3775 63.2202 32.8525C63.0417 32.3275 62.7888 31.885 62.4615 31.525C62.1342 31.16 61.7376 30.88 61.2714 30.685C60.8053 30.49 60.2847 30.3925 59.7094 30.3925C59.1392 30.3925 58.621 30.49 58.1549 30.685C57.6888 30.88 57.2896 31.16 56.9574 31.525C56.6301 31.885 56.3772 32.3275 56.1987 32.8525C56.0202 33.3775 55.9309 33.97 55.9309 34.63C55.9309 35.29 56.0202 35.8825 56.1987 36.4075C56.3772 36.9275 56.6301 37.37 56.9574 37.735C57.2896 38.095 57.6888 38.3725 58.1549 38.5675C58.621 38.7575 59.1392 38.8525 59.7094 38.8525C60.2847 38.8525 60.8053 38.7575 61.2714 38.5675C61.7376 38.3725 62.1342 38.095 62.4615 37.735C62.7888 37.37 63.0417 36.9275 63.2202 36.4075C63.3987 35.8825 63.488 35.29 63.488 34.63Z" fill="white"/>
<path d="M75.6905 34.8325V38.9575C75.155 39.3475 74.5822 39.64 73.9723 39.835C73.3674 40.025 72.7029 40.12 71.9789 40.12C71.1211 40.12 70.3475 39.9875 69.6583 39.7225C68.969 39.4525 68.3789 39.0775 67.888 38.5975C67.4021 38.1125 67.0277 37.5325 66.7649 36.8575C66.5021 36.1825 66.3707 35.44 66.3707 34.63C66.3707 33.81 66.4971 33.0625 66.75 32.3875C67.0079 31.7125 67.3723 31.135 67.8434 30.655C68.3145 30.17 68.8872 29.795 69.5616 29.53C70.2359 29.265 70.9897 29.1325 71.8227 29.1325C72.2442 29.1325 72.636 29.165 72.9979 29.23C73.3599 29.29 73.6946 29.38 74.0021 29.5C74.3095 29.615 74.5946 29.7575 74.8574 29.9275C75.1203 30.0925 75.3657 30.28 75.5938 30.49L75.1847 31.15C75.1202 31.25 75.0359 31.315 74.9318 31.345C74.8326 31.37 74.7211 31.345 74.5971 31.27C74.4781 31.2 74.3417 31.115 74.188 31.015C74.0343 30.915 73.8459 30.82 73.6227 30.73C73.4045 30.635 73.1442 30.555 72.8417 30.49C72.5442 30.425 72.1897 30.3925 71.7781 30.3925C71.1781 30.3925 70.6351 30.4925 70.1492 30.6925C69.6632 30.8875 69.2492 31.17 68.907 31.54C68.5649 31.905 68.3021 32.35 68.1186 32.875C67.9351 33.395 67.8434 33.98 67.8434 34.63C67.8434 35.305 67.9376 35.91 68.126 36.445C68.3194 36.975 68.5921 37.4275 68.9442 37.8025C69.3012 38.1725 69.7326 38.455 70.2384 38.65C70.7442 38.845 71.312 38.9425 71.9417 38.9425C72.4376 38.9425 72.8764 38.8875 73.2583 38.7775C73.645 38.6625 74.0219 38.505 74.3888 38.305V35.9425H72.7302C72.6359 35.9425 72.5591 35.915 72.4996 35.86C72.445 35.805 72.4178 35.7375 72.4178 35.6575V34.8325H75.6905Z" fill="white"/>
<path d="M79.3421 40H77.8991V29.2525H79.3421V40Z" fill="white"/>
<path d="M87.5205 30.9325C87.4759 31.0075 87.4263 31.065 87.3718 31.105C87.3222 31.14 87.2602 31.1575 87.1858 31.1575C87.1015 31.1575 87.0024 31.115 86.8883 31.03C86.7743 30.945 86.6305 30.8525 86.4569 30.7525C86.2883 30.6475 86.0825 30.5525 85.8395 30.4675C85.6015 30.3825 85.3115 30.34 84.9693 30.34C84.647 30.34 84.3619 30.385 84.1139 30.475C83.871 30.56 83.6652 30.6775 83.4966 30.8275C83.3329 30.9775 83.209 31.155 83.1247 31.36C83.0404 31.56 82.9982 31.7775 82.9982 32.0125C82.9982 32.3125 83.0701 32.5625 83.2139 32.7625C83.3627 32.9575 83.5561 33.125 83.7941 33.265C84.0371 33.405 84.3098 33.5275 84.6123 33.6325C84.9197 33.7325 85.2321 33.8375 85.5495 33.9475C85.8718 34.0575 86.1842 34.1825 86.4867 34.3225C86.7941 34.4575 87.0668 34.63 87.3048 34.84C87.5478 35.05 87.7412 35.3075 87.885 35.6125C88.0338 35.9175 88.1081 36.2925 88.1081 36.7375C88.1081 37.2075 88.0288 37.65 87.8701 38.065C87.7114 38.475 87.4784 38.8325 87.171 39.1375C86.8685 39.4425 86.4941 39.6825 86.0478 39.8575C85.6065 40.0325 85.1032 40.12 84.5379 40.12C83.8437 40.12 83.2139 39.995 82.6486 39.745C82.0834 39.49 81.5999 39.1475 81.1982 38.7175L81.6148 38.0275C81.6544 37.9725 81.7015 37.9275 81.7561 37.8925C81.8156 37.8525 81.8801 37.8325 81.9495 37.8325C82.0139 37.8325 82.0858 37.86 82.1652 37.915C82.2495 37.965 82.3437 38.03 82.4478 38.11C82.552 38.19 82.671 38.2775 82.8048 38.3725C82.9387 38.4675 83.09 38.555 83.2586 38.635C83.4321 38.715 83.628 38.7825 83.8462 38.8375C84.0643 38.8875 84.3098 38.9125 84.5825 38.9125C84.9247 38.9125 85.2296 38.865 85.4974 38.77C85.7652 38.675 85.9908 38.5425 86.1743 38.3725C86.3627 38.1975 86.5065 37.99 86.6057 37.75C86.7048 37.51 86.7544 37.2425 86.7544 36.9475C86.7544 36.6225 86.68 36.3575 86.5313 36.1525C86.3875 35.9425 86.1966 35.7675 85.9586 35.6275C85.7205 35.4875 85.4478 35.37 85.1404 35.275C84.8329 35.175 84.5205 35.075 84.2032 34.975C83.8858 34.87 83.5734 34.75 83.266 34.615C82.9586 34.48 82.6858 34.305 82.4478 34.09C82.2098 33.875 82.0164 33.6075 81.8676 33.2875C81.7238 32.9625 81.6519 32.5625 81.6519 32.0875C81.6519 31.7075 81.7238 31.34 81.8676 30.985C82.0164 30.63 82.2296 30.315 82.5073 30.04C82.79 29.765 83.1346 29.545 83.5412 29.38C83.9528 29.215 84.4239 29.1325 84.9544 29.1325C85.5495 29.1325 86.09 29.2275 86.5759 29.4175C87.0668 29.6075 87.4982 29.8825 87.8701 30.2425L87.5205 30.9325Z" fill="white"/>
<path d="M97.3531 30.475H93.9019V40H92.4664V30.475H89.0077V29.2525H97.3531V30.475Z" fill="white"/>
<path d="M100.378 40H98.9348V29.2525H100.378V40Z" fill="white"/>
<path d="M110.587 37.78C110.666 37.78 110.736 37.8125 110.795 37.8775L111.368 38.5C110.931 39.01 110.401 39.4075 109.776 39.6925C109.156 39.9775 108.405 40.12 107.522 40.12C106.759 40.12 106.064 39.9875 105.44 39.7225C104.815 39.4525 104.282 39.0775 103.84 38.5975C103.399 38.1125 103.057 37.5325 102.814 36.8575C102.571 36.1825 102.45 35.44 102.45 34.63C102.45 33.82 102.576 33.0775 102.829 32.4025C103.082 31.7275 103.436 31.1475 103.893 30.6625C104.354 30.1775 104.904 29.8025 105.544 29.5375C106.183 29.2675 106.89 29.1325 107.664 29.1325C108.422 29.1325 109.092 29.255 109.672 29.5C110.252 29.745 110.763 30.0775 111.204 30.4975L110.728 31.165C110.698 31.215 110.659 31.2575 110.609 31.2925C110.564 31.3225 110.502 31.3375 110.423 31.3375C110.334 31.3375 110.225 31.29 110.096 31.195C109.967 31.095 109.798 30.985 109.59 30.865C109.382 30.745 109.121 30.6375 108.809 30.5425C108.497 30.4425 108.112 30.3925 107.656 30.3925C107.106 30.3925 106.602 30.49 106.146 30.685C105.69 30.875 105.296 31.1525 104.964 31.5175C104.636 31.8825 104.381 32.3275 104.198 32.8525C104.014 33.3775 103.922 33.97 103.922 34.63C103.922 35.3 104.017 35.8975 104.205 36.4225C104.398 36.9475 104.659 37.3925 104.986 37.7575C105.318 38.1175 105.707 38.3925 106.154 38.5825C106.605 38.7725 107.091 38.8675 107.612 38.8675C107.929 38.8675 108.214 38.85 108.467 38.815C108.725 38.775 108.96 38.715 109.174 38.635C109.392 38.555 109.593 38.455 109.776 38.335C109.964 38.21 110.15 38.0625 110.334 37.8925C110.418 37.8175 110.502 37.78 110.587 37.78Z" fill="white"/>
<path d="M118.493 30.9325C118.448 31.0075 118.399 31.065 118.344 31.105C118.295 31.14 118.233 31.1575 118.158 31.1575C118.074 31.1575 117.975 31.115 117.861 31.03C117.747 30.945 117.603 30.8525 117.429 30.7525C117.261 30.6475 117.055 30.5525 116.812 30.4675C116.574 30.3825 116.284 30.34 115.942 30.34C115.619 30.34 115.334 30.385 115.086 30.475C114.843 30.56 114.638 30.6775 114.469 30.8275C114.305 30.9775 114.181 31.155 114.097 31.36C114.013 31.56 113.971 31.7775 113.971 32.0125C113.971 32.3125 114.042 32.5625 114.186 32.7625C114.335 32.9575 114.528 33.125 114.766 33.265C115.009 33.405 115.282 33.5275 115.585 33.6325C115.892 33.7325 116.204 33.8375 116.522 33.9475C116.844 34.0575 117.157 34.1825 117.459 34.3225C117.766 34.4575 118.039 34.63 118.277 34.84C118.52 35.05 118.714 35.3075 118.857 35.6125C119.006 35.9175 119.081 36.2925 119.081 36.7375C119.081 37.2075 119.001 37.65 118.842 38.065C118.684 38.475 118.451 38.8325 118.143 39.1375C117.841 39.4425 117.466 39.6825 117.02 39.8575C116.579 40.0325 116.076 40.12 115.51 40.12C114.816 40.12 114.186 39.995 113.621 39.745C113.056 39.49 112.572 39.1475 112.171 38.7175L112.587 38.0275C112.627 37.9725 112.674 37.9275 112.728 37.8925C112.788 37.8525 112.852 37.8325 112.922 37.8325C112.986 37.8325 113.058 37.86 113.138 37.915C113.222 37.965 113.316 38.03 113.42 38.11C113.524 38.19 113.643 38.2775 113.777 38.3725C113.911 38.4675 114.062 38.555 114.231 38.635C114.404 38.715 114.6 38.7825 114.819 38.8375C115.037 38.8875 115.282 38.9125 115.555 38.9125C115.897 38.9125 116.202 38.865 116.47 38.77C116.738 38.675 116.963 38.5425 117.147 38.3725C117.335 38.1975 117.479 37.99 117.578 37.75C117.677 37.51 117.727 37.2425 117.727 36.9475C117.727 36.6225 117.652 36.3575 117.504 36.1525C117.36 35.9425 117.169 35.7675 116.931 35.6275C116.693 35.4875 116.42 35.37 116.113 35.275C115.805 35.175 115.493 35.075 115.176 34.975C114.858 34.87 114.546 34.75 114.238 34.615C113.931 34.48 113.658 34.305 113.42 34.09C113.182 33.875 112.989 33.6075 112.84 33.2875C112.696 32.9625 112.624 32.5625 112.624 32.0875C112.624 31.7075 112.696 31.34 112.84 30.985C112.989 30.63 113.202 30.315 113.48 30.04C113.762 29.765 114.107 29.545 114.514 29.38C114.925 29.215 115.396 29.1325 115.927 29.1325C116.522 29.1325 117.062 29.2275 117.548 29.4175C118.039 29.6075 118.471 29.8825 118.842 30.2425L118.493 30.9325Z" fill="white"/>
<path fill-rule="evenodd" clip-rule="evenodd" d="M18.1013 9.99626L23.8017 0L29.502 9.99626C27.7215 9.35137 25.8023 9 23.8017 9C21.801 9 19.8818 9.35137 18.1013 9.99626ZM7.21832 29.0809L0.991736 40H14.235C10.6275 37.4888 8.03816 33.5966 7.21832 29.0809ZM33.3683 40H46.6116L40.385 29.0809C39.5651 33.5966 36.9758 37.4888 33.3683 40Z" fill="white"/>
<path fill-rule="evenodd" clip-rule="evenodd" d="M35.0763 19.3178C34.0997 17.3506 32.0823 16 29.7521 16C26.4657 16 23.8017 18.6863 23.8017 22C23.8017 24.1846 24.9595 26.0965 26.6902 27.1458L15.5142 28.7869C14.4808 27.1058 13.8843 25.1232 13.8843 23C13.8843 16.9249 18.7685 12 24.7934 12C29.5375 12 33.5744 15.0536 35.0763 19.3178Z" fill="white"/>
<path fill-rule="evenodd" clip-rule="evenodd" d="M32.883 36.5903C30.5545 38.1146 27.7765 39 24.7934 39C16.9166 39 10.4697 32.8271 9.95103 25.0173C9.9287 25.3419 9.91736 25.6696 9.91736 26C9.91736 33.7319 16.1336 40 23.8017 40C27.2739 40 30.4485 38.7147 32.883 36.5903Z" fill="white"/>
<path fill-rule="evenodd" clip-rule="evenodd" d="M37.4201 27H34.6817L38.5678 16.3359H40.3038H40.972L44.8799 27H42.1342L41.5226 25.0078H38.03L37.4201 27ZM39.7738 19.3116L38.6377 23.0229H40.9132L39.7738 19.3116Z" fill="white"/>
<path fill-rule="evenodd" clip-rule="evenodd" d="M50.1606 16.3359H54.3227C55.1362 16.3359 55.8432 16.458 56.4437 16.7021C57.0442 16.9463 57.5066 17.3076 57.8311 17.7861C58.1603 18.2646 58.325 18.8555 58.325 19.5586C58.325 20.1689 58.2306 20.6792 58.0417 21.0894C57.8528 21.4995 57.5889 21.8389 57.25 22.1074C57.0188 22.2898 56.7611 22.45 56.4766 22.588L58.6809 26.8901V27H55.9498L54.083 23.2353H52.7102V27H50.1606V16.3359ZM54.3227 21.2505H52.7102V18.3208H54.3227C54.6375 18.3208 54.9014 18.3794 55.1144 18.4966C55.3324 18.6138 55.497 18.7822 55.6084 19.002C55.7197 19.2217 55.7754 19.4853 55.7754 19.793C55.7754 20.0957 55.7197 20.3569 55.6084 20.5767C55.5018 20.7915 55.342 20.9575 55.129 21.0747C54.9159 21.1919 54.6471 21.2505 54.3227 21.2505Z" fill="white"/>
<path d="M67.4066 27H64.8571V18.3208H61.7482V16.3359H64.8571H67.4066H70.5881V18.3208H67.4066V27Z" fill="white"/>
<path fill-rule="evenodd" clip-rule="evenodd" d="M0 47C0 45.8954 0.88803 45 1.98347 45H118.017C119.112 45 120 45.8954 120 47V58C120 59.1046 119.112 60 118.017 60H1.98347C0.888028 60 0 59.1046 0 58V47ZM16.2456 52.4837C16.291 52.3926 16.3439 52.3082 16.4044 52.2305C16.5103 52.0977 16.6355 51.9935 16.7802 51.918C16.9274 51.8424 17.0901 51.8047 17.2683 51.8047C17.4491 51.8047 17.6014 51.8359 17.7254 51.8984C17.8494 51.9583 17.9436 52.056 18.0082 52.1914C18.0728 52.3242 18.1051 52.5013 18.1051 52.7227V55.5H18.8256V52.7305C18.8256 52.4518 18.7946 52.2161 18.7326 52.0234C18.6707 51.8281 18.5803 51.6693 18.4615 51.5469C18.3452 51.4245 18.2045 51.3359 18.0392 51.2812C17.8739 51.224 17.688 51.1953 17.4814 51.1953C17.2283 51.1953 16.9971 51.2461 16.7879 51.3477C16.5813 51.4466 16.4031 51.5872 16.2533 51.7695C16.2452 51.7793 16.2373 51.7893 16.2294 51.7993L16.2068 51.2734H15.5289V55.5H16.2456V52.4837ZM22.5044 55.0435C22.3682 55.2158 22.2015 55.3484 22.0043 55.4414C21.8054 55.5325 21.573 55.5781 21.307 55.5781C21.0616 55.5781 20.8369 55.5247 20.6329 55.418C20.4315 55.3112 20.2571 55.1615 20.1099 54.9687C19.9653 54.776 19.8529 54.5495 19.7729 54.2891C19.6954 54.026 19.6567 53.7409 19.6567 53.4336V53.3516C19.6567 53.0286 19.6954 52.7357 19.7729 52.4727C19.8529 52.207 19.9653 51.9792 20.1099 51.7891C20.2571 51.599 20.4315 51.4531 20.6329 51.3516C20.8369 51.2474 21.0642 51.1953 21.3147 51.1953C21.5781 51.1953 21.808 51.2422 22.0043 51.3359C22.1884 51.4203 22.3459 51.5415 22.4769 51.6996V49.5H23.1975V55.5H22.5389L22.5044 55.0435ZM22.2987 52.1523C22.3682 52.2302 22.4276 52.3168 22.4769 52.4121V54.3451L22.465 54.3679L22.4529 54.3904L22.442 54.4102C22.3491 54.5768 22.2251 54.7109 22.0701 54.8125C21.9178 54.9141 21.7228 54.9648 21.4852 54.9648C21.2915 54.9648 21.1249 54.9258 20.9854 54.8477C20.846 54.7669 20.731 54.6562 20.6406 54.5156C20.5503 54.375 20.4831 54.2122 20.4392 54.0273C20.3979 53.8424 20.3772 53.6445 20.3772 53.4336V53.3516C20.3772 53.1406 20.3979 52.9427 20.4392 52.7578C20.4831 52.5703 20.5503 52.4062 20.6406 52.2656C20.731 52.1224 20.846 52.0104 20.9854 51.9297C21.1275 51.8464 21.2966 51.8047 21.4929 51.8047C21.6737 51.8047 21.83 51.8359 21.9617 51.8984C22.096 51.9609 22.2083 52.0456 22.2987 52.1523ZM14.5429 49.8125H13.7991V53.6602C13.7991 53.957 13.7448 54.2018 13.6364 54.3945C13.5279 54.5872 13.3755 54.7305 13.1792 54.8242C12.9855 54.918 12.7583 54.9648 12.4974 54.9648C12.2392 54.9648 12.0119 54.918 11.8156 54.8242C11.6219 54.7305 11.4708 54.5872 11.3623 54.3945C11.2539 54.2018 11.1996 53.957 11.1996 53.6602V49.8125H10.4597V53.6602C10.4597 54.0872 10.5488 54.4427 10.727 54.7266C10.9078 55.0104 11.1519 55.224 11.4592 55.3672C11.7691 55.5078 12.1152 55.5781 12.4974 55.5781C12.8616 55.5781 13.1986 55.5078 13.5085 55.3672C13.821 55.224 14.0715 55.0104 14.2601 54.7266C14.4486 54.4427 14.5429 54.0872 14.5429 53.6602V49.8125ZM25.1791 55.4297C25.4167 55.5286 25.6814 55.5781 25.9732 55.5781C26.2496 55.5781 26.4885 55.5391 26.6899 55.4609C26.894 55.3828 27.0657 55.2812 27.2052 55.1562C27.3446 55.0312 27.4596 54.8997 27.5499 54.7617L27.1161 54.4141C26.9843 54.5885 26.8307 54.7279 26.6551 54.832C26.4794 54.9362 26.2651 54.9883 26.012 54.9883C25.8157 54.9883 25.6401 54.9505 25.4851 54.875C25.3327 54.7995 25.2023 54.6953 25.0939 54.5625C24.988 54.4297 24.9066 54.276 24.8498 54.1016C24.8005 53.9407 24.7736 53.7701 24.7691 53.5898H27.6042V53.2656C27.6042 52.9687 27.5706 52.6953 27.5035 52.4453C27.4363 52.1927 27.333 51.974 27.1935 51.7891C27.0541 51.6016 26.8746 51.4557 26.6551 51.3516C26.4381 51.2474 26.1799 51.1953 25.8803 51.1953C25.6452 51.1953 25.418 51.2435 25.1985 51.3398C24.9789 51.4362 24.7826 51.5781 24.6096 51.7656C24.4366 51.9531 24.2997 52.1823 24.199 52.4531C24.0982 52.7214 24.0479 53.0273 24.0479 53.3711V53.5352C24.0479 53.832 24.0931 54.1055 24.1835 54.3555C24.2739 54.6055 24.403 54.8216 24.5709 55.0039C24.7413 55.1862 24.9441 55.3281 25.1791 55.4297ZM24.7901 53H26.8875V52.9453C26.8772 52.7578 26.8384 52.5755 26.7713 52.3984C26.7067 52.2214 26.6034 52.0755 26.4614 51.9609C26.3193 51.8464 26.1256 51.7891 25.8803 51.7891C25.7176 51.7891 25.5678 51.8242 25.4309 51.8945C25.294 51.9622 25.1765 52.0638 25.0784 52.1992C24.9802 52.3346 24.904 52.5 24.8498 52.6953C24.8235 52.7899 24.8036 52.8914 24.7901 53ZM29.0783 55.5V52.4952C29.1286 52.3769 29.1945 52.2744 29.2759 52.1875C29.3637 52.0937 29.4709 52.0208 29.5974 51.9687C29.724 51.9167 29.8699 51.8906 30.0352 51.8906C30.1023 51.8906 30.1617 51.8932 30.2134 51.8984C30.2676 51.901 30.3244 51.9089 30.3838 51.9219L30.3877 51.25C30.3619 51.237 30.3154 51.2253 30.2482 51.2148C30.1811 51.2018 30.1217 51.1953 30.07 51.1953C29.8428 51.1953 29.6465 51.2448 29.4812 51.3437C29.3185 51.4401 29.1842 51.5755 29.0783 51.75L29.0731 51.7585L29.0589 51.2734H28.3616V55.5H29.0783ZM33.3417 54.0898C33.3882 54.1784 33.4114 54.2747 33.4114 54.3789C33.4114 54.4961 33.3765 54.6003 33.3068 54.6914C33.2371 54.7825 33.1351 54.8542 33.0008 54.9062C32.8691 54.9583 32.7051 54.9844 32.5088 54.9844C32.3616 54.9844 32.2131 54.9609 32.0633 54.9141C31.9135 54.8646 31.7869 54.7825 31.6836 54.668C31.5803 54.5508 31.5235 54.3932 31.5132 54.1953H30.7926C30.7926 54.4297 30.8585 54.6523 30.9902 54.8633C31.1219 55.0742 31.3156 55.2461 31.5713 55.3789C31.827 55.5117 32.1395 55.5781 32.5088 55.5781C32.7541 55.5781 32.9749 55.5482 33.1712 55.4883C33.3701 55.4258 33.5405 55.3398 33.6826 55.2305C33.8272 55.1185 33.937 54.9857 34.0119 54.832C34.0894 54.6784 34.1281 54.5091 34.1281 54.3242C34.1281 54.0977 34.0739 53.9049 33.9654 53.7461C33.8569 53.5872 33.6916 53.4531 33.4695 53.3437C33.2474 53.2344 32.9646 53.1406 32.6211 53.0625C32.4248 53.0182 32.2634 52.974 32.1369 52.9297C32.0103 52.8854 31.9122 52.8385 31.8425 52.7891C31.7727 52.737 31.7237 52.681 31.6952 52.6211C31.6694 52.5586 31.6565 52.4883 31.6565 52.4102C31.6565 52.306 31.6836 52.207 31.7379 52.1133C31.7947 52.0195 31.8838 51.9427 32.0052 51.8828C32.1291 51.8203 32.2905 51.7891 32.4894 51.7891C32.6779 51.7891 32.8368 51.8255 32.9659 51.8984C33.0976 51.9714 33.1971 52.0638 33.2642 52.1758C33.3339 52.2852 33.3688 52.3984 33.3688 52.5156H34.0855C34.0855 52.2734 34.0222 52.0534 33.8957 51.8555C33.7691 51.6549 33.587 51.4948 33.3494 51.375C33.1118 51.2552 32.8252 51.1953 32.4894 51.1953C32.2544 51.1953 32.0413 51.2279 31.8502 51.293C31.6591 51.3581 31.4951 51.4479 31.3582 51.5625C31.2239 51.6771 31.1193 51.8086 31.0444 51.957C30.9721 52.1055 30.9359 52.263 30.9359 52.4297C30.9359 52.6042 30.9708 52.7565 31.0405 52.8867C31.1103 53.0169 31.2097 53.1302 31.3388 53.2266C31.4706 53.3229 31.6294 53.4049 31.8153 53.4727C32.0039 53.5404 32.2144 53.599 32.4468 53.6484C32.7231 53.7031 32.9297 53.7682 33.0666 53.8437C33.2061 53.9167 33.2978 53.9987 33.3417 54.0898ZM35.9625 51.8281H36.745V51.2734H35.9625V50.2461H35.2458V51.2734H34.4788V51.8281H35.2458V54.4492C35.2458 54.7305 35.2884 54.9544 35.3737 55.1211C35.4615 55.2852 35.579 55.4023 35.7262 55.4727C35.8734 55.543 36.0348 55.5781 36.2104 55.5781C36.3396 55.5781 36.4493 55.569 36.5397 55.5508C36.6327 55.5352 36.7076 55.5182 36.7644 55.5L36.7605 54.9102C36.727 54.918 36.6766 54.9284 36.6095 54.9414C36.5449 54.9518 36.4829 54.957 36.4235 54.957C36.3434 54.957 36.2685 54.9453 36.1988 54.9219C36.1291 54.8984 36.0723 54.8503 36.0284 54.7773C35.9845 54.7044 35.9625 54.5964 35.9625 54.4531V51.8281ZM39.9779 54.3117V53.4453H39.3852C39.1812 53.4453 38.9991 53.4622 38.839 53.4961C38.6789 53.5273 38.5446 53.5755 38.4361 53.6406C38.3276 53.7057 38.245 53.7878 38.1882 53.8867C38.1314 53.9831 38.1029 54.0964 38.1029 54.2266C38.1029 54.3594 38.1326 54.4805 38.192 54.5898C38.2514 54.6992 38.3405 54.7865 38.4594 54.8516C38.5807 54.9141 38.7292 54.9453 38.9049 54.9453C39.1244 54.9453 39.3181 54.8984 39.486 54.8047C39.6538 54.7109 39.7868 54.5964 39.885 54.4609C39.9224 54.4106 39.9534 54.3609 39.9779 54.3117ZM39.9779 52.9375V52.6016C39.9779 52.4349 39.9444 52.2904 39.8772 52.168C39.8127 52.043 39.7145 51.9466 39.5828 51.8789C39.4511 51.8112 39.2884 51.7773 39.0947 51.7773C38.9139 51.7773 38.7551 51.8086 38.6182 51.8711C38.4839 51.9336 38.378 52.0156 38.3005 52.1172C38.2256 52.2187 38.1882 52.3281 38.1882 52.4453H37.4715C37.4715 52.2943 37.5102 52.1445 37.5877 51.9961C37.6652 51.8477 37.7762 51.7135 37.9209 51.5937C38.0681 51.4714 38.2437 51.375 38.4477 51.3047C38.6543 51.2318 38.8842 51.1953 39.1373 51.1953C39.442 51.1953 39.7106 51.2474 39.9431 51.3516C40.1781 51.4557 40.3615 51.6133 40.4932 51.8242C40.6275 52.0326 40.6946 52.2943 40.6946 52.6094V54.5781C40.6946 54.7187 40.7063 54.8685 40.7295 55.0273C40.7553 55.1862 40.7928 55.3229 40.8418 55.4375V55.5H40.0942C40.058 55.4167 40.0296 55.306 40.0089 55.168L40.0052 55.142L40.0015 55.1145L39.997 55.0781L39.9941 55.0532C39.96 55.0893 39.9236 55.125 39.885 55.1602C39.7533 55.2799 39.5957 55.3802 39.4123 55.4609C39.2316 55.5391 39.0275 55.5781 38.8003 55.5781C38.5162 55.5781 38.2669 55.5221 38.0526 55.4102C37.8408 55.2982 37.6755 55.1484 37.5567 54.9609C37.4405 54.7708 37.3824 54.5586 37.3824 54.3242C37.3824 54.0977 37.4263 53.8984 37.5141 53.7266C37.6019 53.5521 37.7285 53.4075 37.8938 53.293C38.059 53.1758 38.2579 53.0872 38.4903 53.0273C38.7228 52.9674 38.9823 52.9375 39.269 52.9375H39.9779ZM42.4593 52.4837V55.5H41.7426V51.2734H42.4206L42.4431 51.7993C42.451 51.7893 42.459 51.7793 42.467 51.7695C42.6168 51.5872 42.795 51.4466 43.0017 51.3477C43.2108 51.2461 43.442 51.1953 43.6951 51.1953C43.9017 51.1953 44.0877 51.224 44.2529 51.2812C44.4182 51.3359 44.559 51.4245 44.6752 51.5469C44.794 51.6693 44.8844 51.8281 44.9464 52.0234C45.0084 52.2161 45.0394 52.4518 45.0394 52.7305V55.5H44.3188V52.7227C44.3188 52.5013 44.2865 52.3242 44.222 52.1914C44.1574 52.056 44.0631 51.9583 43.9392 51.8984C43.8152 51.8359 43.6628 51.8047 43.482 51.8047C43.3038 51.8047 43.1411 51.8424 42.9939 51.918C42.8493 51.9935 42.724 52.0977 42.6181 52.2305C42.5577 52.3082 42.5047 52.3926 42.4593 52.4837ZM48.6906 52.4121V54.3451L48.6761 54.3729L48.6695 54.3851L48.6558 54.4102C48.5628 54.5768 48.4388 54.7109 48.2839 54.8125C48.1315 54.9141 47.9365 54.9648 47.6989 54.9648C47.5052 54.9648 47.3386 54.9258 47.1992 54.8477C47.0597 54.7669 46.9448 54.6562 46.8544 54.5156C46.764 54.375 46.6968 54.2122 46.6529 54.0273C46.6116 53.8424 46.591 53.6445 46.591 53.4336V53.3516C46.591 53.1406 46.6116 52.9427 46.6529 52.7578C46.6968 52.5703 46.764 52.4062 46.8544 52.2656C46.9448 52.1224 47.0597 52.0104 47.1992 51.9297C47.3412 51.8464 47.5104 51.8047 47.7067 51.8047C47.8874 51.8047 48.0437 51.8359 48.1754 51.8984C48.3097 51.9609 48.4221 52.0456 48.5124 52.1523C48.5819 52.2302 48.6413 52.3168 48.6906 52.4121ZM48.6906 51.6996C48.5597 51.5415 48.4021 51.4203 48.218 51.3359C48.0217 51.2422 47.7919 51.1953 47.5285 51.1953C47.2779 51.1953 47.0507 51.2474 46.8466 51.3516C46.6452 51.4531 46.4709 51.599 46.3237 51.7891C46.179 51.9792 46.0667 52.207 45.9866 52.4727C45.9091 52.7357 45.8704 53.0286 45.8704 53.3516V53.4336C45.8704 53.7409 45.9091 54.026 45.9866 54.2891C46.0667 54.5495 46.179 54.776 46.3237 54.9687C46.4709 55.1615 46.6452 55.3112 46.8466 55.418C47.0507 55.5247 47.2754 55.5781 47.5207 55.5781C47.7867 55.5781 48.0192 55.5325 48.218 55.4414C48.4152 55.3484 48.5819 55.2158 48.7181 55.0435L48.7526 55.5H49.4112V49.5H48.6906V51.6996ZM57.3395 54.0625C57.3395 53.9297 57.3189 53.8125 57.2775 53.7109C57.2388 53.6068 57.1691 53.513 57.0683 53.4297C56.9702 53.3464 56.8333 53.2669 56.6577 53.1914C56.4847 53.1159 56.2651 53.0391 55.9991 52.9609C55.7202 52.8776 55.4684 52.7852 55.2437 52.6836C55.019 52.5794 54.8266 52.4609 54.6665 52.3281C54.5064 52.1953 54.3837 52.043 54.2985 51.8711C54.2132 51.6992 54.1706 51.5026 54.1706 51.2812C54.1706 51.0599 54.2158 50.8555 54.3062 50.668C54.3966 50.4805 54.5257 50.3177 54.6936 50.1797C54.864 50.0391 55.0668 49.9297 55.3018 49.8516C55.5368 49.7734 55.799 49.7344 56.0882 49.7344C56.5118 49.7344 56.8708 49.8164 57.1652 49.9805C57.4622 50.1419 57.6882 50.3542 57.8431 50.6172C57.9981 50.8776 58.0756 51.1562 58.0756 51.4531H57.3318C57.3318 51.2396 57.2866 51.0508 57.1962 50.8867C57.1058 50.7201 56.9689 50.5898 56.7855 50.4961C56.6022 50.3997 56.3697 50.3516 56.0882 50.3516C55.8222 50.3516 55.6027 50.3919 55.4296 50.4727C55.2566 50.5534 55.1275 50.6628 55.0423 50.8008C54.9596 50.9388 54.9183 51.0964 54.9183 51.2734C54.9183 51.3932 54.9428 51.5026 54.9919 51.6016C55.0435 51.6979 55.1223 51.7878 55.2282 51.8711C55.3367 51.9544 55.4736 52.0312 55.6388 52.1016C55.8067 52.1719 56.0069 52.2396 56.2393 52.3047C56.5596 52.3958 56.8359 52.4974 57.0683 52.6094C57.3008 52.7214 57.4919 52.8477 57.6417 52.9883C57.7941 53.1263 57.9064 53.2839 57.9787 53.4609C58.0536 53.6354 58.0911 53.8333 58.0911 54.0547C58.0911 54.2865 58.0446 54.4961 57.9516 54.6836C57.8586 54.8711 57.7256 55.0312 57.5526 55.1641C57.3795 55.2969 57.1716 55.3997 56.9289 55.4727C56.6887 55.543 56.4201 55.5781 56.1231 55.5781C55.8622 55.5781 55.6053 55.5417 55.3522 55.4687C55.1017 55.3958 54.8731 55.2865 54.6665 55.1406C54.4624 54.9948 54.2985 54.8151 54.1745 54.6016C54.0531 54.3854 53.9924 54.1354 53.9924 53.8516H54.7362C54.7362 54.0469 54.7737 54.2148 54.8486 54.3555C54.9235 54.4935 55.0255 54.6081 55.1546 54.6992C55.2863 54.7904 55.4348 54.8581 55.6001 54.9023C55.768 54.944 55.9423 54.9648 56.1231 54.9648C56.3839 54.9648 56.6048 54.9284 56.7855 54.8555C56.9663 54.7825 57.1032 54.6784 57.1962 54.543C57.2917 54.4075 57.3395 54.2474 57.3395 54.0625ZM58.9647 49.8555C58.895 49.9362 58.8601 50.0352 58.8601 50.1523C58.8601 50.2643 58.895 50.3607 58.9647 50.4414C59.037 50.5195 59.1429 50.5586 59.2824 50.5586C59.4193 50.5586 59.5239 50.5195 59.5962 50.4414C59.6711 50.3607 59.7085 50.2643 59.7085 50.1523C59.7085 50.0352 59.6711 49.9362 59.5962 49.8555C59.5239 49.7747 59.4193 49.7344 59.2824 49.7344C59.1429 49.7344 59.037 49.7747 58.9647 49.8555ZM59.6349 51.2734V55.5H58.9144V51.2734H59.6349ZM61.419 52.4034V55.5H60.6984V51.2734H61.3802L61.4014 51.7335C61.5383 51.5686 61.7056 51.44 61.9032 51.3477C62.115 51.2461 62.3603 51.1953 62.6393 51.1953C62.8355 51.1953 63.0163 51.224 63.1816 51.2812C63.3469 51.3359 63.4902 51.4232 63.6116 51.543C63.7031 51.6332 63.7791 51.7427 63.8398 51.8714C63.8714 51.8255 63.9051 51.7811 63.9409 51.7383C64.083 51.5716 64.2573 51.4401 64.4639 51.3437C64.6705 51.2448 64.9068 51.1953 65.1728 51.1953C65.3975 51.1953 65.5964 51.2253 65.7694 51.2852C65.945 51.3451 66.0923 51.4375 66.2111 51.5625C66.3324 51.6849 66.4241 51.8424 66.4861 52.0352C66.5481 52.2279 66.5791 52.457 66.5791 52.7227V55.5H65.8585V52.7148C65.8585 52.4779 65.8211 52.2943 65.7462 52.1641C65.6739 52.0312 65.5706 51.9388 65.4363 51.8867C65.3046 51.832 65.147 51.8047 64.9636 51.8047C64.8061 51.8047 64.6666 51.832 64.5452 51.8867C64.4239 51.9414 64.3218 52.0169 64.2392 52.1133C64.1566 52.207 64.0933 52.3151 64.0494 52.4375C64.0227 52.5166 64.0046 52.599 63.9951 52.6847V55.5H63.2785V52.7187C63.2785 52.4974 63.241 52.3203 63.1661 52.1875C63.0938 52.0547 62.9905 51.9583 62.8562 51.8984C62.7219 51.8359 62.5644 51.8047 62.3836 51.8047C62.1718 51.8047 61.9949 51.8424 61.8528 51.918C61.7108 51.9935 61.5972 52.0977 61.5119 52.2305C61.477 52.2848 61.4461 52.3425 61.419 52.4034ZM68.3011 57.125V55.09C68.4379 55.2439 68.6019 55.3623 68.7931 55.4453C68.9972 55.5339 69.2322 55.5781 69.4982 55.5781C69.759 55.5781 69.9902 55.5247 70.1916 55.418C70.3931 55.3112 70.5622 55.1615 70.6991 54.9687C70.8386 54.776 70.9445 54.5495 71.0168 54.2891C71.0891 54.026 71.1253 53.7409 71.1253 53.4336V53.3516C71.1253 53.0286 71.0891 52.7357 71.0168 52.4727C70.9471 52.207 70.8425 51.9792 70.703 51.7891C70.5635 51.599 70.3918 51.4531 70.1878 51.3516C69.9837 51.2474 69.75 51.1953 69.4866 51.1953C69.2231 51.1953 68.9907 51.2422 68.7893 51.3359C68.5881 51.427 68.416 51.5615 68.274 51.7383L68.2392 51.2734H67.5806V57.125H68.3011ZM68.3283 54.4531C68.319 54.4371 68.31 54.4209 68.3011 54.4047V52.3869C68.3489 52.3015 68.4044 52.2233 68.4677 52.1523C68.5607 52.0456 68.673 51.9609 68.8048 51.8984C68.939 51.8359 69.0966 51.8047 69.2774 51.8047C69.4737 51.8047 69.6428 51.8464 69.7849 51.9297C69.9269 52.0104 70.0431 52.1224 70.1335 52.2656C70.2265 52.4062 70.2949 52.5703 70.3388 52.7578C70.3828 52.9427 70.4047 53.1406 70.4047 53.3516V53.4336C70.4047 53.6445 70.3828 53.8437 70.3388 54.0312C70.2949 54.2161 70.2265 54.3802 70.1335 54.5234C70.0431 54.6667 69.9269 54.7799 69.7849 54.8633C69.6454 54.944 69.4788 54.9844 69.2851 54.9844C69.0501 54.9844 68.8551 54.9362 68.7002 54.8398C68.5452 54.7409 68.4212 54.612 68.3283 54.4531ZM72.7388 49.5V55.5H72.0183V49.5H72.7388ZM73.9185 49.8555C73.8488 49.9362 73.8139 50.0352 73.8139 50.1523C73.8139 50.2643 73.8488 50.3607 73.9185 50.4414C73.9909 50.5195 74.0967 50.5586 74.2362 50.5586C74.3731 50.5586 74.4777 50.5195 74.55 50.4414C74.6249 50.3607 74.6623 50.2643 74.6623 50.1523C74.6623 50.0352 74.6249 49.9362 74.55 49.8555C74.4777 49.7747 74.3731 49.7344 74.2362 49.7344C74.0967 49.7344 73.9909 49.7747 73.9185 49.8555ZM74.5887 51.2734V55.5H73.8682V51.2734H74.5887ZM76.0125 51.8281H75.35V51.2734H76.0125V50.8281C76.0125 50.5234 76.0667 50.2669 76.1752 50.0586C76.2863 49.8477 76.4451 49.6888 76.6517 49.582C76.8583 49.4727 77.1037 49.418 77.3878 49.418C77.4704 49.418 77.553 49.4232 77.6357 49.4336C77.7209 49.444 77.8036 49.4596 77.8836 49.4805L77.8449 50.0703C77.7906 50.0573 77.7287 50.0482 77.6589 50.043C77.5918 50.0378 77.5246 50.0352 77.4575 50.0352C77.3051 50.0352 77.1734 50.0664 77.0623 50.1289C76.9539 50.1888 76.8712 50.2773 76.8144 50.3945C76.7576 50.5117 76.7292 50.6562 76.7292 50.8281V51.2734H77.6202V51.8281H76.7292V55.5H76.0125V51.8281ZM77.8779 51.2734L79.3741 55.4544L79.2183 55.8828C79.1615 56.0573 79.093 56.194 79.013 56.293C78.9355 56.3945 78.8399 56.4661 78.7263 56.5078C78.6127 56.5521 78.4745 56.5742 78.3118 56.5742C78.2937 56.5742 78.2614 56.5716 78.2149 56.5664C78.171 56.5638 78.1387 56.5612 78.1181 56.5586L78.122 57.1445C78.1581 57.1549 78.2201 57.168 78.3079 57.1836C78.3957 57.1992 78.468 57.207 78.5248 57.207C78.716 57.207 78.88 57.1719 79.0168 57.1016C79.1563 57.0339 79.2751 56.9453 79.3732 56.8359C79.4714 56.7266 79.5514 56.6107 79.6134 56.4883C79.678 56.3685 79.7297 56.2565 79.7684 56.1523L81.4497 51.2734H80.6826L79.7095 54.4356L78.6604 51.2734H77.8779ZM86.6507 50.4297V54.8867H87.4294C87.8323 54.8867 88.168 54.8021 88.4366 54.6328C88.7052 54.4609 88.9067 54.2214 89.0409 53.9141C89.1778 53.6042 89.2463 53.2422 89.2463 52.8281V52.4805C89.2463 52.1549 89.2075 51.8659 89.1301 51.6133C89.0526 51.3581 88.9389 51.1432 88.7891 50.9687C88.6394 50.7917 88.456 50.6576 88.239 50.5664C88.0247 50.4753 87.778 50.4297 87.4991 50.4297H86.6507ZM86.2284 49.8125H86.6507H87.4991C87.8684 49.8125 88.2055 49.875 88.5102 50C88.815 50.1224 89.0771 50.3008 89.2966 50.5352C89.5187 50.7669 89.6892 51.0482 89.808 51.3789C89.9268 51.707 89.9862 52.0768 89.9862 52.4883V52.8281C89.9862 53.2396 89.9268 53.6107 89.808 53.9414C89.6892 54.2695 89.5175 54.5495 89.2928 54.7812C89.0707 55.013 88.8021 55.1914 88.487 55.3164C88.1745 55.4388 87.8219 55.5 87.4294 55.5H86.6507H86.2517H85.903V49.8125H86.2284ZM92.6613 55.5781C92.3694 55.5781 92.1047 55.5286 91.8671 55.4297C91.6321 55.3281 91.4293 55.1862 91.2589 55.0039C91.091 54.8216 90.9619 54.6055 90.8715 54.3555C90.7811 54.1055 90.7359 53.832 90.7359 53.5352V53.3711C90.7359 53.0273 90.7863 52.7214 90.887 52.4531C90.9877 52.1823 91.1246 51.9531 91.2976 51.7656C91.4707 51.5781 91.6669 51.4362 91.8865 51.3398C92.106 51.2435 92.3333 51.1953 92.5683 51.1953C92.8679 51.1953 93.1261 51.2474 93.3431 51.3516C93.5626 51.4557 93.7421 51.6016 93.8816 51.7891C94.021 51.974 94.1243 52.1927 94.1915 52.4453C94.2586 52.6953 94.2922 52.9687 94.2922 53.2656V53.5898H91.4571C91.4616 53.7701 91.4885 53.9407 91.5378 54.1016C91.5946 54.276 91.676 54.4297 91.7819 54.5625C91.8903 54.6953 92.0208 54.7995 92.1731 54.875C92.3281 54.9505 92.5037 54.9883 92.7 54.9883C92.9531 54.9883 93.1675 54.9362 93.3431 54.832C93.5187 54.7279 93.6724 54.5885 93.8041 54.4141L94.238 54.7617C94.1476 54.8997 94.0326 55.0312 93.8932 55.1562C93.7537 55.2812 93.582 55.3828 93.3779 55.4609C93.1765 55.5391 92.9376 55.5781 92.6613 55.5781ZM93.5755 53H91.4781C91.4917 52.8914 91.5116 52.7899 91.5378 52.6953C91.592 52.5 91.6682 52.3346 91.7664 52.1992C91.8645 52.0638 91.982 51.9622 92.1189 51.8945C92.2558 51.8242 92.4056 51.7891 92.5683 51.7891C92.8136 51.7891 93.0073 51.8464 93.1494 51.9609C93.2914 52.0755 93.3947 52.2214 93.4593 52.3984C93.5265 52.5755 93.5652 52.7578 93.5755 52.9453V53ZM95.8283 55.5V49.5H95.1077V55.5H95.8283ZM96.9034 50.1523C96.9034 50.0352 96.9383 49.9362 97.008 49.8555C97.0803 49.7747 97.1862 49.7344 97.3257 49.7344C97.4625 49.7344 97.5671 49.7747 97.6395 49.8555C97.7144 49.9362 97.7518 50.0352 97.7518 50.1523C97.7518 50.2643 97.7144 50.3607 97.6395 50.4414C97.5671 50.5195 97.4625 50.5586 97.3257 50.5586C97.1862 50.5586 97.0803 50.5195 97.008 50.4414C96.9383 50.3607 96.9034 50.2643 96.9034 50.1523ZM97.6782 55.5V51.2734H96.9576V55.5H97.6782ZM100.132 54.5117L99.0671 51.2734H98.331L99.8496 55.5H99.9155H100.33H100.396L101.903 51.2734H101.171L100.132 54.5117ZM103.404 55.4297C103.642 55.5286 103.906 55.5781 104.198 55.5781C104.475 55.5781 104.713 55.5391 104.915 55.4609C105.119 55.3828 105.291 55.2812 105.43 55.1562C105.57 55.0312 105.685 54.8997 105.775 54.7617L105.341 54.4141C105.209 54.5885 105.056 54.7279 104.88 54.832C104.704 54.9362 104.49 54.9883 104.237 54.9883C104.041 54.9883 103.865 54.9505 103.71 54.875C103.558 54.7995 103.427 54.6953 103.319 54.5625C103.213 54.4297 103.132 54.276 103.075 54.1016C103.026 53.9407 102.999 53.7701 102.994 53.5898H105.829V53.2656C105.829 52.9687 105.796 52.6953 105.728 52.4453C105.661 52.1927 105.558 51.974 105.419 51.7891C105.279 51.6016 105.1 51.4557 104.88 51.3516C104.663 51.2474 104.405 51.1953 104.105 51.1953C103.87 51.1953 103.643 51.2435 103.423 51.3398C103.204 51.4362 103.008 51.5781 102.835 51.7656C102.662 51.9531 102.525 52.1823 102.424 52.4531C102.323 52.7214 102.273 53.0273 102.273 53.3711V53.5352C102.273 53.832 102.318 54.1055 102.408 54.3555C102.499 54.6055 102.628 54.8216 102.796 55.0039C102.966 55.1862 103.169 55.3281 103.404 55.4297ZM103.015 53C103.029 52.8914 103.049 52.7899 103.075 52.6953C103.129 52.5 103.205 52.3346 103.303 52.1992C103.401 52.0638 103.519 51.9622 103.656 51.8945C103.793 51.8242 103.943 51.7891 104.105 51.7891C104.351 51.7891 104.544 51.8464 104.686 51.9609C104.828 52.0755 104.932 52.2214 104.996 52.3984C105.063 52.5755 105.102 52.7578 105.112 52.9453V53H103.015ZM107.303 52.4952V55.5H106.587V51.2734H107.284L107.298 51.7585L107.303 51.75C107.409 51.5755 107.543 51.4401 107.706 51.3437C107.871 51.2448 108.068 51.1953 108.295 51.1953C108.347 51.1953 108.406 51.2018 108.473 51.2148C108.54 51.2253 108.587 51.237 108.613 51.25L108.609 51.9219C108.549 51.9089 108.493 51.901 108.438 51.8984C108.387 51.8932 108.327 51.8906 108.26 51.8906C108.095 51.8906 107.949 51.9167 107.822 51.9687C107.696 52.0208 107.589 52.0937 107.501 52.1875C107.419 52.2744 107.354 52.377 107.303 52.4952Z" fill="white"/>
</g>
<defs>
<clipPath id="clip0_1615_3133">
<rect width="120" height="45" fill="white"/>
</clipPath>
</defs>
</svg>
