<svg width="134" height="50" viewBox="0 0 134 50" fill="none" xmlns="http://www.w3.org/2000/svg">
<g clip-path="url(#clip0_717_1563)">
<path d="M51.0325 28.7142C51.0325 28.3236 51.173 27.998 51.4542 27.7376C51.7354 27.4718 52.0977 27.3389 52.5411 27.3389C52.9899 27.3389 53.3522 27.4718 53.628 27.7376C53.9092 27.998 54.0498 28.3236 54.0498 28.7142C54.0498 29.1048 53.9092 29.4331 53.628 29.6989C53.3522 29.9593 52.9899 30.0895 52.5411 30.0895C52.0977 30.0895 51.7354 29.9593 51.4542 29.6989C51.173 29.4331 51.0325 29.1048 51.0325 28.7142Z" fill="#263365"/>
<path d="M66.8978 28.7142C66.8978 28.3236 67.0384 27.998 67.3196 27.7376C67.6008 27.4718 67.9631 27.3389 68.4065 27.3389C68.8553 27.3389 69.2176 27.4718 69.4934 27.7376C69.7745 27.998 69.9151 28.3236 69.9151 28.7142C69.9151 29.1048 69.7745 29.4331 69.4934 29.6989C69.2176 29.9593 68.8553 30.0895 68.4065 30.0895C67.9631 30.0895 67.6008 29.9593 67.3196 29.6989C67.0384 29.4331 66.8978 29.1048 66.8978 28.7142Z" fill="#263365"/>
<path d="M77.988 28.7142C77.988 28.3236 78.1286 27.998 78.4098 27.7376C78.6909 27.4718 79.0532 27.3389 79.4966 27.3389C79.9455 27.3389 80.3078 27.4718 80.5835 27.7376C80.8647 27.998 81.0053 28.3236 81.0053 28.7142C81.0053 29.1048 80.8647 29.4331 80.5835 29.6989C80.3078 29.9593 79.9455 30.0895 79.4966 30.0895C79.0532 30.0895 78.6909 29.9593 78.4098 29.6989C78.1286 29.4331 77.988 29.1048 77.988 28.7142Z" fill="#263365"/>
<path d="M60.3222 43.0861V44.4444H53.5695V32.5028H55.1726V43.0861H60.3222Z" fill="#DD054F"/>
<path d="M72.5478 38.4778C72.5478 39.3722 72.4065 40.1944 72.1242 40.9444C71.8418 41.6889 71.4431 42.3306 70.9281 42.8694C70.4132 43.4083 69.793 43.8278 69.0676 44.1278C68.3478 44.4222 67.5504 44.5694 66.6756 44.5694C65.8007 44.5694 65.0033 44.4222 64.2835 44.1278C63.5637 43.8278 62.9463 43.4083 62.4313 42.8694C61.9163 42.3306 61.5177 41.6889 61.2353 40.9444C60.9529 40.1944 60.8117 39.3722 60.8117 38.4778C60.8117 37.5833 60.9529 36.7639 61.2353 36.0194C61.5177 35.2694 61.9163 34.625 62.4313 34.0861C62.9463 33.5417 63.5637 33.1194 64.2835 32.8194C65.0033 32.5194 65.8007 32.3694 66.6756 32.3694C67.5504 32.3694 68.3478 32.5194 69.0676 32.8194C69.793 33.1194 70.4132 33.5417 70.9281 34.0861C71.4431 34.625 71.8418 35.2694 72.1242 36.0194C72.4065 36.7639 72.5478 37.5833 72.5478 38.4778ZM70.8949 38.4778C70.8949 37.7444 70.7952 37.0861 70.5959 36.5028C70.3966 35.9194 70.1142 35.4278 69.7487 35.0278C69.3832 34.6222 68.9403 34.3111 68.4198 34.0944C67.8993 33.8778 67.3179 33.7694 66.6756 33.7694C66.0388 33.7694 65.4602 33.8778 64.9397 34.0944C64.4192 34.3111 63.9734 34.6222 63.6024 35.0278C63.237 35.4278 62.9546 35.9194 62.7552 36.5028C62.5559 37.0861 62.4562 37.7444 62.4562 38.4778C62.4562 39.2111 62.5559 39.8694 62.7552 40.4528C62.9546 41.0306 63.237 41.5222 63.6024 41.9278C63.9734 42.3278 64.4192 42.6361 64.9397 42.8528C65.4602 43.0639 66.0388 43.1694 66.6756 43.1694C67.3179 43.1694 67.8993 43.0639 68.4198 42.8528C68.9403 42.6361 69.3832 42.3278 69.7487 41.9278C70.1142 41.5222 70.3966 41.0306 70.5959 40.4528C70.7952 39.8694 70.8949 39.2111 70.8949 38.4778Z" fill="#DD054F"/>
<path d="M84.5211 38.7028V43.2861C83.923 43.7194 83.2835 44.0444 82.6024 44.2611C81.9269 44.4722 81.1849 44.5778 80.3765 44.5778C79.4185 44.5778 78.5547 44.4306 77.7851 44.1361C77.0154 43.8361 76.3565 43.4194 75.8083 42.8861C75.2656 42.3472 74.8476 41.7028 74.5541 40.9528C74.2606 40.2028 74.1139 39.3778 74.1139 38.4778C74.1139 37.5667 74.2551 36.7361 74.5375 35.9861C74.8254 35.2361 75.2324 34.5944 75.7585 34.0611C76.2845 33.5222 76.924 33.1056 77.6771 32.8111C78.4302 32.5167 79.2718 32.3694 80.202 32.3694C80.6727 32.3694 81.1101 32.4056 81.5144 32.4778C81.9186 32.5444 82.2923 32.6444 82.6356 32.7778C82.979 32.9056 83.2973 33.0639 83.5908 33.2528C83.8843 33.4361 84.1584 33.6444 84.4131 33.8778L83.9563 34.6111C83.8843 34.7222 83.7901 34.7944 83.6739 34.8278C83.5631 34.8556 83.4385 34.8278 83.3001 34.7444C83.1672 34.6667 83.0149 34.5722 82.8433 34.4611C82.6716 34.35 82.4612 34.2444 82.2121 34.1444C81.9684 34.0389 81.6777 33.95 81.3399 33.8778C81.0077 33.8056 80.6118 33.7694 80.1522 33.7694C79.4822 33.7694 78.8759 33.8806 78.3332 34.1028C77.7906 34.3194 77.3282 34.6333 76.9462 35.0444C76.5641 35.45 76.2706 35.9444 76.0658 36.5278C75.8609 37.1056 75.7585 37.7556 75.7585 38.4778C75.7585 39.2278 75.8637 39.9 76.0741 40.4944C76.29 41.0833 76.5946 41.5861 76.9877 42.0028C77.3864 42.4139 77.8681 42.7278 78.4329 42.9444C78.9977 43.1611 79.6317 43.2694 80.3349 43.2694C80.8887 43.2694 81.3787 43.2083 81.8051 43.0861C82.237 42.9583 82.6578 42.7833 83.0675 42.5611V39.9361H81.2154C81.1101 39.9361 81.0243 39.9056 80.9579 39.8444C80.897 39.7833 80.8665 39.7083 80.8665 39.6194V38.7028H84.5211Z" fill="#DD054F"/>
<path d="M88.5987 44.4444H86.9874V32.5028H88.5987V44.4444Z" fill="#DD054F"/>
<path d="M97.7313 34.3694C97.6814 34.4528 97.6261 34.5167 97.5652 34.5611C97.5098 34.6 97.4406 34.6194 97.3575 34.6194C97.2634 34.6194 97.1526 34.5722 97.0253 34.4778C96.8979 34.3833 96.7374 34.2806 96.5435 34.1694C96.3553 34.0528 96.1255 33.9472 95.8542 33.8528C95.5884 33.7583 95.2645 33.7111 94.8824 33.7111C94.5225 33.7111 94.2041 33.7611 93.9272 33.8611C93.6559 33.9556 93.4261 34.0861 93.2378 34.2528C93.0551 34.4194 92.9167 34.6167 92.8226 34.8444C92.7284 35.0667 92.6814 35.3083 92.6814 35.5695C92.6814 35.9028 92.7617 36.1806 92.9222 36.4028C93.0883 36.6194 93.3043 36.8056 93.5701 36.9611C93.8414 37.1167 94.1459 37.2528 94.4837 37.3694C94.827 37.4806 95.1759 37.5972 95.5302 37.7194C95.8902 37.8417 96.239 37.9806 96.5768 38.1361C96.9201 38.2861 97.2246 38.4778 97.4904 38.7111C97.7617 38.9444 97.9777 39.2306 98.1383 39.5694C98.3044 39.9083 98.3874 40.325 98.3874 40.8194C98.3874 41.3417 98.2988 41.8333 98.1216 42.2944C97.9445 42.75 97.6842 43.1472 97.3409 43.4861C97.0031 43.825 96.5851 44.0917 96.0867 44.2861C95.5939 44.4806 95.0319 44.5778 94.4007 44.5778C93.6255 44.5778 92.9222 44.4389 92.291 44.1611C91.6598 43.8778 91.1199 43.4972 90.6714 43.0195L91.1365 42.2528C91.1808 42.1917 91.2334 42.1417 91.2943 42.1028C91.3607 42.0583 91.4327 42.0361 91.5102 42.0361C91.5822 42.0361 91.6625 42.0667 91.7511 42.1278C91.8452 42.1833 91.9505 42.2556 92.0667 42.3444C92.183 42.4333 92.3159 42.5306 92.4654 42.6361C92.6149 42.7417 92.7838 42.8389 92.9721 42.9278C93.1659 43.0167 93.3846 43.0917 93.6282 43.1528C93.8719 43.2083 94.146 43.2361 94.4505 43.2361C94.8326 43.2361 95.1731 43.1833 95.4721 43.0778C95.7711 42.9722 96.0231 42.825 96.2279 42.6361C96.4383 42.4417 96.5989 42.2111 96.7097 41.9444C96.8204 41.6778 96.8758 41.3806 96.8758 41.0528C96.8758 40.6917 96.7927 40.3972 96.6266 40.1694C96.466 39.9361 96.2528 39.7417 95.9871 39.5861C95.7213 39.4306 95.4167 39.3 95.0734 39.1944C94.7301 39.0833 94.3813 38.9722 94.0269 38.8611C93.6725 38.7444 93.3237 38.6111 92.9804 38.4611C92.6371 38.3111 92.3325 38.1167 92.0667 37.8778C91.8009 37.6389 91.585 37.3417 91.4189 36.9861C91.2583 36.625 91.178 36.1806 91.178 35.6528C91.178 35.2306 91.2583 34.8222 91.4189 34.4278C91.585 34.0333 91.8231 33.6833 92.1332 33.3778C92.4488 33.0722 92.8336 32.8278 93.2877 32.6444C93.7473 32.4611 94.2733 32.3694 94.8658 32.3694C95.5302 32.3694 96.1338 32.475 96.6764 32.6861C97.2246 32.8972 97.7064 33.2028 98.1216 33.6028L97.7313 34.3694Z" fill="#DD054F"/>
<path d="M108.711 33.8611H104.857V44.4444H103.254V33.8611H99.3919V32.5028H108.711V33.8611Z" fill="#DD054F"/>
<path d="M112.088 44.4444H110.477V32.5028H112.088V44.4444Z" fill="#DD054F"/>
<path d="M123.489 41.9778C123.577 41.9778 123.655 42.0139 123.721 42.0861L124.361 42.7778C123.873 43.3444 123.281 43.7861 122.583 44.1028C121.891 44.4194 121.052 44.5778 120.067 44.5778C119.214 44.5778 118.439 44.4306 117.741 44.1361C117.043 43.8361 116.448 43.4194 115.955 42.8861C115.462 42.3472 115.08 41.7028 114.809 40.9528C114.538 40.2028 114.402 39.3778 114.402 38.4778C114.402 37.5778 114.543 36.7528 114.826 36.0028C115.108 35.2528 115.504 34.6083 116.013 34.0694C116.528 33.5306 117.143 33.1139 117.857 32.8194C118.572 32.5194 119.361 32.3694 120.224 32.3694C121.072 32.3694 121.819 32.5056 122.467 32.7778C123.115 33.05 123.685 33.4194 124.178 33.8861L123.646 34.6278C123.613 34.6833 123.569 34.7306 123.513 34.7694C123.464 34.8028 123.394 34.8194 123.306 34.8194C123.206 34.8194 123.084 34.7667 122.94 34.6611C122.796 34.55 122.608 34.4278 122.376 34.2944C122.143 34.1611 121.852 34.0417 121.503 33.9361C121.155 33.825 120.726 33.7694 120.216 33.7694C119.601 33.7694 119.039 33.8778 118.53 34.0944C118.021 34.3056 117.58 34.6139 117.209 35.0194C116.844 35.425 116.559 35.9194 116.354 36.5028C116.149 37.0861 116.047 37.7444 116.047 38.4778C116.047 39.2222 116.152 39.8861 116.362 40.4694C116.578 41.0528 116.869 41.5472 117.234 41.9528C117.605 42.3528 118.04 42.6583 118.538 42.8694C119.042 43.0806 119.585 43.1861 120.166 43.1861C120.521 43.1861 120.839 43.1667 121.121 43.1278C121.409 43.0833 121.672 43.0167 121.91 42.9278C122.154 42.8389 122.378 42.7278 122.583 42.5944C122.794 42.4556 123.001 42.2917 123.206 42.1028C123.3 42.0194 123.394 41.9778 123.489 41.9778Z" fill="#DD054F"/>
<path d="M132.317 34.3694C132.267 34.4528 132.212 34.5167 132.151 34.5611C132.096 34.6 132.026 34.6194 131.943 34.6194C131.849 34.6194 131.738 34.5722 131.611 34.4778C131.484 34.3833 131.323 34.2806 131.129 34.1694C130.941 34.0528 130.711 33.9472 130.44 33.8528C130.174 33.7583 129.85 33.7111 129.468 33.7111C129.108 33.7111 128.79 33.7611 128.513 33.8611C128.242 33.9556 128.012 34.0861 127.824 34.2528C127.641 34.4194 127.503 34.6167 127.408 34.8444C127.314 35.0667 127.267 35.3083 127.267 35.5695C127.267 35.9028 127.347 36.1806 127.508 36.4028C127.674 36.6194 127.89 36.8056 128.156 36.9611C128.427 37.1167 128.732 37.2528 129.07 37.3694C129.413 37.4806 129.762 37.5972 130.116 37.7194C130.476 37.8417 130.825 37.9806 131.163 38.1361C131.506 38.2861 131.81 38.4778 132.076 38.7111C132.348 38.9444 132.563 39.2306 132.724 39.5694C132.89 39.9083 132.973 40.325 132.973 40.8194C132.973 41.3417 132.885 41.8333 132.707 42.2944C132.53 42.75 132.27 43.1472 131.927 43.4861C131.589 43.825 131.171 44.0917 130.673 44.2861C130.18 44.4806 129.618 44.5778 128.986 44.5778C128.211 44.5778 127.508 44.4389 126.877 44.1611C126.246 43.8778 125.706 43.4972 125.257 43.0195L125.722 42.2528C125.767 42.1917 125.819 42.1417 125.88 42.1028C125.947 42.0583 126.019 42.0361 126.096 42.0361C126.168 42.0361 126.248 42.0667 126.337 42.1278C126.431 42.1833 126.536 42.2556 126.653 42.3444C126.769 42.4333 126.902 42.5306 127.051 42.6361C127.201 42.7417 127.37 42.8389 127.558 42.9278C127.752 43.0167 127.97 43.0917 128.214 43.1528C128.458 43.2083 128.732 43.2361 129.036 43.2361C129.418 43.2361 129.759 43.1833 130.058 43.0778C130.357 42.9722 130.609 42.825 130.814 42.6361C131.024 42.4417 131.185 42.2111 131.295 41.9444C131.406 41.6778 131.462 41.3806 131.462 41.0528C131.462 40.6917 131.379 40.3972 131.212 40.1694C131.052 39.9361 130.839 39.7417 130.573 39.5861C130.307 39.4306 130.003 39.3 129.659 39.1944C129.316 39.0833 128.967 38.9722 128.613 38.8611C128.258 38.7444 127.909 38.6111 127.566 38.4611C127.223 38.3111 126.918 38.1167 126.653 37.8778C126.387 37.6389 126.171 37.3417 126.005 36.9861C125.844 36.625 125.764 36.1806 125.764 35.6528C125.764 35.2306 125.844 34.8222 126.005 34.4278C126.171 34.0333 126.409 33.6833 126.719 33.3778C127.035 33.0722 127.419 32.8278 127.873 32.6444C128.333 32.4611 128.859 32.3694 129.452 32.3694C130.116 32.3694 130.72 32.475 131.262 32.6861C131.81 32.8972 132.292 33.2028 132.707 33.6028L132.317 34.3694Z" fill="#DD054F"/>
<path fill-rule="evenodd" clip-rule="evenodd" d="M20.2131 11.107L26.5785 0L32.9439 11.107C30.9557 10.3904 28.8126 10 26.5785 10C24.3445 10 22.2013 10.3904 20.2131 11.107ZM8.06046 32.3121L1.10744 44.4444H15.8957C11.8673 41.6543 8.97595 37.3296 8.06046 32.3121ZM37.2613 44.4444H52.0496L45.0966 32.3121C44.1811 37.3296 41.2897 41.6543 37.2613 44.4444Z" fill="#DD054F"/>
<path fill-rule="evenodd" clip-rule="evenodd" d="M39.1685 21.4642C38.078 19.2785 35.8252 17.7778 33.2231 17.7778C29.5534 17.7778 26.5785 20.7625 26.5785 24.4444C26.5785 26.8718 27.8715 28.9961 29.8041 30.162L17.3241 31.9854C16.1703 30.1176 15.5041 27.9146 15.5041 25.5556C15.5041 18.8054 20.9581 13.3333 27.686 13.3333C32.9836 13.3333 37.4914 16.7262 39.1685 21.4642Z" fill="#263365"/>
<path fill-rule="evenodd" clip-rule="evenodd" d="M36.7194 40.6558C34.1192 42.3496 31.0171 43.3333 27.686 43.3333C18.8903 43.3333 11.6912 36.4746 11.112 27.797C11.0871 28.1577 11.0744 28.5218 11.0744 28.8888C11.0744 37.4799 18.0158 44.4444 26.5785 44.4444C30.4559 44.4444 34.0009 43.0163 36.7194 40.6558Z" fill="#141010"/>
<path fill-rule="evenodd" clip-rule="evenodd" d="M41.7858 30H38.7279L43.0673 18.151H45.0059H45.7521L50.1159 30H47.0499L46.3669 27.7865H42.4668L41.7858 30ZM44.4141 21.4574L43.1454 25.5811H45.6865L44.4141 21.4574Z" fill="#263365"/>
<path fill-rule="evenodd" clip-rule="evenodd" d="M56.0127 18.151H60.6603C61.5688 18.151 62.3583 18.2867 63.0288 18.5579C63.6993 18.8292 64.2157 19.2307 64.578 19.7624C64.9457 20.2941 65.1296 20.9505 65.1296 21.7318C65.1296 22.4099 65.0241 22.9769 64.8132 23.4326C64.6024 23.8883 64.3076 24.2654 63.9291 24.5638C63.671 24.7665 63.3832 24.9445 63.0656 25.0978L65.527 29.8779V30H62.4772L60.3927 25.8171H58.8597V30H56.0127V18.151ZM60.6603 23.6117H58.8597V20.3564H60.6603C61.0118 20.3564 61.3065 20.4216 61.5445 20.5518C61.7878 20.682 61.9716 20.8691 62.096 21.1133C62.2204 21.3574 62.2826 21.6504 62.2826 21.9922C62.2826 22.3286 62.2204 22.6188 62.096 22.863C61.9771 23.1017 61.7986 23.2861 61.5607 23.4163C61.3228 23.5465 61.0226 23.6117 60.6603 23.6117Z" fill="#263365"/>
<path d="M75.2707 30H72.4237V20.3564H68.9522V18.151H72.4237H75.2707H78.8234V20.3564H75.2707V30Z" fill="#263365"/>
<path fill-rule="evenodd" clip-rule="evenodd" d="M0 52.2222C0 50.9949 0.991634 50 2.21488 50H131.785C133.008 50 134 50.9949 134 52.2222V64.4444C134 65.6717 133.008 66.6667 131.785 66.6667H2.21487C0.991631 66.6667 0 65.6717 0 64.4444V52.2222ZM18.1409 58.3153C18.1916 58.214 18.2507 58.1202 18.3182 58.0339C18.4365 57.8863 18.5764 57.7705 18.7379 57.6866C18.9022 57.6027 19.0839 57.5608 19.2829 57.5608C19.4848 57.5608 19.6549 57.5955 19.7934 57.6649C19.9318 57.7315 20.0371 57.84 20.1092 57.9905C20.1813 58.138 20.2173 58.3348 20.2173 58.5807V61.6667H21.0219V58.5894C21.0219 58.2798 20.9873 58.0179 20.9181 57.8038C20.8489 57.5868 20.748 57.4103 20.6153 57.2743C20.4855 57.1383 20.3284 57.0399 20.1438 56.9792C19.9592 56.9155 19.7516 56.8837 19.5208 56.8837C19.2382 56.8837 18.9801 56.9401 18.7465 57.053C18.5158 57.1629 18.3168 57.3192 18.1495 57.5217C18.1405 57.5326 18.1316 57.5436 18.1228 57.5547L18.0976 56.9705H17.3406V61.6667H18.1409V58.3153ZM25.1299 61.1595C24.9778 61.3509 24.7916 61.4983 24.5715 61.6016C24.3494 61.7028 24.0898 61.7535 23.7928 61.7535C23.5188 61.7535 23.2679 61.6942 23.0401 61.5755C22.8151 61.4569 22.6205 61.2905 22.4561 61.0764C22.2946 60.8623 22.1691 60.6105 22.0797 60.3212C21.9932 60.0289 21.9499 59.7121 21.9499 59.3707V59.2795C21.9499 58.9207 21.9932 58.5952 22.0797 58.303C22.1691 58.0078 22.2946 57.7546 22.4561 57.5434C22.6205 57.3322 22.8151 57.1701 23.0401 57.0573C23.2679 56.9416 23.5217 56.8837 23.8014 56.8837C24.0956 56.8837 24.3523 56.9358 24.5715 57.0399C24.777 57.1337 24.953 57.2684 25.0992 57.444V55H25.9038V61.6667H25.1684L25.1299 61.1595ZM24.9002 57.947C24.9778 58.0336 25.0442 58.1298 25.0992 58.2357V60.3834L25.0859 60.4088L25.0724 60.4338L25.0603 60.4557C24.9565 60.6409 24.818 60.7899 24.645 60.9028C24.4748 61.0156 24.2571 61.072 23.9918 61.072C23.7755 61.072 23.5895 61.0286 23.4337 60.9418C23.278 60.8521 23.1497 60.7292 23.0487 60.5729C22.9478 60.4167 22.8728 60.2358 22.8238 60.0304C22.7776 59.8249 22.7546 59.605 22.7546 59.3707V59.2795C22.7546 59.0451 22.7776 58.8252 22.8238 58.6198C22.8728 58.4115 22.9478 58.2292 23.0487 58.0729C23.1497 57.9138 23.278 57.7893 23.4337 57.6996C23.5924 57.6071 23.7812 57.5608 24.0004 57.5608C24.2023 57.5608 24.3768 57.5955 24.5239 57.6649C24.6738 57.7344 24.7993 57.8284 24.9002 57.947ZM16.2395 55.3472H15.409V59.6224C15.409 59.9523 15.3484 60.2242 15.2273 60.4384C15.1061 60.6525 14.936 60.8116 14.7168 60.9158C14.5005 61.02 14.2467 61.072 13.9555 61.072C13.6671 61.072 13.4133 61.02 13.1941 60.9158C12.9778 60.8116 12.8091 60.6525 12.688 60.4384C12.5668 60.2242 12.5063 59.9523 12.5063 59.6224V55.3472H11.68V59.6224C11.68 60.0969 11.7795 60.4919 11.9785 60.8073C12.1804 61.1227 12.4529 61.36 12.7961 61.5191C13.1422 61.6753 13.5286 61.7535 13.9555 61.7535C14.3621 61.7535 14.7384 61.6753 15.0845 61.5191C15.4335 61.36 15.7132 61.1227 15.9237 60.8073C16.1343 60.4919 16.2395 60.0969 16.2395 59.6224V55.3472ZM28.1166 61.5885C28.382 61.6985 28.6776 61.7535 29.0035 61.7535C29.312 61.7535 29.5788 61.7101 29.8038 61.6233C30.0316 61.5365 30.2234 61.4236 30.3791 61.2847C30.5348 61.1458 30.6632 60.9997 30.7641 60.8464L30.2796 60.4601C30.1325 60.6539 29.9609 60.8087 29.7648 60.9245C29.5687 61.0402 29.3293 61.0981 29.0467 61.0981C28.8275 61.0981 28.6314 61.0561 28.4584 60.9722C28.2882 60.8883 28.1426 60.7726 28.0215 60.625C27.9032 60.4774 27.8124 60.3067 27.7489 60.1128C27.6939 59.9341 27.6639 59.7445 27.6588 59.5443H30.8247V59.184C30.8247 58.8542 30.7872 58.5504 30.7122 58.2726C30.6372 57.9919 30.5219 57.7488 30.3661 57.5434C30.2104 57.3351 30.01 57.173 29.7648 57.0573C29.5226 56.9416 29.2342 56.8837 28.8996 56.8837C28.6372 56.8837 28.3834 56.9372 28.1383 57.0443C27.8931 57.1513 27.674 57.309 27.4807 57.5174C27.2875 57.7257 27.1347 57.9803 27.0222 58.2812C26.9097 58.5793 26.8535 58.9193 26.8535 59.3012V59.4835C26.8535 59.8134 26.9039 60.1172 27.0049 60.395C27.1058 60.6727 27.25 60.9129 27.4375 61.1155C27.6278 61.318 27.8542 61.4757 28.1166 61.5885ZM27.6823 58.8889H30.0244V58.8281C30.0128 58.6198 29.9696 58.4172 29.8946 58.2205C29.8225 58.0237 29.7071 57.8617 29.5485 57.7344C29.3899 57.6071 29.1736 57.5434 28.8996 57.5434C28.7179 57.5434 28.5507 57.5825 28.3978 57.6606C28.245 57.7358 28.1138 57.8487 28.0042 57.9991C27.8946 58.1496 27.8095 58.3333 27.7489 58.5503C27.7196 58.6554 27.6974 58.7682 27.6823 58.8889ZM32.4708 61.6667V58.328C32.527 58.1966 32.6005 58.0827 32.6914 57.9861C32.7895 57.8819 32.9091 57.8009 33.0504 57.7431C33.1918 57.6852 33.3547 57.6562 33.5393 57.6562C33.6143 57.6562 33.6806 57.6591 33.7383 57.6649C33.7988 57.6678 33.8623 57.6765 33.9286 57.691L33.9329 56.9444C33.9041 56.93 33.8522 56.917 33.7772 56.9054C33.7022 56.8909 33.6359 56.8837 33.5782 56.8837C33.3244 56.8837 33.1052 56.9387 32.9207 57.0486C32.739 57.1557 32.589 57.3061 32.4708 57.5L32.4649 57.5095L32.4491 56.9705H31.6705V61.6667H32.4708ZM37.2315 60.0998C37.2835 60.1982 37.3094 60.3053 37.3094 60.421C37.3094 60.5512 37.2705 60.667 37.1926 60.7682C37.1147 60.8695 37.0008 60.9491 36.8509 61.0069C36.7038 61.0648 36.5207 61.0938 36.3015 61.0938C36.1371 61.0938 35.9713 61.0677 35.804 61.0156C35.6367 60.9606 35.4954 60.8695 35.3801 60.7422C35.2647 60.612 35.2012 60.4369 35.1897 60.217H34.3851C34.3851 60.4774 34.4586 60.7248 34.6057 60.9592C34.7528 61.1936 34.9691 61.3845 35.2546 61.5321C35.5401 61.6797 35.8891 61.7535 36.3015 61.7535C36.5754 61.7535 36.822 61.7202 37.0412 61.6536C37.2633 61.5842 37.4536 61.4887 37.6122 61.3672C37.7737 61.2428 37.8963 61.0952 37.9799 60.9245C38.0664 60.7538 38.1097 60.5657 38.1097 60.3602C38.1097 60.1085 38.0491 59.8944 37.928 59.7179C37.8069 59.5414 37.6223 59.3924 37.3743 59.2708C37.1263 59.1493 36.8105 59.0451 36.4269 58.9583C36.2077 58.9091 36.0275 58.86 35.8862 58.8108C35.7449 58.7616 35.6353 58.7095 35.5574 58.6545C35.4795 58.5966 35.4248 58.5344 35.393 58.4679C35.3642 58.3984 35.3498 58.3203 35.3498 58.2335C35.3498 58.1178 35.38 58.0078 35.4406 57.9036C35.5041 57.7995 35.6035 57.7141 35.7391 57.6476C35.8775 57.5781 36.0578 57.5434 36.2798 57.5434C36.4904 57.5434 36.6677 57.5839 36.8119 57.6649C36.959 57.7459 37.07 57.8487 37.145 57.9731C37.2229 58.0946 37.2618 58.2205 37.2618 58.3507H38.0621C38.0621 58.0816 37.9915 57.8371 37.8502 57.6172C37.7088 57.3944 37.5055 57.2164 37.2402 57.0833C36.9749 56.9502 36.6548 56.8837 36.2798 56.8837C36.0174 56.8837 35.7795 56.9198 35.5661 56.9922C35.3526 57.0645 35.1695 57.1644 35.0167 57.2917C34.8667 57.419 34.7499 57.5651 34.6663 57.73C34.5855 57.895 34.5451 58.07 34.5451 58.2552C34.5451 58.4491 34.5841 58.6183 34.6619 58.763C34.7398 58.9077 34.8508 59.0336 34.995 59.1406C35.1421 59.2477 35.3195 59.3388 35.5271 59.4141C35.7377 59.4893 35.9727 59.5544 36.2323 59.6094C36.5408 59.6701 36.7716 59.7425 36.9244 59.8264C37.0801 59.9074 37.1825 59.9986 37.2315 60.0998ZM40.1581 57.5868H41.032V56.9705H40.1581V55.829H39.3578V56.9705H38.5013V57.5868H39.3578V60.4991C39.3578 60.8116 39.4054 61.0605 39.5006 61.2457C39.5986 61.4279 39.7299 61.5582 39.8942 61.6363C40.0586 61.7144 40.2389 61.7535 40.435 61.7535C40.5792 61.7535 40.7018 61.7433 40.8027 61.7231C40.9065 61.7057 40.9901 61.6869 41.0536 61.6667L41.0493 61.0113C41.0118 61.02 40.9555 61.0315 40.8806 61.046C40.8085 61.0576 40.7392 61.0634 40.6729 61.0634C40.5835 61.0634 40.4999 61.0503 40.422 61.0243C40.3441 60.9983 40.2807 60.9447 40.2317 60.8637C40.1826 60.7827 40.1581 60.6626 40.1581 60.5035V57.5868ZM44.642 60.3463V59.3837H43.9802C43.7523 59.3837 43.549 59.4025 43.3702 59.4401C43.1914 59.4748 43.0414 59.5284 42.9203 59.6007C42.7992 59.673 42.7069 59.7642 42.6435 59.8741C42.58 59.9812 42.5483 60.1071 42.5483 60.2517C42.5483 60.3993 42.5815 60.5339 42.6478 60.6554C42.7141 60.7769 42.8136 60.8738 42.9463 60.9462C43.0818 61.0156 43.2477 61.0503 43.4438 61.0503C43.6889 61.0503 43.9052 60.9983 44.0926 60.8941C44.2801 60.7899 44.4286 60.6626 44.5382 60.5121C44.58 60.4563 44.6146 60.401 44.642 60.3463ZM44.642 58.8194V58.4462C44.642 58.261 44.6045 58.1004 44.5296 57.9644C44.4575 57.8255 44.3479 57.7185 44.2008 57.6432C44.0537 57.568 43.872 57.5304 43.6557 57.5304C43.4539 57.5304 43.2765 57.5651 43.1236 57.6345C42.9737 57.704 42.8554 57.7951 42.7689 57.908C42.6853 58.0208 42.6435 58.1424 42.6435 58.2726H41.8432C41.8432 58.1047 41.8864 57.9384 41.9729 57.7734C42.0595 57.6085 42.1835 57.4595 42.345 57.3264C42.5094 57.1904 42.7055 57.0833 42.9333 57.0052C43.164 56.9242 43.4207 56.8837 43.7033 56.8837C44.0436 56.8837 44.3436 56.9416 44.6031 57.0573C44.8655 57.173 45.0703 57.3481 45.2174 57.5825C45.3674 57.8139 45.4423 58.1047 45.4423 58.4549V60.6424C45.4423 60.7986 45.4553 60.965 45.4813 61.1415C45.5101 61.318 45.5519 61.4699 45.6067 61.5972V61.6667H44.7718C44.7314 61.5741 44.6997 61.4511 44.6767 61.2977L44.6725 61.2689L44.6684 61.2383L44.6633 61.1979L44.6601 61.1703C44.622 61.2104 44.5814 61.2499 44.5382 61.2891C44.3911 61.4222 44.2152 61.5336 44.0105 61.6233C43.8086 61.7101 43.5807 61.7535 43.327 61.7535C43.0097 61.7535 42.7314 61.6913 42.4921 61.5668C42.2556 61.4424 42.071 61.276 41.9383 61.0677C41.8086 60.8565 41.7437 60.6207 41.7437 60.3602C41.7437 60.1085 41.7927 59.8872 41.8908 59.6962C41.9888 59.5023 42.1301 59.3417 42.3147 59.2144C42.4993 59.0842 42.7213 58.9858 42.9809 58.9193C43.2404 58.8527 43.5303 58.8194 43.8504 58.8194H44.642ZM47.4129 58.3153V61.6667H46.6126V56.9705H47.3696L47.3948 57.5547C47.4036 57.5436 47.4125 57.5326 47.4215 57.5217C47.5888 57.3192 47.7878 57.1629 48.0185 57.053C48.2521 56.9401 48.5102 56.8837 48.7929 56.8837C49.0236 56.8837 49.2312 56.9155 49.4158 56.9792C49.6004 57.0399 49.7575 57.1383 49.8873 57.2743C50.02 57.4103 50.1209 57.5868 50.1901 57.8038C50.2593 58.0179 50.2939 58.2798 50.2939 58.5894V61.6667H49.4893V58.5807C49.4893 58.3348 49.4533 58.138 49.3812 57.9905C49.3091 57.84 49.2038 57.7315 49.0654 57.6649C48.927 57.5955 48.7568 57.5608 48.5549 57.5608C48.3559 57.5608 48.1742 57.6027 48.0099 57.6866C47.8484 57.7705 47.7085 57.8863 47.5902 58.0339C47.5227 58.1202 47.4636 58.214 47.4129 58.3153ZM54.3712 58.2357V60.3834L54.355 60.4143L54.3477 60.4279L54.3323 60.4557C54.2285 60.6409 54.09 60.7899 53.917 60.9028C53.7468 61.0156 53.5291 61.072 53.2638 61.072C53.0475 61.072 52.8615 61.0286 52.7057 60.9418C52.55 60.8521 52.4217 60.7292 52.3207 60.5729C52.2198 60.4167 52.1448 60.2358 52.0958 60.0304C52.0496 59.8249 52.0266 59.605 52.0266 59.3707V59.2795C52.0266 59.0451 52.0496 58.8252 52.0958 58.6198C52.1448 58.4115 52.2198 58.2292 52.3207 58.0729C52.4217 57.9138 52.55 57.7893 52.7057 57.6996C52.8644 57.6071 53.0533 57.5608 53.2724 57.5608C53.4743 57.5608 53.6488 57.5955 53.7959 57.6649C53.9458 57.7344 54.0713 57.8284 54.1722 57.947C54.2498 58.0336 54.3162 58.1298 54.3712 58.2357ZM54.3712 57.444C54.225 57.2684 54.049 57.1337 53.8435 57.0399C53.6243 56.9358 53.3676 56.8837 53.0734 56.8837C52.7937 56.8837 52.5399 56.9416 52.3121 57.0573C52.0871 57.1701 51.8925 57.3322 51.7281 57.5434C51.5666 57.7546 51.4411 58.0078 51.3517 58.303C51.2652 58.5952 51.2219 58.9207 51.2219 59.2795V59.3707C51.2219 59.7121 51.2652 60.0289 51.3517 60.3212C51.4411 60.6105 51.5666 60.8623 51.7281 61.0764C51.8925 61.2905 52.0871 61.4569 52.3121 61.5755C52.5399 61.6942 52.7908 61.7535 53.0648 61.7535C53.3618 61.7535 53.6214 61.7028 53.8435 61.6016C54.0636 61.4983 54.2498 61.3509 54.4019 61.1595L54.4404 61.6667H55.1758V55H54.3712V57.444ZM64.0291 60.0694C64.0291 59.9219 64.0061 59.7917 63.9599 59.6788C63.9167 59.5631 63.8388 59.4589 63.7263 59.3663C63.6167 59.2737 63.4639 59.1855 63.2678 59.1016C63.0745 59.0177 62.8294 58.9323 62.5324 58.8455C62.2209 58.7529 61.9397 58.6502 61.6888 58.5373C61.4379 58.4216 61.223 58.2899 61.0442 58.1424C60.8654 57.9948 60.7284 57.8255 60.6333 57.6345C60.5381 57.4436 60.4905 57.2251 60.4905 56.9792C60.4905 56.7332 60.541 56.5061 60.6419 56.2977C60.7429 56.0894 60.8871 55.9086 61.0745 55.7552C61.2649 55.599 61.4912 55.4774 61.7537 55.3906C62.0161 55.3038 62.3088 55.2604 62.6319 55.2604C63.1048 55.2604 63.5057 55.3516 63.8345 55.5339C64.1661 55.7133 64.4185 55.9491 64.5915 56.2413C64.7645 56.5307 64.8511 56.8403 64.8511 57.1701H64.0205C64.0205 56.9329 63.97 56.7231 63.8691 56.5408C63.7681 56.3556 63.6153 56.2109 63.4105 56.1068C63.2058 55.9997 62.9462 55.9462 62.6319 55.9462C62.3348 55.9462 62.0897 55.991 61.8964 56.0807C61.7032 56.1704 61.559 56.292 61.4638 56.4453C61.3716 56.5987 61.3254 56.7737 61.3254 56.9705C61.3254 57.1036 61.3528 57.2251 61.4076 57.3351C61.4653 57.4421 61.5532 57.542 61.6715 57.6345C61.7926 57.7271 61.9455 57.8125 62.13 57.8906C62.3175 57.9688 62.541 58.044 62.8006 58.1163C63.1582 58.2176 63.4668 58.3304 63.7263 58.4549C63.9859 58.5793 64.1993 58.7196 64.3665 58.8759C64.5367 59.0292 64.6622 59.2043 64.7429 59.401C64.8265 59.5949 64.8684 59.8148 64.8684 60.0608C64.8684 60.3183 64.8164 60.5512 64.7126 60.7595C64.6088 60.9679 64.4603 61.1458 64.2671 61.2934C64.0738 61.441 63.8417 61.5553 63.5706 61.6363C63.3024 61.7144 63.0024 61.7535 62.6708 61.7535C62.3795 61.7535 62.0926 61.713 61.8099 61.6319C61.5302 61.5509 61.275 61.4294 61.0442 61.2674C60.8164 61.1053 60.6333 60.9057 60.4948 60.6684C60.3593 60.4282 60.2915 60.1505 60.2915 59.8351H61.1221C61.1221 60.0521 61.1639 60.2387 61.2476 60.395C61.3312 60.5483 61.4451 60.6756 61.5893 60.7769C61.7364 60.8782 61.9022 60.9534 62.0868 61.0026C62.2742 61.0489 62.4689 61.072 62.6708 61.072C62.9621 61.072 63.2086 61.0315 63.4105 60.9505C63.6124 60.8695 63.7652 60.7538 63.8691 60.6033C63.9758 60.4528 64.0291 60.2749 64.0291 60.0694ZM65.8439 55.395C65.7661 55.4847 65.7271 55.5946 65.7271 55.7248C65.7271 55.8493 65.7661 55.9563 65.8439 56.046C65.9247 56.1328 66.0429 56.1762 66.1987 56.1762C66.3515 56.1762 66.4683 56.1328 66.5491 56.046C66.6327 55.9563 66.6745 55.8493 66.6745 55.7248C66.6745 55.5946 66.6327 55.4847 66.5491 55.395C66.4683 55.3053 66.3515 55.2604 66.1987 55.2604C66.0429 55.2604 65.9247 55.3053 65.8439 55.395ZM66.5923 56.9705V61.6667H65.7877V56.9705H66.5923ZM68.5845 58.226V61.6667H67.7799V56.9705H68.5412L68.5649 57.4817C68.7178 57.2985 68.9046 57.1556 69.1252 57.053C69.3617 56.9401 69.6357 56.8837 69.9472 56.8837C70.1664 56.8837 70.3682 56.9155 70.5528 56.9792C70.7374 57.0399 70.8974 57.1369 71.033 57.27C71.1351 57.3703 71.22 57.4919 71.2878 57.6349C71.323 57.5839 71.3607 57.5346 71.4007 57.487C71.5593 57.3018 71.754 57.1557 71.9847 57.0486C72.2154 56.9387 72.4793 56.8837 72.7763 56.8837C73.0272 56.8837 73.2493 56.917 73.4425 56.9835C73.6386 57.0501 73.803 57.1528 73.9357 57.2917C74.0712 57.4277 74.1736 57.6027 74.2428 57.8168C74.312 58.031 74.3466 58.2856 74.3466 58.5807V61.6667H73.542V58.572C73.542 58.3087 73.5002 58.1047 73.4166 57.9601C73.3358 57.8125 73.2205 57.7098 73.0705 57.6519C72.9234 57.5911 72.7475 57.5608 72.5427 57.5608C72.3668 57.5608 72.2111 57.5911 72.0755 57.6519C71.94 57.7127 71.8261 57.7966 71.7338 57.9036C71.6415 58.0078 71.5708 58.1279 71.5218 58.2639C71.492 58.3518 71.4718 58.4433 71.4613 58.5385V61.6667H70.6609V58.5764C70.6609 58.3304 70.6191 58.1337 70.5355 57.9861C70.4547 57.8385 70.3394 57.7315 70.1894 57.6649C70.0395 57.5955 69.8635 57.5608 69.6617 57.5608C69.4252 57.5608 69.2276 57.6027 69.069 57.6866C68.9104 57.7705 68.7835 57.8863 68.6883 58.0339C68.6494 58.0943 68.6148 58.1583 68.5845 58.226ZM76.2696 63.4722V61.2111C76.4223 61.3821 76.6055 61.5137 76.819 61.6059C77.0468 61.7043 77.3093 61.7535 77.6063 61.7535C77.8976 61.7535 78.1557 61.6942 78.3807 61.5755C78.6056 61.4569 78.7945 61.2905 78.9473 61.0764C79.1031 60.8623 79.2213 60.6105 79.3021 60.3212C79.3828 60.0289 79.4232 59.7121 79.4232 59.3707V59.2795C79.4232 58.9207 79.3828 58.5952 79.3021 58.303C79.2242 58.0078 79.1074 57.7546 78.9517 57.5434C78.796 57.3322 78.6042 57.1701 78.3763 57.0573C78.1485 56.9416 77.8875 56.8837 77.5933 56.8837C77.2992 56.8837 77.0396 56.9358 76.8147 57.0399C76.59 57.1411 76.3978 57.2906 76.2393 57.487L76.2004 56.9705H75.465V63.4722H76.2696ZM76.2999 60.5035C76.2896 60.4856 76.2795 60.4677 76.2696 60.4496V58.2076C76.3229 58.1127 76.3849 58.0259 76.4556 57.947C76.5594 57.8284 76.6849 57.7344 76.832 57.6649C76.9819 57.5955 77.1579 57.5608 77.3597 57.5608C77.5789 57.5608 77.7678 57.6071 77.9264 57.6996C78.0851 57.7893 78.2148 57.9138 78.3158 58.0729C78.4196 58.2292 78.496 58.4115 78.545 58.6198C78.5941 58.8252 78.6186 59.0451 78.6186 59.2795V59.3707C78.6186 59.605 78.5941 59.8264 78.545 60.0347C78.496 60.2402 78.4196 60.4225 78.3158 60.5816C78.2148 60.7407 78.0851 60.8666 77.9264 60.9592C77.7707 61.0489 77.5847 61.0938 77.3684 61.0938C77.1059 61.0938 76.8882 61.0402 76.7152 60.9332C76.5421 60.8232 76.4037 60.68 76.2999 60.5035ZM81.225 55V61.6667H80.4204V55H81.225ZM82.5424 55.395C82.4645 55.4847 82.4256 55.5946 82.4256 55.7248C82.4256 55.8493 82.4645 55.9563 82.5424 56.046C82.6231 56.1328 82.7414 56.1762 82.8971 56.1762C83.0499 56.1762 83.1667 56.1328 83.2475 56.046C83.3311 55.9563 83.373 55.8493 83.373 55.7248C83.373 55.5946 83.3311 55.4847 83.2475 55.395C83.1667 55.3053 83.0499 55.2604 82.8971 55.2604C82.7414 55.2604 82.6231 55.3053 82.5424 55.395ZM83.2908 56.9705V61.6667H82.4861V56.9705H83.2908ZM84.8806 57.5868H84.1409V56.9705H84.8806V56.4757C84.8806 56.1372 84.9412 55.8521 85.0623 55.6207C85.1863 55.3863 85.3637 55.2098 85.5944 55.0911C85.8251 54.9696 86.0991 54.9089 86.4163 54.9089C86.5086 54.9089 86.6009 54.9146 86.6932 54.9262C86.7884 54.9378 86.8806 54.9552 86.97 54.9783L86.9268 55.6337C86.8662 55.6192 86.797 55.6091 86.7191 55.6033C86.6442 55.5975 86.5692 55.5946 86.4942 55.5946C86.324 55.5946 86.177 55.6293 86.0529 55.6988C85.9318 55.7653 85.8395 55.8637 85.7761 55.9939C85.7126 56.1241 85.6809 56.2847 85.6809 56.4757V56.9705H86.6759V57.5868H85.6809V61.6667H84.8806V57.5868ZM86.9637 56.9705L88.6344 61.616L88.4604 62.092C88.397 62.2859 88.3205 62.4378 88.2311 62.5477C88.1446 62.6606 88.0379 62.7402 87.911 62.7865C87.7841 62.8356 87.6298 62.8602 87.4482 62.8602C87.428 62.8602 87.3919 62.8573 87.34 62.8516C87.291 62.8487 87.2549 62.8458 87.2319 62.8429L87.2362 63.4939C87.2766 63.5055 87.3458 63.52 87.4438 63.5373C87.5419 63.5547 87.6226 63.5634 87.6861 63.5634C87.8995 63.5634 88.0826 63.5243 88.2355 63.4462C88.3912 63.3709 88.5239 63.2726 88.6335 63.151C88.743 63.0295 88.8325 62.9008 88.9017 62.7648C88.9738 62.6317 89.0314 62.5072 89.0747 62.3915L90.9522 56.9705H90.0956L89.009 60.484L87.8375 56.9705H86.9637ZM96.76 56.033V60.9852H97.6295C98.0794 60.9852 98.4543 60.8912 98.7542 60.7031C99.0542 60.5122 99.2791 60.246 99.4291 59.9045C99.5819 59.5602 99.6583 59.158 99.6583 58.6979V58.3116C99.6583 57.9499 99.6151 57.6288 99.5286 57.3481C99.442 57.0645 99.3152 56.8258 99.1479 56.6319C98.9806 56.4352 98.7758 56.2862 98.5336 56.1849C98.2942 56.0836 98.0188 56.033 97.7073 56.033H96.76ZM96.2884 55.3472H96.76H97.7073C98.1198 55.3472 98.4961 55.4167 98.8364 55.5556C99.1767 55.6916 99.4695 55.8898 99.7146 56.1502C99.9626 56.4077 100.153 56.7202 100.286 57.0877C100.418 57.4523 100.485 57.8631 100.485 58.3203V58.6979C100.485 59.1551 100.418 59.5674 100.286 59.9349C100.153 60.2995 99.9612 60.6105 99.7103 60.8681C99.4622 61.1256 99.1623 61.3238 98.8105 61.4627C98.4615 61.5987 98.0678 61.6667 97.6295 61.6667H96.76H96.3144H95.9251V55.3472H96.2884ZM103.472 61.7535C103.146 61.7535 102.85 61.6985 102.585 61.5885C102.322 61.4757 102.096 61.318 101.906 61.1155C101.718 60.9129 101.574 60.6727 101.473 60.395C101.372 60.1172 101.322 59.8134 101.322 59.4835V59.3012C101.322 58.9193 101.378 58.5793 101.49 58.2812C101.603 57.9803 101.756 57.7257 101.949 57.5174C102.142 57.309 102.361 57.1513 102.607 57.0443C102.852 56.9372 103.105 56.8837 103.368 56.8837C103.702 56.8837 103.991 56.9416 104.233 57.0573C104.478 57.173 104.679 57.3351 104.834 57.5434C104.99 57.7488 105.105 57.9919 105.18 58.2726C105.255 58.5504 105.293 58.8542 105.293 59.184V59.5443H102.127C102.132 59.7445 102.162 59.9341 102.217 60.1128C102.281 60.3067 102.372 60.4774 102.49 60.625C102.611 60.7726 102.757 60.8883 102.927 60.9722C103.1 61.0561 103.296 61.0981 103.515 61.0981C103.798 61.0981 104.037 61.0402 104.233 60.9245C104.429 60.8087 104.601 60.6539 104.748 60.4601L105.232 60.8464C105.131 60.9997 105.003 61.1458 104.847 61.2847C104.692 61.4236 104.5 61.5365 104.272 61.6233C104.047 61.7101 103.78 61.7535 103.472 61.7535ZM104.493 58.8889H102.151C102.166 58.7682 102.188 58.6554 102.217 58.5503C102.278 58.3333 102.363 58.1496 102.472 57.9991C102.582 57.8487 102.713 57.7358 102.866 57.6606C103.019 57.5825 103.186 57.5434 103.368 57.5434C103.642 57.5434 103.858 57.6071 104.017 57.7344C104.175 57.8617 104.291 58.0237 104.363 58.2205C104.438 58.4172 104.481 58.6198 104.493 58.8281V58.8889ZM107.008 61.6667V55H106.204V61.6667H107.008ZM108.209 55.7248C108.209 55.5946 108.248 55.4847 108.326 55.395C108.406 55.3053 108.525 55.2604 108.68 55.2604C108.833 55.2604 108.95 55.3053 109.031 55.395C109.114 55.4847 109.156 55.5946 109.156 55.7248C109.156 55.8493 109.114 55.9563 109.031 56.046C108.95 56.1328 108.833 56.1762 108.68 56.1762C108.525 56.1762 108.406 56.1328 108.326 56.046C108.248 55.9563 108.209 55.8493 108.209 55.7248ZM109.074 61.6667V56.9705H108.269V61.6667H109.074ZM111.814 60.5685L110.625 56.9705H109.803L111.499 61.6667H111.572H112.035H112.109L113.792 56.9705H112.974L111.814 60.5685ZM115.468 61.5885C115.733 61.6985 116.029 61.7535 116.355 61.7535C116.663 61.7535 116.93 61.7101 117.155 61.6233C117.383 61.5365 117.575 61.4236 117.73 61.2847C117.886 61.1458 118.014 60.9997 118.115 60.8464L117.631 60.4601C117.484 60.6539 117.312 60.8087 117.116 60.9245C116.92 61.0402 116.681 61.0981 116.398 61.0981C116.179 61.0981 115.983 61.0561 115.81 60.9722C115.639 60.8883 115.494 60.7726 115.373 60.625C115.254 60.4774 115.164 60.3067 115.1 60.1128C115.045 59.9341 115.015 59.7445 115.01 59.5443H118.176V59.184C118.176 58.8542 118.138 58.5504 118.063 58.2726C117.988 57.9919 117.873 57.7488 117.717 57.5434C117.562 57.3351 117.361 57.173 117.116 57.0573C116.874 56.9416 116.585 56.8837 116.251 56.8837C115.988 56.8837 115.735 56.9372 115.49 57.0443C115.244 57.1513 115.025 57.309 114.832 57.5174C114.639 57.7257 114.486 57.9803 114.373 58.2812C114.261 58.5793 114.205 58.9193 114.205 59.3012V59.4835C114.205 59.8134 114.255 60.1172 114.356 60.395C114.457 60.6727 114.601 60.9129 114.789 61.1155C114.979 61.318 115.205 61.4757 115.468 61.5885ZM115.034 58.8889C115.049 58.7682 115.071 58.6554 115.1 58.5503C115.161 58.3333 115.246 58.1496 115.355 57.9991C115.465 57.8487 115.596 57.7358 115.749 57.6606C115.902 57.5825 116.069 57.5434 116.251 57.5434C116.525 57.5434 116.741 57.6071 116.9 57.7344C117.058 57.8617 117.174 58.0237 117.246 58.2205C117.321 58.4172 117.364 58.6198 117.376 58.8281V58.8889H115.034ZM119.822 58.328V61.6667H119.022V56.9705H119.8L119.816 57.5095L119.822 57.5C119.94 57.3061 120.09 57.1557 120.272 57.0486C120.457 56.9387 120.676 56.8837 120.929 56.8837C120.987 56.8837 121.053 56.8909 121.128 56.9054C121.203 56.917 121.255 56.93 121.284 56.9444L121.28 57.691C121.214 57.6765 121.15 57.6678 121.09 57.6649C121.032 57.6591 120.966 57.6562 120.891 57.6562C120.706 57.6562 120.543 57.6852 120.402 57.7431C120.26 57.8009 120.141 57.8819 120.043 57.9861C119.952 58.0827 119.878 58.1966 119.822 58.328Z" fill="#141010"/>
</g>
<defs>
<clipPath id="clip0_717_1563">
<rect width="134" height="50" fill="white"/>
</clipPath>
</defs>
</svg>
