<svg width="174" height="65" viewBox="0 0 174 65" fill="none" xmlns="http://www.w3.org/2000/svg">
<g clip-path="url(#clip0_704_926)">
<path d="M66.266 37.3284C66.266 36.8206 66.4486 36.3975 66.8137 36.0589C67.1788 35.7133 67.6493 35.5405 68.225 35.5405C68.8078 35.5405 69.2783 35.7133 69.6364 36.0589C70.0015 36.3975 70.1841 36.8206 70.1841 37.3284C70.1841 37.8363 70.0015 38.263 69.6364 38.6086C69.2783 38.9471 68.8078 39.1164 68.225 39.1164C67.6493 39.1164 67.1788 38.9471 66.8137 38.6086C66.4486 38.263 66.266 37.8363 66.266 37.3284Z" fill="white"/>
<path d="M86.8673 37.3284C86.8673 36.8206 87.0499 36.3975 87.415 36.0589C87.7801 35.7133 88.2505 35.5405 88.8263 35.5405C89.4091 35.5405 89.8795 35.7133 90.2376 36.0589C90.6028 36.3975 90.7853 36.8206 90.7853 37.3284C90.7853 37.8363 90.6028 38.263 90.2376 38.6086C89.8795 38.9471 89.4091 39.1164 88.8263 39.1164C88.2505 39.1164 87.7801 38.9471 87.415 38.6086C87.0499 38.263 86.8673 37.8363 86.8673 37.3284Z" fill="white"/>
<path d="M101.268 37.3284C101.268 36.8206 101.451 36.3975 101.816 36.0589C102.181 35.7133 102.651 35.5405 103.227 35.5405C103.81 35.5405 104.28 35.7133 104.638 36.0589C105.003 36.3975 105.186 36.8206 105.186 37.3284C105.186 37.8363 105.003 38.263 104.638 38.6086C104.28 38.9471 103.81 39.1164 103.227 39.1164C102.651 39.1164 102.181 38.9471 101.816 38.6086C101.451 38.263 101.268 37.8363 101.268 37.3284Z" fill="white"/>
<path d="M78.3288 56.0119V57.7778H69.5605V42.2536H71.642V56.0119H78.3288Z" fill="white"/>
<path d="M94.2038 50.0211C94.2038 51.1839 94.0204 52.2528 93.6537 53.2278C93.287 54.1956 92.7694 55.0297 92.1007 55.7303C91.432 56.4308 90.6267 56.9761 89.6848 57.3661C88.7501 57.7489 87.7147 57.9403 86.5787 57.9403C85.4427 57.9403 84.4073 57.7489 83.4726 57.3661C82.5379 56.9761 81.7362 56.4308 81.0675 55.7303C80.3988 55.0297 79.8811 54.1956 79.5145 53.2278C79.1478 52.2528 78.9644 51.1839 78.9644 50.0211C78.9644 48.8583 79.1478 47.7931 79.5145 46.8253C79.8811 45.8503 80.3988 45.0125 81.0675 44.3119C81.7362 43.6042 82.5379 43.0553 83.4726 42.6653C84.4073 42.2753 85.4427 42.0803 86.5787 42.0803C87.7147 42.0803 88.7501 42.2753 89.6848 42.6653C90.6267 43.0553 91.432 43.6042 92.1007 44.3119C92.7694 45.0125 93.287 45.8503 93.6537 46.8253C94.0204 47.7931 94.2038 48.8583 94.2038 50.0211ZM92.0576 50.0211C92.0576 49.0678 91.9281 48.2119 91.6693 47.4536C91.4104 46.6953 91.0437 46.0561 90.5692 45.5361C90.0947 45.0089 89.5195 44.6045 88.8436 44.3228C88.1677 44.0411 87.4128 43.9003 86.5787 43.9003C85.7518 43.9003 85.0005 44.0411 84.3246 44.3228C83.6488 44.6045 83.0699 45.0089 82.5882 45.5361C82.1137 46.0561 81.747 46.6953 81.4881 47.4536C81.2293 48.2119 81.0999 49.0678 81.0999 50.0211C81.0999 50.9744 81.2293 51.8303 81.4881 52.5886C81.747 53.3397 82.1137 53.9789 82.5882 54.5061C83.0699 55.0261 83.6488 55.4269 84.3246 55.7086C85.0005 55.9831 85.7518 56.1203 86.5787 56.1203C87.4128 56.1203 88.1677 55.9831 88.8436 55.7086C89.5195 55.4269 90.0947 55.0261 90.5692 54.5061C91.0437 53.9789 91.4104 53.3397 91.6693 52.5886C91.9281 51.8303 92.0576 50.9744 92.0576 50.0211Z" fill="white"/>
<path d="M109.751 50.3136V56.2719C108.975 56.8353 108.144 57.2578 107.26 57.5394C106.383 57.8139 105.419 57.9511 104.369 57.9511C103.126 57.9511 102.004 57.7597 101.004 57.3769C100.005 56.9869 99.1494 56.4453 98.4376 55.7519C97.733 55.0514 97.1901 54.2136 96.8091 53.2386C96.428 52.2636 96.2375 51.1911 96.2375 50.0211C96.2375 48.8367 96.4208 47.757 96.7875 46.782C97.1614 45.8069 97.6899 44.9728 98.3729 44.2794C99.056 43.5789 99.8864 43.0372 100.864 42.6544C101.842 42.2717 102.935 42.0803 104.143 42.0803C104.754 42.0803 105.322 42.1272 105.847 42.2211C106.372 42.3078 106.857 42.4378 107.303 42.6111C107.749 42.7772 108.162 42.9831 108.543 43.2286C108.924 43.4669 109.28 43.7378 109.611 44.0411L109.018 44.9944C108.924 45.1389 108.802 45.2328 108.651 45.2761C108.507 45.3122 108.346 45.2761 108.166 45.1678C107.993 45.0667 107.796 44.9439 107.573 44.7994C107.35 44.655 107.077 44.5178 106.753 44.3878C106.437 44.2506 106.059 44.135 105.621 44.0411C105.189 43.9472 104.675 43.9003 104.078 43.9003C103.208 43.9003 102.421 44.0447 101.716 44.3336C101.012 44.6153 100.411 45.0233 99.9152 45.5578C99.4191 46.085 99.038 46.7278 98.772 47.4861C98.5059 48.2372 98.3729 49.0822 98.3729 50.0211C98.3729 50.9961 98.5095 51.87 98.7828 52.6428C99.0632 53.4083 99.4586 54.0619 99.9691 54.6036C100.487 55.1381 101.112 55.5461 101.846 55.8278C102.579 56.1094 103.402 56.2503 104.316 56.2503C105.035 56.2503 105.671 56.1708 106.224 56.0119C106.785 55.8458 107.332 55.6183 107.864 55.3294V51.9169H105.459C105.322 51.9169 105.211 51.8772 105.124 51.7978C105.045 51.7183 105.006 51.6208 105.006 51.5053V50.3136H109.751Z" fill="white"/>
<path d="M115.046 57.7778H112.954V42.2536H115.046V57.7778Z" fill="white"/>
<path d="M126.905 44.6803C126.84 44.7886 126.768 44.8717 126.689 44.9294C126.617 44.98 126.527 45.0053 126.419 45.0053C126.297 45.0053 126.153 44.9439 125.988 44.8211C125.823 44.6983 125.614 44.5647 125.363 44.4203C125.118 44.2686 124.82 44.1314 124.467 44.0086C124.122 43.8858 123.702 43.8244 123.205 43.8244C122.738 43.8244 122.325 43.8894 121.965 44.0194C121.613 44.1422 121.314 44.3119 121.07 44.5286C120.833 44.7453 120.653 45.0017 120.531 45.2978C120.409 45.5867 120.347 45.9008 120.347 46.2403C120.347 46.6736 120.452 47.0347 120.66 47.3236C120.876 47.6053 121.156 47.8472 121.501 48.0494C121.854 48.2517 122.249 48.4286 122.688 48.5803C123.134 48.7247 123.587 48.8764 124.047 49.0353C124.514 49.1942 124.967 49.3747 125.406 49.5769C125.851 49.7719 126.247 50.0211 126.592 50.3244C126.944 50.6278 127.225 50.9997 127.433 51.4403C127.649 51.8808 127.757 52.4225 127.757 53.0653C127.757 53.7442 127.642 54.3833 127.412 54.9828C127.182 55.575 126.844 56.0914 126.398 56.532C125.959 56.9725 125.416 57.3192 124.769 57.572C124.129 57.8247 123.4 57.9511 122.58 57.9511C121.573 57.9511 120.66 57.7706 119.841 57.4094C119.021 57.0411 118.32 56.5464 117.737 55.9253L118.341 54.9286C118.399 54.8492 118.467 54.7842 118.546 54.7336C118.633 54.6758 118.726 54.6469 118.827 54.6469C118.92 54.6469 119.024 54.6867 119.139 54.7661C119.262 54.8383 119.398 54.9322 119.549 55.0478C119.7 55.1633 119.873 55.2897 120.067 55.427C120.261 55.5642 120.48 55.6906 120.725 55.8061C120.977 55.9217 121.261 56.0192 121.577 56.0986C121.893 56.1708 122.249 56.2069 122.645 56.2069C123.141 56.2069 123.583 56.1383 123.971 56.0011C124.36 55.8639 124.687 55.6725 124.953 55.427C125.226 55.1742 125.434 54.8744 125.578 54.5278C125.722 54.1811 125.794 53.7947 125.794 53.3686C125.794 52.8992 125.686 52.5164 125.47 52.2203C125.262 51.917 124.985 51.6642 124.64 51.4619C124.295 51.2597 123.899 51.09 123.454 50.9528C123.008 50.8083 122.555 50.6639 122.095 50.5194C121.634 50.3678 121.181 50.1944 120.736 49.9994C120.29 49.8044 119.894 49.5517 119.549 49.2411C119.204 48.9306 118.924 48.5442 118.708 48.0819C118.5 47.6125 118.395 47.0347 118.395 46.3486C118.395 45.7997 118.5 45.2689 118.708 44.7561C118.924 44.2433 119.233 43.7883 119.636 43.3911C120.045 42.9939 120.545 42.6761 121.135 42.4378C121.732 42.1994 122.415 42.0803 123.184 42.0803C124.047 42.0803 124.83 42.2175 125.535 42.4919C126.247 42.7664 126.872 43.1636 127.412 43.6836L126.905 44.6803Z" fill="white"/>
<path d="M141.162 44.0194H136.158V57.7778H134.076V44.0194H129.061V42.2536H141.162V44.0194Z" fill="white"/>
<path d="M145.548 57.7778H143.455V42.2536H145.548V57.7778Z" fill="white"/>
<path d="M160.351 54.5711C160.466 54.5711 160.566 54.6181 160.653 54.7119L161.483 55.6111C160.851 56.3478 160.081 56.9219 159.175 57.3336C158.276 57.7453 157.187 57.9511 155.907 57.9511C154.8 57.9511 153.793 57.7597 152.887 57.3769C151.982 56.9869 151.209 56.4453 150.569 55.7519C149.929 55.0514 149.433 54.2136 149.08 53.2386C148.728 52.2636 148.552 51.1911 148.552 50.0211C148.552 48.8511 148.735 47.7786 149.102 46.8036C149.469 45.8286 149.983 44.9908 150.644 44.2903C151.313 43.5897 152.111 43.0481 153.038 42.6653C153.966 42.2753 154.991 42.0803 156.112 42.0803C157.212 42.0803 158.183 42.2572 159.024 42.6111C159.865 42.965 160.606 43.4453 161.246 44.0519L160.556 45.0161C160.513 45.0883 160.455 45.1497 160.383 45.2003C160.318 45.2436 160.229 45.2653 160.114 45.2653C159.984 45.2653 159.826 45.1967 159.639 45.0594C159.452 44.915 159.208 44.7561 158.906 44.5828C158.604 44.4094 158.226 44.2542 157.773 44.1169C157.32 43.9725 156.763 43.9003 156.101 43.9003C155.303 43.9003 154.574 44.0411 153.912 44.3228C153.251 44.5972 152.679 44.9981 152.197 45.5253C151.723 46.0525 151.352 46.6953 151.086 47.4536C150.82 48.2119 150.687 49.0678 150.687 50.0211C150.687 50.9889 150.824 51.8519 151.097 52.6103C151.378 53.3686 151.755 54.0114 152.23 54.5386C152.711 55.0586 153.276 55.4558 153.923 55.7303C154.577 56.0047 155.282 56.1419 156.037 56.1419C156.497 56.1419 156.91 56.1167 157.277 56.0661C157.651 56.0083 157.992 55.9217 158.302 55.8061C158.618 55.6906 158.909 55.5461 159.175 55.3728C159.448 55.1922 159.718 54.9792 159.984 54.7336C160.106 54.6253 160.229 54.5711 160.351 54.5711Z" fill="white"/>
<path d="M171.815 44.6803C171.75 44.7886 171.678 44.8717 171.599 44.9294C171.527 44.98 171.437 45.0053 171.329 45.0053C171.207 45.0053 171.063 44.9439 170.898 44.8211C170.733 44.6983 170.524 44.5647 170.272 44.4203C170.028 44.2686 169.73 44.1314 169.377 44.0086C169.032 43.8858 168.612 43.8244 168.115 43.8244C167.648 43.8244 167.235 43.8894 166.875 44.0194C166.523 44.1422 166.224 44.3119 165.98 44.5286C165.743 44.7453 165.563 45.0017 165.441 45.2978C165.318 45.5867 165.257 45.9008 165.257 46.2403C165.257 46.6736 165.362 47.0347 165.57 47.3236C165.786 47.6053 166.066 47.8472 166.411 48.0494C166.764 48.2517 167.159 48.4286 167.598 48.5803C168.044 48.7247 168.496 48.8764 168.957 49.0353C169.424 49.1942 169.877 49.3747 170.316 49.5769C170.761 49.7719 171.157 50.0211 171.502 50.3244C171.854 50.6278 172.135 50.9997 172.343 51.4403C172.559 51.8808 172.667 52.4225 172.667 53.0653C172.667 53.7442 172.552 54.3833 172.322 54.9828C172.092 55.575 171.754 56.0914 171.308 56.532C170.869 56.9725 170.326 57.3192 169.679 57.572C169.039 57.8247 168.31 57.9511 167.49 57.9511C166.483 57.9511 165.57 57.7706 164.75 57.4094C163.931 57.0411 163.23 56.5464 162.647 55.9253L163.251 54.9286C163.309 54.8492 163.377 54.7842 163.456 54.7336C163.543 54.6758 163.636 54.6469 163.737 54.6469C163.83 54.6469 163.934 54.6867 164.049 54.7661C164.172 54.8383 164.308 54.9322 164.459 55.0478C164.61 55.1633 164.783 55.2897 164.977 55.427C165.171 55.5642 165.39 55.6906 165.635 55.8061C165.887 55.9217 166.171 56.0192 166.487 56.0986C166.803 56.1708 167.159 56.2069 167.555 56.2069C168.051 56.2069 168.493 56.1383 168.881 56.0011C169.269 55.8639 169.597 55.6725 169.863 55.427C170.136 55.1742 170.344 54.8744 170.488 54.5278C170.632 54.1811 170.704 53.7947 170.704 53.3686C170.704 52.8992 170.596 52.5164 170.38 52.2203C170.172 51.917 169.895 51.6642 169.55 51.4619C169.205 51.2597 168.809 51.09 168.363 50.9528C167.918 50.8083 167.465 50.6639 167.005 50.5194C166.544 50.3678 166.091 50.1944 165.646 49.9994C165.2 49.8044 164.804 49.5517 164.459 49.2411C164.114 48.9306 163.834 48.5442 163.618 48.0819C163.41 47.6125 163.305 47.0347 163.305 46.3486C163.305 45.7997 163.41 45.2689 163.618 44.7561C163.834 44.2433 164.143 43.7883 164.546 43.3911C164.955 42.9939 165.455 42.6761 166.045 42.4378C166.641 42.1994 167.325 42.0803 168.094 42.0803C168.957 42.0803 169.74 42.2175 170.445 42.4919C171.157 42.7664 171.782 43.1636 172.322 43.6836L171.815 44.6803Z" fill="white"/>
<path fill-rule="evenodd" clip-rule="evenodd" d="M26.2469 14.439L34.5124 0L42.7779 14.439C40.1962 13.5075 37.4133 13 34.5124 13C31.6115 13 28.8286 13.5075 26.2469 14.439ZM10.4666 42.0058L1.43802 57.7778H20.6407C15.4098 54.1506 11.6553 48.5285 10.4666 42.0058ZM48.3841 57.7778H67.5868L58.5582 42.0058C57.3695 48.5285 53.615 54.1506 48.3841 57.7778Z" fill="white"/>
<path fill-rule="evenodd" clip-rule="evenodd" d="M50.8606 27.9035C49.4445 25.062 46.5193 23.1111 43.1405 23.1111C38.3753 23.1111 34.5124 26.9913 34.5124 31.7778C34.5124 34.9333 36.1913 37.695 38.7009 39.2106L22.4955 41.5811C20.9972 39.1529 20.1322 36.289 20.1322 33.2222C20.1322 24.447 27.2143 17.3333 35.9504 17.3333C42.8294 17.3333 48.6828 21.744 50.8606 27.9035Z" fill="white"/>
<path fill-rule="evenodd" clip-rule="evenodd" d="M47.6804 52.8526C44.304 55.0544 40.2759 56.3333 35.9504 56.3333C24.5291 56.3333 15.1811 47.417 14.429 36.1361C14.3966 36.605 14.3802 37.0783 14.3802 37.5555C14.3802 48.7239 23.3937 57.7777 34.5124 57.7777C39.5472 57.7777 44.1504 55.9212 47.6804 52.8526Z" fill="white"/>
<path fill-rule="evenodd" clip-rule="evenodd" d="M54.2591 39H50.2884L55.9233 23.5964H58.4405H59.4095L65.0759 39H61.0946L60.2078 36.1224H55.1435L54.2591 39ZM57.6721 27.8946L56.0246 33.2554H59.3242L57.6721 27.8946Z" fill="white"/>
<path fill-rule="evenodd" clip-rule="evenodd" d="M72.7329 23.5964H78.7679C79.9475 23.5964 80.9727 23.7727 81.8434 24.1253C82.714 24.478 83.3846 24.9999 83.855 25.6911C84.3325 26.3823 84.5712 27.2357 84.5712 28.2513C84.5712 29.1329 84.4343 29.87 84.1605 30.4624C83.8866 31.0548 83.504 31.545 83.0125 31.9329C82.6773 32.1964 82.3035 32.4278 81.8911 32.6271L85.0873 38.8413V39H81.1272L78.4203 33.5622H76.4297V39H72.7329V23.5964ZM78.7679 30.6951H76.4297V26.4634H78.7679C79.2243 26.4634 79.607 26.548 79.9159 26.7173C80.2319 26.8866 80.4706 27.1299 80.6321 27.4473C80.7936 27.7646 80.8744 28.1455 80.8744 28.5898C80.8744 29.0271 80.7936 29.4045 80.6321 29.7218C80.4777 30.0322 80.246 30.272 79.937 30.4412C79.6281 30.6105 79.2384 30.6951 78.7679 30.6951Z" fill="white"/>
<path d="M97.7396 39H94.0428V26.4634H89.5349V23.5964H94.0428H97.7396H102.353V26.4634H97.7396V39Z" fill="white"/>
<path fill-rule="evenodd" clip-rule="evenodd" d="M0 67.8889C0 66.2934 1.28764 65 2.87603 65H171.124C172.712 65 174 66.2934 174 67.8889V83.7778C174 85.3733 172.712 86.6667 171.124 86.6667H2.87603C1.28764 86.6667 0 85.3733 0 83.7778V67.8889ZM23.5561 75.8099C23.6219 75.6782 23.6987 75.5563 23.7864 75.444C23.9399 75.2522 24.1215 75.1017 24.3312 74.9926C24.5447 74.8835 24.7806 74.829 25.039 74.829C25.3012 74.829 25.5221 74.8741 25.7018 74.9644C25.8816 75.0509 26.0183 75.192 26.1119 75.3876C26.2055 75.5794 26.2523 75.8352 26.2523 76.1549V80.1667H27.2971V76.1662C27.2971 75.7637 27.2522 75.4233 27.1623 75.145C27.0725 74.8628 26.9414 74.6334 26.7691 74.4566C26.6006 74.2798 26.3965 74.1519 26.1568 74.0729C25.9172 73.9902 25.6475 73.9488 25.348 73.9488C24.981 73.9488 24.6458 74.0221 24.3425 74.1688C24.0429 74.3118 23.7845 74.5149 23.5673 74.7782C23.5556 74.7924 23.544 74.8067 23.5326 74.8212L23.4999 74.0616H22.5169V80.1667H23.5561V75.8099ZM32.6314 79.5073C32.4338 79.7562 32.1921 79.9478 31.9062 80.082C31.6179 80.2137 31.2808 80.2795 30.8951 80.2795C30.5393 80.2795 30.2136 80.2024 29.9177 80.0482C29.6256 79.894 29.3728 79.6777 29.1594 79.3993C28.9497 79.1209 28.7868 78.7937 28.6707 78.4175C28.5583 78.0376 28.5022 77.6257 28.5022 77.1819V77.0634C28.5022 76.5969 28.5583 76.1738 28.6707 75.7938C28.7868 75.4102 28.9497 75.081 29.1594 74.8064C29.3728 74.5318 29.6256 74.3212 29.9177 74.1745C30.2136 74.024 30.5431 73.9488 30.9063 73.9488C31.2883 73.9488 31.6216 74.0165 31.9062 74.1519C32.1732 74.2738 32.4016 74.4489 32.5915 74.6771V71.5H33.6363V80.1667H32.6814L32.6314 79.5073ZM32.3331 75.3312C32.4339 75.4436 32.52 75.5687 32.5915 75.7064V78.4985L32.5743 78.5314L32.5567 78.564L32.541 78.5924C32.4062 78.8332 32.2264 79.0269 32.0017 79.1736C31.7808 79.3203 31.498 79.3937 31.1535 79.3937C30.8726 79.3937 30.6311 79.3372 30.4289 79.2244C30.2267 79.1078 30.06 78.9479 29.9289 78.7448C29.7979 78.5417 29.7005 78.3066 29.6368 78.0395C29.5769 77.7724 29.547 77.4865 29.547 77.1819V77.0634C29.547 76.7587 29.5769 76.4728 29.6368 76.2057C29.7005 75.9349 29.7979 75.6979 29.9289 75.4948C30.06 75.2879 30.2267 75.1262 30.4289 75.0095C30.6348 74.8892 30.8801 74.829 31.1647 74.829C31.4269 74.829 31.6534 74.8741 31.8444 74.9644C32.0392 75.0547 32.2021 75.1769 32.3331 75.3312ZM21.0872 71.9514H20.0086V77.5091C20.0086 77.9379 19.93 78.2915 19.7727 78.5699C19.6154 78.8482 19.3945 79.0551 19.1099 79.1905C18.829 79.326 18.4995 79.3937 18.1213 79.3937C17.7468 79.3937 17.4172 79.326 17.1326 79.1905C16.8518 79.0551 16.6327 78.8482 16.4754 78.5699C16.3181 78.2915 16.2395 77.9379 16.2395 77.5091V71.9514H15.1666V77.5091C15.1666 78.126 15.2958 78.6395 15.5542 79.0495C15.8163 79.4595 16.1702 79.7679 16.6158 79.9748C17.0652 80.1779 17.567 80.2795 18.1213 80.2795C18.6493 80.2795 19.138 80.1779 19.5874 79.9748C20.0405 79.7679 20.4037 79.4595 20.6771 79.0495C20.9505 78.6395 21.0872 78.126 21.0872 77.5091V71.9514ZM36.5097 80.0651C36.8542 80.208 37.238 80.2795 37.6612 80.2795C38.0619 80.2795 38.4083 80.2231 38.7004 80.1102C38.9962 79.9974 39.2453 79.8507 39.4475 79.6701C39.6497 79.4896 39.8164 79.2996 39.9474 79.1003L39.3183 78.5981C39.1273 78.8501 38.9045 79.0514 38.6498 79.2018C38.3952 79.3523 38.0844 79.4275 37.7174 79.4275C37.4328 79.4275 37.1781 79.373 36.9534 79.2639C36.7325 79.1548 36.5434 79.0043 36.3861 78.8125C36.2325 78.6207 36.1146 78.3987 36.0322 78.1467C35.9607 77.9143 35.9218 77.6679 35.9152 77.4075H40.0261V76.9392C40.0261 76.5104 39.9774 76.1154 39.88 75.7543C39.7827 75.3895 39.6329 75.0735 39.4306 74.8064C39.2284 74.5356 38.9682 74.3249 38.6498 74.1745C38.3353 74.024 37.9608 73.9488 37.5264 73.9488C37.1856 73.9488 36.8561 74.0184 36.5378 74.1575C36.2194 74.2967 35.9348 74.5017 35.6839 74.7726C35.433 75.0434 35.2345 75.3744 35.0885 75.7656C34.9425 76.1531 34.8694 76.595 34.8694 77.0916V77.3286C34.8694 77.7574 34.935 78.1523 35.066 78.5135C35.1971 78.8746 35.3843 79.1868 35.6278 79.4501C35.8749 79.7134 36.1689 79.9184 36.5097 80.0651ZM35.9456 76.5556H38.9869V76.4766C38.9719 76.2057 38.9157 75.9424 38.8184 75.6866C38.7247 75.4308 38.5749 75.2202 38.369 75.0547C38.163 74.8892 37.8821 74.8064 37.5264 74.8064C37.2905 74.8064 37.0733 74.8572 36.8748 74.9588C36.6763 75.0566 36.5059 75.2033 36.3636 75.3989C36.2213 75.5945 36.1108 75.8333 36.0322 76.1154C35.9941 76.252 35.9653 76.3987 35.9456 76.5556ZM42.1635 80.1667V75.8263C42.2365 75.6556 42.332 75.5075 42.45 75.3819C42.5773 75.2465 42.7328 75.1412 42.9163 75.066C43.0998 74.9907 43.3113 74.9531 43.551 74.9531C43.6484 74.9531 43.7345 74.9569 43.8094 74.9644C43.888 74.9682 43.9704 74.9795 44.0566 74.9983L44.0622 74.0278C44.0247 74.009 43.9573 73.992 43.86 73.977C43.7626 73.9582 43.6765 73.9488 43.6016 73.9488C43.272 73.9488 42.9874 74.0203 42.7477 74.1632C42.5118 74.3024 42.3171 74.498 42.1635 74.75L42.156 74.7623L42.1355 74.0616H41.1243V80.1667H42.1635ZM48.3454 78.1298C48.4128 78.2577 48.4465 78.3968 48.4465 78.5473C48.4465 78.7166 48.396 78.867 48.2949 78.9987C48.1938 79.1303 48.0459 79.2338 47.8511 79.309C47.6601 79.3843 47.4223 79.4219 47.1377 79.4219C46.9243 79.4219 46.7089 79.388 46.4917 79.3203C46.2745 79.2488 46.091 79.1303 45.9413 78.9648C45.7915 78.7956 45.7091 78.568 45.6941 78.2821H44.6493C44.6493 78.6207 44.7448 78.9423 44.9358 79.247C45.1268 79.5517 45.4076 79.7999 45.7784 79.9918C46.1491 80.1836 46.6022 80.2795 47.1377 80.2795C47.4935 80.2795 47.8137 80.2363 48.0983 80.1497C48.3866 80.0595 48.6338 79.9353 48.8398 79.7773C49.0495 79.6156 49.2086 79.4238 49.3172 79.2018C49.4296 78.9799 49.4857 78.7354 49.4857 78.4683C49.4857 78.1411 49.4071 77.8627 49.2498 77.6332C49.0925 77.4038 48.8529 77.2101 48.5308 77.0521C48.2088 76.8941 47.7987 76.7587 47.3006 76.6458C47.016 76.5819 46.782 76.5179 46.5985 76.454C46.415 76.39 46.2727 76.3223 46.1716 76.2509C46.0705 76.1756 45.9993 76.0948 45.9581 76.0082C45.9207 75.918 45.9019 75.8164 45.9019 75.7036C45.9019 75.5531 45.9413 75.4102 46.0199 75.2747C46.1023 75.1393 46.2315 75.0284 46.4075 74.9418C46.5872 74.8516 46.8213 74.8064 47.1096 74.8064C47.383 74.8064 47.6133 74.8591 47.8006 74.9644C47.9916 75.0697 48.1357 75.2033 48.2331 75.365C48.3342 75.523 48.3848 75.6866 48.3848 75.8559H49.424C49.424 75.5061 49.3322 75.1882 49.1487 74.9023C48.9652 74.6127 48.7012 74.3814 48.3567 74.2083C48.0121 74.0353 47.5965 73.9488 47.1096 73.9488C46.7689 73.9488 46.4599 73.9958 46.1828 74.0898C45.9057 74.1839 45.6679 74.3137 45.4694 74.4792C45.2747 74.6447 45.123 74.8346 45.0144 75.049C44.9096 75.2635 44.8571 75.491 44.8571 75.7318C44.8571 75.9838 44.9077 76.2038 45.0088 76.3919C45.1099 76.58 45.2541 76.7436 45.4413 76.8828C45.6323 77.022 45.8626 77.1405 46.1322 77.2383C46.4056 77.3361 46.7108 77.4207 47.0479 77.4922C47.4486 77.5712 47.7481 77.6652 47.9466 77.7743C48.1488 77.8796 48.2818 77.9981 48.3454 78.1298ZM52.1456 74.8628H53.2803V74.0616H52.1456V72.5777H51.1064V74.0616H49.9942V74.8628H51.1064V78.6489C51.1064 79.0551 51.1682 79.3786 51.2918 79.6194C51.4191 79.8563 51.5895 80.0256 51.803 80.1272C52.0164 80.2287 52.2505 80.2795 52.5051 80.2795C52.6924 80.2795 52.8515 80.2663 52.9826 80.24C53.1174 80.2174 53.226 80.193 53.3084 80.1667L53.3028 79.3147C53.2541 79.326 53.1811 79.341 53.0837 79.3598C52.9901 79.3749 52.9002 79.3824 52.8141 79.3824C52.698 79.3824 52.5894 79.3654 52.4883 79.3316C52.3872 79.2977 52.3048 79.2281 52.2411 79.1228C52.1775 79.0175 52.1456 78.8614 52.1456 78.6545V74.8628ZM57.968 78.4502V77.1988H57.1086C56.8127 77.1988 56.5487 77.2232 56.3166 77.2721C56.0844 77.3173 55.8896 77.3869 55.7324 77.4809C55.5751 77.5749 55.4552 77.6934 55.3729 77.8364C55.2905 77.9755 55.2493 78.1392 55.2493 78.3273C55.2493 78.5191 55.2923 78.694 55.3785 78.852C55.4646 79.01 55.5938 79.136 55.7661 79.23C55.9421 79.3203 56.1574 79.3654 56.412 79.3654C56.7304 79.3654 57.0112 79.2977 57.2546 79.1623C57.498 79.0269 57.6909 78.8614 57.8332 78.6658C57.8874 78.5932 57.9324 78.5213 57.968 78.4502ZM57.968 76.4653V75.98C57.968 75.7393 57.9193 75.5305 57.822 75.3537C57.7284 75.1732 57.586 75.034 57.3951 74.9362C57.2041 74.8384 56.9682 74.7895 56.6873 74.7895C56.4252 74.7895 56.1948 74.8346 55.9964 74.9249C55.8016 75.0152 55.6481 75.1337 55.5358 75.2804C55.4272 75.4271 55.3729 75.5851 55.3729 75.7543H54.3337C54.3337 75.5362 54.3898 75.3199 54.5022 75.1055C54.6145 74.8911 54.7756 74.6973 54.9853 74.5243C55.1987 74.3475 55.4534 74.2083 55.7492 74.1068C56.0488 74.0014 56.3821 73.9488 56.7491 73.9488C57.191 73.9488 57.5804 74.024 57.9175 74.1745C58.2582 74.3249 58.5241 74.5525 58.7151 74.8572C58.9098 75.1581 59.0072 75.5362 59.0072 75.9913V78.8351C59.0072 79.0382 59.0241 79.2545 59.0578 79.4839C59.0952 79.7134 59.1495 79.9109 59.2207 80.0764V80.1667H58.1365C58.0841 80.0463 58.0429 79.8864 58.013 79.6871L58.0076 79.6496L58.0022 79.6098L57.9956 79.5572L57.9915 79.5214C57.942 79.5735 57.8892 79.6249 57.8332 79.6758C57.6422 79.8488 57.4138 79.9936 57.1479 80.1102C56.8858 80.2231 56.5899 80.2795 56.2604 80.2795C55.8484 80.2795 55.4871 80.1986 55.1762 80.0369C54.8692 79.8751 54.6295 79.6589 54.4572 79.388C54.2887 79.1134 54.2045 78.8069 54.2045 78.4683C54.2045 78.1411 54.2681 77.8533 54.3955 77.605C54.5228 77.353 54.7063 77.1442 54.9459 76.9787C55.1856 76.8095 55.474 76.6816 55.811 76.595C56.148 76.5085 56.5244 76.4653 56.9401 76.4653H57.968ZM61.566 75.8099V80.1667H60.5268V74.0616H61.5098L61.5425 74.8212C61.554 74.8067 61.5655 74.7924 61.5772 74.7782C61.7944 74.5149 62.0528 74.3118 62.3524 74.1688C62.6557 74.0221 62.9909 73.9488 63.3579 73.9488C63.6575 73.9488 63.9271 73.9902 64.1668 74.0729C64.4064 74.1519 64.6105 74.2798 64.7791 74.4566C64.9513 74.6334 65.0824 74.8628 65.1723 75.145C65.2621 75.4233 65.3071 75.7637 65.3071 76.1662V80.1667H64.2623V76.1549C64.2623 75.8352 64.2155 75.5794 64.1218 75.3876C64.0282 75.192 63.8915 75.0509 63.7118 74.9644C63.532 74.8741 63.3111 74.829 63.0489 74.829C62.7905 74.829 62.5546 74.8835 62.3412 74.9926C62.1314 75.1017 61.9498 75.2522 61.7963 75.444C61.7086 75.5563 61.6318 75.6782 61.566 75.8099ZM70.6014 75.7064V78.4985L70.5804 78.5386L70.5708 78.5563L70.5509 78.5924C70.4161 78.8332 70.2363 79.0269 70.0116 79.1736C69.7907 79.3203 69.5079 79.3937 69.1634 79.3937C68.8826 79.3937 68.641 79.3372 68.4388 79.2244C68.2366 79.1078 68.0699 78.9479 67.9389 78.7448C67.8078 78.5417 67.7104 78.3066 67.6468 78.0395C67.5869 77.7724 67.5569 77.4865 67.5569 77.1819V77.0634C67.5569 76.7587 67.5869 76.4728 67.6468 76.2057C67.7104 75.9349 67.8078 75.6979 67.9389 75.4948C68.0699 75.2879 68.2366 75.1262 68.4388 75.0095C68.6448 74.8892 68.8901 74.829 69.1747 74.829C69.4368 74.829 69.6634 74.8741 69.8543 74.9644C70.0491 75.0547 70.212 75.1769 70.343 75.3312C70.4438 75.4436 70.53 75.5687 70.6014 75.7064ZM70.6014 74.6771C70.4115 74.4489 70.1831 74.2738 69.9161 74.1519C69.6315 74.0165 69.2982 73.9488 68.9163 73.9488C68.553 73.9488 68.2235 74.024 67.9276 74.1745C67.6355 74.3212 67.3828 74.5318 67.1693 74.8064C66.9596 75.081 66.7967 75.4102 66.6806 75.7938C66.5683 76.1738 66.5121 76.5969 66.5121 77.0634V77.1819C66.5121 77.6257 66.5683 78.0376 66.6806 78.4175C66.7967 78.7937 66.9596 79.1209 67.1693 79.3993C67.3828 79.6777 67.6355 79.894 67.9276 80.0482C68.2235 80.2024 68.5493 80.2795 68.905 80.2795C69.2907 80.2795 69.6278 80.2137 69.9161 80.082C70.202 79.9478 70.4438 79.7562 70.6413 79.5073L70.6913 80.1667H71.6462V71.5H70.6014V74.6771ZM83.1423 78.0903C83.1423 77.8984 83.1123 77.7292 83.0524 77.5825C82.9962 77.432 82.8951 77.2966 82.7491 77.1762C82.6068 77.0558 82.4083 76.9411 82.1537 76.832C81.9028 76.7229 81.5844 76.612 81.1987 76.4991C80.7943 76.3788 80.4292 76.2452 80.1034 76.0985C79.7776 75.9481 79.4986 75.7769 79.2664 75.5851C79.0342 75.3932 78.8563 75.1732 78.7328 74.9249C78.6092 74.6767 78.5474 74.3926 78.5474 74.0729C78.5474 73.7532 78.6129 73.4579 78.744 73.1871C78.8751 72.9162 79.0623 72.6811 79.3057 72.4818C79.5529 72.2786 79.8468 72.1207 80.1876 72.0078C80.5284 71.895 80.9085 71.8385 81.3279 71.8385C81.9421 71.8385 82.4626 71.957 82.8895 72.194C83.3202 72.4272 83.6479 72.7338 83.8725 73.1137C84.0972 73.4899 84.2096 73.8924 84.2096 74.3212H83.1311C83.1311 74.0127 83.0655 73.74 82.9345 73.503C82.8034 73.2623 82.6049 73.0742 82.339 72.9388C82.0732 72.7996 81.7361 72.73 81.3279 72.73C80.9422 72.73 80.6239 72.7883 80.373 72.9049C80.1221 73.0216 79.9348 73.1795 79.8113 73.3789C79.6914 73.5783 79.6315 73.8058 79.6315 74.0616C79.6315 74.2347 79.6671 74.3926 79.7382 74.5356C79.8131 74.6748 79.9274 74.8045 80.0809 74.9249C80.2382 75.0453 80.4367 75.1562 80.6763 75.2578C80.9197 75.3594 81.21 75.4572 81.547 75.5512C82.0114 75.6829 82.412 75.8296 82.7491 75.9913C83.0861 76.1531 83.3632 76.3355 83.5804 76.5386C83.8014 76.738 83.9643 76.9656 84.0691 77.2214C84.1777 77.4734 84.232 77.7593 84.232 78.079C84.232 78.4138 84.1646 78.7166 84.0298 78.9874C83.895 79.2582 83.7021 79.4896 83.4512 79.6814C83.2003 79.8733 82.8989 80.0218 82.5469 80.1272C82.1986 80.2287 81.8091 80.2795 81.3785 80.2795C81.0003 80.2795 80.6276 80.2269 80.2607 80.1215C79.8974 80.0162 79.566 79.8582 79.2664 79.6476C78.9706 79.4369 78.7328 79.1774 78.553 78.8689C78.377 78.5567 78.289 78.1956 78.289 77.7856H79.3675C79.3675 78.0677 79.4218 78.3103 79.5304 78.5135C79.639 78.7128 79.7869 78.8783 79.9742 79.01C80.1651 79.1416 80.3805 79.2394 80.6201 79.3034C80.8636 79.3636 81.1163 79.3937 81.3785 79.3937C81.7567 79.3937 82.0769 79.341 82.339 79.2357C82.6012 79.1303 82.7996 78.9799 82.9345 78.7843C83.073 78.5887 83.1423 78.3573 83.1423 78.0903ZM85.4988 72.0135C85.3977 72.1301 85.3472 72.273 85.3472 72.4423C85.3472 72.604 85.3977 72.7432 85.4988 72.8598C85.6037 72.9727 85.7572 73.0291 85.9595 73.0291C86.1579 73.0291 86.3096 72.9727 86.4145 72.8598C86.5231 72.7432 86.5774 72.604 86.5774 72.4423C86.5774 72.273 86.5231 72.1301 86.4145 72.0135C86.3096 71.8968 86.1579 71.8385 85.9595 71.8385C85.7572 71.8385 85.6037 71.8968 85.4988 72.0135ZM86.4706 74.0616V80.1667H85.4258V74.0616H86.4706ZM89.0575 75.6938V80.1667H88.0127V74.0616H89.0013L89.0321 74.7262C89.2306 74.488 89.4731 74.3022 89.7596 74.1688C90.0667 74.0221 90.4225 73.9488 90.8269 73.9488C91.1115 73.9488 91.3737 73.9902 91.6133 74.0729C91.853 74.1519 92.0609 74.2779 92.2369 74.451C92.3695 74.5813 92.4798 74.7395 92.5677 74.9253C92.6135 74.859 92.6624 74.7949 92.7143 74.7331C92.9203 74.4923 93.1731 74.3024 93.4727 74.1632C93.7722 74.0203 94.1149 73.9488 94.5006 73.9488C94.8264 73.9488 95.1148 73.992 95.3657 74.0786C95.6203 74.1651 95.8338 74.2986 96.006 74.4792C96.182 74.656 96.315 74.8835 96.4049 75.1619C96.4947 75.4402 96.5397 75.7713 96.5397 76.1549V80.1667H95.4949V76.1437C95.4949 75.8014 95.4406 75.5362 95.332 75.3481C95.2271 75.1562 95.0773 75.0227 94.8826 74.9475C94.6916 74.8685 94.4632 74.829 94.1973 74.829C93.9688 74.829 93.7666 74.8685 93.5906 74.9475C93.4146 75.0265 93.2667 75.1356 93.1468 75.2747C93.027 75.4102 92.9353 75.5663 92.8716 75.7431C92.8329 75.8573 92.8067 75.9764 92.793 76.1001V80.1667H91.7538V76.1493C91.7538 75.8296 91.6995 75.5738 91.5909 75.3819C91.486 75.1901 91.3362 75.0509 91.1415 74.9644C90.9468 74.8741 90.7183 74.829 90.4562 74.829C90.1491 74.829 89.8926 74.8835 89.6866 74.9926C89.4807 75.1017 89.3159 75.2522 89.1923 75.444C89.1417 75.5225 89.0968 75.6058 89.0575 75.6938ZM99.0367 82.5139V79.5744C99.235 79.7967 99.4728 79.9678 99.75 80.0877C100.046 80.2156 100.387 80.2795 100.772 80.2795C101.151 80.2795 101.486 80.2024 101.778 80.0482C102.07 79.894 102.315 79.6777 102.514 79.3993C102.716 79.1209 102.869 78.7937 102.974 78.4175C103.079 78.0376 103.132 77.6257 103.132 77.1819V77.0634C103.132 76.5969 103.079 76.1738 102.974 75.7938C102.873 75.4102 102.722 75.081 102.519 74.8064C102.317 74.5318 102.068 74.3212 101.772 74.1745C101.476 74.024 101.138 73.9488 100.756 73.9488C100.374 73.9488 100.037 74.0165 99.7444 74.1519C99.4527 74.2834 99.2031 74.4778 98.9973 74.7331L98.9468 74.0616H97.9918V82.5139H99.0367ZM99.076 78.6545C99.0626 78.6313 99.0495 78.608 99.0367 78.5845V75.6699C99.1059 75.5465 99.1864 75.4336 99.2782 75.3312C99.413 75.1769 99.5759 75.0547 99.7669 74.9644C99.9616 74.8741 100.19 74.829 100.452 74.829C100.737 74.829 100.982 74.8892 101.188 75.0095C101.394 75.1262 101.563 75.2879 101.694 75.4948C101.828 75.6979 101.928 75.9349 101.991 76.2057C102.055 76.4728 102.087 76.7587 102.087 77.0634V77.1819C102.087 77.4865 102.055 77.7743 101.991 78.0451C101.928 78.3122 101.828 78.5492 101.694 78.7561C101.563 78.963 101.394 79.1266 101.188 79.247C100.986 79.3636 100.744 79.4219 100.463 79.4219C100.123 79.4219 99.8399 79.3523 99.6152 79.2131C99.3905 79.0702 99.2108 78.884 99.076 78.6545ZM105.471 71.5V80.1667H104.427V71.5H105.471ZM107.182 72.0135C107.081 72.1301 107.03 72.273 107.03 72.4423C107.03 72.604 107.081 72.7432 107.182 72.8598C107.287 72.9727 107.44 73.0291 107.643 73.0291C107.841 73.0291 107.993 72.9727 108.097 72.8598C108.206 72.7432 108.26 72.604 108.26 72.4423C108.26 72.273 108.206 72.1301 108.097 72.0135C107.993 71.8968 107.841 71.8385 107.643 71.8385C107.44 71.8385 107.287 71.8968 107.182 72.0135ZM108.154 74.0616V80.1667H107.109V74.0616H108.154ZM110.218 74.8628H109.258V74.0616H110.218V73.4184C110.218 72.9783 110.297 72.6078 110.454 72.3069C110.615 72.0022 110.845 71.7727 111.145 71.6185C111.445 71.4605 111.8 71.3815 112.212 71.3815C112.332 71.3815 112.452 71.389 112.572 71.4041C112.695 71.4191 112.815 71.4417 112.931 71.4718L112.875 72.3238C112.796 72.305 112.707 72.2918 112.605 72.2843C112.508 72.2768 112.411 72.273 112.313 72.273C112.092 72.273 111.901 72.3181 111.74 72.4084C111.583 72.4949 111.463 72.6228 111.381 72.7921C111.299 72.9614 111.257 73.1701 111.257 73.4184V74.0616H112.549V74.8628H111.257V80.1667H110.218V74.8628ZM112.923 74.0616L115.092 80.1008L114.867 80.7196C114.784 80.9716 114.685 81.1691 114.569 81.3121C114.456 81.4588 114.318 81.5622 114.153 81.6224C113.988 81.6863 113.788 81.7183 113.552 81.7183C113.526 81.7183 113.479 81.7146 113.412 81.707C113.348 81.7033 113.301 81.6995 113.271 81.6957L113.277 82.5421C113.329 82.5571 113.419 82.576 113.546 82.5985C113.674 82.6211 113.779 82.6324 113.861 82.6324C114.138 82.6324 114.376 82.5816 114.574 82.48C114.777 82.3822 114.949 82.2543 115.091 82.0964C115.234 81.9384 115.35 81.771 115.439 81.5942C115.533 81.4212 115.608 81.2594 115.664 81.1089L118.102 74.0616H116.99L115.579 78.6292L114.058 74.0616H112.923ZM125.644 72.8429V79.2808H126.773C127.357 79.2808 127.844 79.1586 128.233 78.9141C128.623 78.6658 128.915 78.3197 129.109 77.8759C129.308 77.4282 129.407 76.9054 129.407 76.3073V75.8051C129.407 75.3349 129.351 74.9174 129.239 74.5525C129.126 74.1839 128.961 73.8736 128.744 73.6215C128.527 73.3657 128.261 73.172 127.947 73.0404C127.636 72.9087 127.278 72.8429 126.874 72.8429H125.644ZM125.031 71.9514H125.644H126.874C127.409 71.9514 127.898 72.0417 128.34 72.2222C128.782 72.399 129.162 72.6567 129.48 72.9952C129.802 73.33 130.049 73.7363 130.222 74.214C130.394 74.6879 130.48 75.2221 130.48 75.8164V76.3073C130.48 76.9016 130.394 77.4376 130.222 77.9154C130.049 78.3893 129.8 78.7937 129.475 79.1285C129.152 79.4632 128.763 79.7209 128.306 79.9015C127.853 80.0783 127.342 80.1667 126.773 80.1667H125.644H125.065H124.559V71.9514H125.031ZM134.359 80.2795C133.936 80.2795 133.552 80.208 133.207 80.0651C132.867 79.9184 132.573 79.7134 132.325 79.4501C132.082 79.1868 131.895 78.8746 131.764 78.5135C131.633 78.1523 131.567 77.7574 131.567 77.3286V77.0916C131.567 76.595 131.64 76.1531 131.786 75.7656C131.932 75.3744 132.131 75.0434 132.382 74.7726C132.632 74.5017 132.917 74.2967 133.235 74.1575C133.554 74.0184 133.883 73.9488 134.224 73.9488C134.658 73.9488 135.033 74.024 135.347 74.1745C135.666 74.3249 135.926 74.5356 136.128 74.8064C136.33 75.0735 136.48 75.3895 136.578 75.7543C136.675 76.1154 136.724 76.5104 136.724 76.9392V77.4075H132.613C132.619 77.6679 132.658 77.9143 132.73 78.1467C132.812 78.3987 132.93 78.6207 133.084 78.8125C133.241 79.0043 133.43 79.1548 133.651 79.2639C133.876 79.373 134.13 79.4275 134.415 79.4275C134.782 79.4275 135.093 79.3523 135.347 79.2018C135.602 79.0514 135.825 78.8501 136.016 78.5981L136.645 79.1003C136.514 79.2996 136.347 79.4896 136.145 79.6701C135.943 79.8507 135.694 79.9974 135.398 80.1102C135.106 80.2231 134.76 80.2795 134.359 80.2795ZM135.684 76.5556H132.643C132.663 76.3987 132.692 76.252 132.73 76.1154C132.808 75.8333 132.919 75.5945 133.061 75.3989C133.204 75.2033 133.374 75.0566 133.572 74.9588C133.771 74.8572 133.988 74.8064 134.224 74.8064C134.58 74.8064 134.861 74.8892 135.067 75.0547C135.273 75.2202 135.422 75.4308 135.516 75.6866C135.613 75.9424 135.67 76.2057 135.684 76.4766V76.5556ZM138.951 80.1667V71.5H137.906V80.1667H138.951ZM140.51 72.4423C140.51 72.273 140.561 72.1301 140.662 72.0135C140.766 71.8968 140.92 71.8385 141.122 71.8385C141.321 71.8385 141.472 71.8968 141.577 72.0135C141.686 72.1301 141.74 72.273 141.74 72.4423C141.74 72.604 141.686 72.7432 141.577 72.8598C141.472 72.9727 141.321 73.0291 141.122 73.0291C140.92 73.0291 140.766 72.9727 140.662 72.8598C140.561 72.7432 140.51 72.604 140.51 72.4423ZM141.633 80.1667V74.0616H140.589V80.1667H141.633ZM145.191 78.7391L143.647 74.0616H142.58L144.782 80.1667H144.877H145.479H145.574L147.759 74.0616H146.697L145.191 78.7391ZM149.936 80.0651C150.28 80.208 150.664 80.2795 151.087 80.2795C151.488 80.2795 151.835 80.2231 152.127 80.1102C152.422 79.9974 152.672 79.8507 152.874 79.6701C153.076 79.4896 153.243 79.2996 153.374 79.1003L152.745 78.5981C152.554 78.8501 152.331 79.0514 152.076 79.2018C151.821 79.3523 151.511 79.4275 151.144 79.4275C150.859 79.4275 150.604 79.373 150.38 79.2639C150.159 79.1548 149.97 79.0043 149.812 78.8125C149.659 78.6207 149.541 78.3987 149.458 78.1467C149.387 77.9143 149.348 77.6679 149.341 77.4075H153.452V76.9392C153.452 76.5104 153.404 76.1154 153.306 75.7543C153.209 75.3895 153.059 75.0735 152.857 74.8064C152.655 74.5356 152.394 74.3249 152.076 74.1745C151.762 74.024 151.387 73.9488 150.953 73.9488C150.612 73.9488 150.282 74.0184 149.964 74.1575C149.646 74.2967 149.361 74.5017 149.11 74.7726C148.859 75.0434 148.661 75.3744 148.515 75.7656C148.369 76.1531 148.296 76.595 148.296 77.0916V77.3286C148.296 77.7574 148.361 78.1523 148.492 78.5135C148.623 78.8746 148.811 79.1868 149.054 79.4501C149.301 79.7134 149.595 79.9184 149.936 80.0651ZM149.372 76.5556C149.392 76.3987 149.42 76.252 149.458 76.1154C149.537 75.8333 149.648 75.5945 149.79 75.3989C149.932 75.2033 150.103 75.0566 150.301 74.9588C150.5 74.8572 150.717 74.8064 150.953 74.8064C151.308 74.8064 151.589 74.8892 151.795 75.0547C152.001 75.2202 152.151 75.4308 152.245 75.6866C152.342 75.9424 152.398 76.2057 152.413 76.4766V76.5556H149.372ZM155.59 75.8264V80.1667H154.551V74.0616H155.562L155.582 74.7623L155.59 74.75C155.743 74.498 155.938 74.3024 156.174 74.1632C156.414 74.0203 156.698 73.9488 157.028 73.9488C157.103 73.9488 157.189 73.9582 157.286 73.977C157.384 73.992 157.451 74.009 157.488 74.0278L157.483 74.9983C157.397 74.9795 157.314 74.9682 157.236 74.9644C157.161 74.9569 157.075 74.9531 156.977 74.9531C156.738 74.9531 156.526 74.9907 156.342 75.066C156.159 75.1412 156.004 75.2465 155.876 75.3819C155.758 75.5075 155.663 75.6556 155.59 75.8264Z" fill="white"/>
</g>
<defs>
<clipPath id="clip0_704_926">
<rect width="174" height="65" fill="white"/>
</clipPath>
</defs>
</svg>
