<svg width="56" height="56" viewBox="0 0 56 56" fill="none" xmlns="http://www.w3.org/2000/svg">
<g clip-path="url(#clip0_55_972)">
<path d="M39.375 14H47.25" stroke="#212121" stroke-width="2" stroke-linecap="round"/>
<path d="M8.75 10.5H39.6264C41.9002 10.5 44.1062 11.2749 45.8804 12.697L48.0521 14.4375L50.192 16.5337C50.9932 17.3186 51.0341 18.5954 50.2845 19.4299V19.4299C49.8872 19.8723 49.3206 20.125 48.726 20.125H31.5273" stroke="#212121" stroke-width="2" stroke-linecap="round"/>
<path d="M8.75 10.5L14.2621 15.859C16.8048 18.3311 20.1412 19.8223 23.6791 20.068L24.5 20.125" stroke="#212121" stroke-width="2" stroke-linecap="round"/>
<path d="M31.4192 18.375H26.0199C25.8214 18.375 25.6417 18.4924 25.562 18.6742L22.115 26.5359C21.9899 26.8212 22.1533 27.1502 22.4562 27.2229L25.3607 27.9202C25.5612 27.9683 25.7706 27.8885 25.8882 27.7191L31.8299 19.1601C32.0601 18.8286 31.8228 18.375 31.4192 18.375Z" stroke="#212121" stroke-width="2" stroke-linecap="round"/>
<path d="M8.75 10.5V1.375C8.75 1.09886 8.97386 0.875 9.25 0.875H13.8239C14.0475 0.875 14.244 1.02355 14.3049 1.23875L16.9279 10.5M26.0144 10.5L23.9294 3.34828C23.8361 3.02829 24.0761 2.70833 24.4094 2.70833H27.5445C27.7224 2.70833 27.8868 2.80282 27.9764 2.95648L32.375 10.5" stroke="#212121" stroke-width="2" stroke-linecap="round"/>
<path d="M28.875 49.875H25.5C24.9477 49.875 24.5 49.4273 24.5 48.875V33.375C24.5 32.8227 24.9477 32.375 25.5 32.375H42.75C43.3023 32.375 43.75 32.8227 43.75 33.375V49.875" stroke="#212121" stroke-width="2" stroke-linecap="round"/>
<path d="M43.75 36.75H48.0455M54.25 42.181L51.6677 37.2836C51.4947 36.9554 51.1542 36.75 50.7831 36.75H48.0455M54.25 42.181V48.875C54.25 49.4273 53.8023 49.875 53.25 49.875H50.9091M54.25 42.181H49.0455C48.4932 42.181 48.0455 41.7333 48.0455 41.181V36.75" stroke="#212121" stroke-width="2" stroke-linecap="round"/>
<circle cx="32.375" cy="49.875" r="3.375" stroke="#212121" stroke-width="2"/>
<circle cx="47.25" cy="49.875" r="3.375" stroke="#212121" stroke-width="2"/>
<path d="M35.875 49.875H43.75" stroke="#212121" stroke-width="2" stroke-linecap="round"/>
<rect x="1.875" y="29" width="17.25" height="19.875" rx="3" stroke="#212121" stroke-width="2"/>
<path d="M18.9101 33.25H2.0899C1.93741 33.25 1.84101 33.4138 1.91507 33.5471L6.06785 41.0221C6.10312 41.0856 6.17005 41.125 6.24268 41.125H14.7573C14.83 41.125 14.8969 41.0856 14.9322 41.0221L19.0849 33.5471C19.159 33.4138 19.0626 33.25 18.9101 33.25Z" stroke="#212121" stroke-width="2" stroke-linecap="round"/>
<path d="M1.75 53.375L6.5625 49M19.25 53.375L14.4375 49" stroke="#212121" stroke-width="2" stroke-linecap="round"/>
<path d="M3.5 52.0625H17.5" stroke="#212121" stroke-width="2" stroke-linecap="round"/>
</g>
<defs>
<clipPath id="clip0_55_972">
<rect width="56" height="56" fill="white"/>
</clipPath>
</defs>
</svg>
