<svg width="56" height="56" viewBox="0 0 56 56" fill="none" xmlns="http://www.w3.org/2000/svg">
<path fill-rule="evenodd" clip-rule="evenodd" d="M20.9032 0.103419C17.7031 0.305611 13.0103 0.998511 11.7429 1.45585C10.6802 1.83923 9.86896 2.36735 8.96412 3.26463C8.01459 4.20622 7.43345 5.13086 7.00475 6.38208L6.70494 7.25737L6.67511 24.4079C6.64231 43.2687 6.60874 42.255 7.31194 43.6397C7.49619 44.0025 7.93304 44.5838 8.28271 44.9314C9.1957 45.839 9.99663 46.2527 11.3816 46.532L11.9858 46.6539L8.27071 50.4486C6.22737 52.5356 4.50475 54.3762 4.44256 54.5388C4.2811 54.9608 4.41307 55.4037 4.79532 55.7235L5.12584 56H9.39513C13.4411 56 13.6784 55.9889 13.9335 55.7895C14.0816 55.6738 14.9581 54.5414 15.8814 53.273L17.5603 50.9671H27.6172H37.6741L39.3529 53.273C40.2762 54.5414 41.1528 55.6738 41.3008 55.7895C41.5557 55.9888 41.7925 56 45.7778 56C49.9053 56 49.9913 55.9955 50.2839 55.7668C50.6548 55.4768 50.816 55.0733 50.7252 54.6623C50.6773 54.4453 49.4993 53.15 46.9365 50.4963C42.7885 46.2011 43.0819 46.6681 44.347 46.3766C46.0432 45.9859 47.4948 44.6428 48.2123 42.8004C48.4113 42.2895 48.4206 41.6059 48.4501 25.1461C48.4847 5.82803 48.5371 7.10584 47.6336 5.2465C47.221 4.39747 46.9797 4.06694 46.2362 3.33181C45.2387 2.34558 44.4635 1.84448 43.3382 1.45869C41.8338 0.94304 37.368 0.304735 33.8046 0.0960885C31.5547 -0.0356424 23.0261 -0.0307189 20.9032 0.103419ZM33.7258 2.28168C36.797 2.47042 40.9472 3.02426 42.3658 3.43477C43.6618 3.80983 44.9436 4.85733 45.5843 6.06512C46.3145 7.44151 46.2788 6.41862 46.2469 25.0595L46.2181 41.9407L45.9815 42.4493C45.6792 43.0996 44.9625 43.812 44.3083 44.1126L43.7967 44.3477H27.5621H11.3276L10.816 44.1126C10.1632 43.8126 9.51312 43.1664 9.17291 42.4793L8.90623 41.9407L8.87519 25.2008C8.85285 13.104 8.87882 8.25389 8.96896 7.71471C9.29762 5.7499 10.8668 3.97821 12.7585 3.43641C14.1456 3.03903 18.3548 2.45182 20.9583 2.29241C23.133 2.15925 31.6167 2.15214 33.7258 2.28168ZM18.3718 4.46137C17.3894 4.86105 17.5523 6.30484 18.6018 6.50057C19.2177 6.61546 19.8576 6.0812 19.8576 5.45209C19.8576 4.71466 19.0587 4.18194 18.3718 4.46137ZM22.7743 4.46137C22.0737 4.7465 21.8874 5.65953 22.4216 6.19061L22.7242 6.49149L27.427 6.52519C31.6297 6.55539 32.1665 6.53974 32.4745 6.37814C33.2332 5.98033 33.256 4.97462 32.5162 4.54015C32.2394 4.37767 31.7077 4.35874 27.6002 4.36487C25.0671 4.3687 22.8954 4.41214 22.7743 4.46137ZM35.9821 4.46137C34.9998 4.86105 35.1626 6.30484 36.2121 6.50057C36.828 6.61546 37.4679 6.0812 37.4679 5.45209C37.4679 4.71466 36.669 4.18194 35.9821 4.46137ZM11.7679 8.83781C11.6468 8.88716 11.4487 9.03683 11.3276 9.17064C11.111 9.40992 11.1075 9.56791 11.1075 18.9186V28.4235L11.4127 28.7268L11.7178 29.0302L27.4271 29.0626C41.8141 29.0923 43.1653 29.0798 43.481 28.9155C43.6706 28.8168 43.8812 28.6153 43.9488 28.4677C44.1199 28.0945 44.1233 9.73236 43.9524 9.35938C43.8867 9.21605 43.6933 9.01681 43.5226 8.91659C43.237 8.74886 41.9764 8.73497 27.6002 8.74131C19.0136 8.74514 11.889 8.78858 11.7679 8.83781ZM26.4615 18.9097V26.8967H19.8576H13.2538V18.9097V10.9226H19.8576H26.4615V18.9097ZM41.8705 18.9097V26.8967H35.2667H28.6628V18.9097V10.9226H35.2667H41.8705V18.9097ZM14.382 32.5363C12.6351 33.0039 11.4646 34.2854 11.1469 36.0781C10.6407 38.9346 13.3055 41.5516 16.1836 41.0245C17.9425 40.7024 19.2457 39.5038 19.7081 37.7831C20.3315 35.463 18.7721 32.9995 16.3577 32.4902C15.6084 32.3322 15.1002 32.344 14.382 32.5363ZM38.5962 32.5363C36.8493 33.0039 35.6787 34.2854 35.3611 36.0781C34.8549 38.9346 37.5197 41.5516 40.3978 41.0245C42.1567 40.7024 43.4599 39.5038 43.9222 37.7831C44.5456 35.463 42.9862 32.9995 40.5719 32.4902C39.8226 32.3322 39.3144 32.344 38.5962 32.5363ZM22.7743 33.5647C22.0737 33.8498 21.8874 34.7629 22.4216 35.294L22.7242 35.5948L27.427 35.6285C31.6297 35.6587 32.1665 35.6431 32.4745 35.4815C33.2332 35.0837 33.256 34.078 32.5162 33.6435C32.2394 33.481 31.7077 33.4621 27.6002 33.4682C25.0671 33.472 22.8954 33.5155 22.7743 33.5647ZM16.7064 34.96C18.3693 36.1246 17.6921 38.6928 15.6691 38.8933C15.1539 38.9443 14.9854 38.9085 14.4682 38.6377C13.9788 38.3813 13.8096 38.2139 13.5602 37.7394C13.1688 36.9945 13.1688 36.4928 13.5602 35.7479C13.8096 35.2734 13.9788 35.106 14.4682 34.8496C14.9854 34.5788 15.1539 34.543 15.6691 34.5941C16.0788 34.6346 16.4071 34.7505 16.7064 34.96ZM40.9206 34.96C42.5835 36.1246 41.9063 38.6928 39.8833 38.8933C39.3681 38.9443 39.1996 38.9085 38.6824 38.6377C38.1929 38.3813 38.0238 38.2139 37.7744 37.7394C37.5971 37.402 37.4679 36.9825 37.4679 36.7437C37.4679 36.5048 37.5971 36.0853 37.7744 35.7479C38.0238 35.2734 38.1929 35.106 38.6824 34.8496C39.1996 34.5788 39.3681 34.543 39.8833 34.5941C40.293 34.6346 40.6213 34.7505 40.9206 34.96ZM22.7743 37.9412C22.0737 38.2263 21.8874 39.1393 22.4216 39.6704L22.7242 39.9713L27.427 40.005C31.6297 40.0352 32.1665 40.0195 32.4745 39.8579C33.2332 39.4601 33.256 38.4544 32.5162 38.0199C32.2394 37.8575 31.7077 37.8385 27.6002 37.8447C25.0671 37.8485 22.8954 37.8919 22.7743 37.9412ZM17.9095 46.7391C17.8611 46.8209 16.6848 48.4456 15.2957 50.3497L12.7699 53.8118H10.4122H8.05444L10.8468 50.9628C12.3825 49.3958 13.9535 47.7711 14.3378 47.3523L15.0366 46.5906H16.5171C17.7337 46.5906 17.9818 46.6171 17.9095 46.7391ZM35.2643 47.6574L36.0471 48.7242L31.8678 48.7528C29.5692 48.7686 25.7758 48.7686 23.4379 48.7528L19.1872 48.7242L19.97 47.6574L20.7527 46.5906H27.6172H34.4817L35.2643 47.6574ZM42.641 49.1796C44.003 50.598 45.555 52.2205 46.09 52.7852L47.0624 53.8118H44.7633H42.4644L39.9387 50.3497C38.5496 48.4456 37.3733 46.8209 37.3249 46.7391C37.2526 46.617 37.4971 46.5915 38.7007 46.5957L40.1645 46.6007L42.641 49.1796Z" fill="#EA3A61"/>
</svg>
