<svg width="20" height="20" viewBox="0 0 20 20" fill="none" xmlns="http://www.w3.org/2000/svg">
<path d="M13.6346 11.666C13.7013 11.116 13.7513 10.566 13.7513 9.99935C13.7513 9.43268 13.7013 8.88268 13.6346 8.33268H16.4513C16.5846 8.86602 16.668 9.42435 16.668 9.99935C16.668 10.5743 16.5846 11.1327 16.4513 11.666H13.6346ZM12.1596 16.2993C12.6596 15.3743 13.043 14.3743 13.3096 13.3327H15.768C14.968 14.7077 13.693 15.7743 12.1596 16.2993ZM11.9513 11.666H8.0513C7.96797 11.116 7.91797 10.566 7.91797 9.99935C7.91797 9.43268 7.96797 8.87435 8.0513 8.33268H11.9513C12.0263 8.87435 12.0846 9.43268 12.0846 9.99935C12.0846 10.566 12.0263 11.116 11.9513 11.666ZM10.0013 16.6327C9.30964 15.6327 8.7513 14.5243 8.40964 13.3327H11.593C11.2513 14.5243 10.693 15.6327 10.0013 16.6327ZM6.66797 6.66602H4.23464C5.0263 5.28268 6.30964 4.21602 7.83463 3.69935C7.33463 4.62435 6.95964 5.62435 6.66797 6.66602ZM4.23464 13.3327H6.66797C6.95964 14.3743 7.33463 15.3743 7.83463 16.2993C6.30964 15.7743 5.0263 14.7077 4.23464 13.3327ZM3.5513 11.666C3.41797 11.1327 3.33464 10.5743 3.33464 9.99935C3.33464 9.42435 3.41797 8.86602 3.5513 8.33268H6.36797C6.3013 8.88268 6.2513 9.43268 6.2513 9.99935C6.2513 10.566 6.3013 11.116 6.36797 11.666H3.5513ZM10.0013 3.35768C10.693 4.35768 11.2513 5.47435 11.593 6.66602H8.40964C8.7513 5.47435 9.30964 4.35768 10.0013 3.35768ZM15.768 6.66602H13.3096C13.043 5.62435 12.6596 4.62435 12.1596 3.69935C13.693 4.22435 14.968 5.28268 15.768 6.66602ZM10.0013 1.66602C5.39297 1.66602 1.66797 5.41602 1.66797 9.99935C1.66797 12.2095 2.54594 14.3291 4.10875 15.8919C4.88257 16.6657 5.80123 17.2796 6.81227 17.6983C7.82332 18.1171 8.90695 18.3327 10.0013 18.3327C12.2114 18.3327 14.3311 17.4547 15.8939 15.8919C17.4567 14.3291 18.3346 12.2095 18.3346 9.99935C18.3346 8.905 18.1191 7.82137 17.7003 6.81032C17.2815 5.79927 16.6677 4.88061 15.8939 4.10679C15.12 3.33297 14.2014 2.71914 13.1903 2.30035C12.1793 1.88156 11.0957 1.66602 10.0013 1.66602Z" fill="white"/>
</svg>
